<svg width="375" height="812" viewBox="0 0 375 812" fill="none" xmlns="http://www.w3.org/2000/svg">
<mask id="mask0_682_7369" style="mask-type:alpha" maskUnits="userSpaceOnUse" x="0" y="0" width="375" height="812">
<rect width="375" height="812" fill="#D9D9D9"/>
</mask>
<g mask="url(#mask0_682_7369)">
<g filter="url(#filter0_n_682_7369)">
<rect width="375" height="812" fill="url(#paint0_linear_682_7369)"/>
</g>
<g opacity="0.8">
<path d="M584.311 1785.41C500.685 1760.68 420.265 1725.87 357.318 1671.05C319.626 1638.31 288.574 1597.5 269.85 1551.61C257.755 1521.7 250.811 1489.72 250.669 1456.71C250.047 1355.52 307.821 1251.27 305.657 1154.64C304.859 1117.49 298.739 1084.66 284.868 1051.91C273 1023.93 255.5 997.139 236.607 970.997C210.225 934.598 180.144 896.411 159.514 857.897C147.969 836.636 139.459 814.932 135.083 792.572C126.169 748.187 132.516 708.276 144.219 666.555C161.155 606.455 188.064 540.14 201.317 467.059C202.785 459.388 203.886 451.789 204.752 444.16C214.49 360.501 186.883 305.007 182.539 250.137C178.236 195.868 198.705 135.152 235.875 64.0893C246.788 43.2279 258.994 21.5808 272.36 -0.750116C296.642 -41.2027 324.08 -83.0339 351.57 -123.429C392.755 -184.088 433.781 -241.672 469.835 -283.819" stroke="url(#paint1_linear_682_7369)" stroke-opacity="0.2" stroke-miterlimit="10"/>
<path d="M567.66 1787.07C484.797 1761.96 405.537 1726.47 343.588 1671.3C306.394 1638.39 275.913 1597.77 257.495 1552.27C245.37 1522.6 238.63 1490.88 238.122 1457.95C236.706 1357.36 291.782 1253.72 291.768 1157.96C291.702 1120.68 287.313 1087.36 274.573 1054.15C263.6 1025.7 246.792 998.157 228.091 971.445C202.035 934.374 171.75 895.922 149.918 857.491C137.875 836.403 128.631 814.843 123.023 792.8C111.91 748.846 114.988 709.346 123.585 667.7C135.876 607.595 158.425 540.003 171.901 466.117C173.369 458.446 174.602 450.745 175.601 443.013C186.57 359.037 165.206 303.159 166.334 250.187C167.359 197.083 192.884 139.64 233.11 69.806C244.93 49.3001 258.073 27.774 271.908 5.50365C297.259 -34.9298 325.124 -77.3015 352.268 -118.694C392.931 -180.85 431.622 -240.64 463.803 -285.075" stroke="url(#paint2_linear_682_7369)" stroke-opacity="0.2" stroke-miterlimit="10"/>
<path d="M551.012 1788.74C469.146 1763.27 390.843 1726.83 329.861 1671.55C293.268 1638.6 263.256 1598.04 245.042 1552.81C233.121 1523.4 226.116 1491.89 225.577 1459.19C223.368 1359.22 275.614 1256.28 278.014 1161.19C278.814 1123.66 276.125 1090.08 264.545 1056.19C254.6 1027.16 238.454 999.106 219.946 971.823C194.214 934.079 163.725 895.363 140.794 857.148C128.15 836.101 118.041 814.786 111.537 793.223C98.2241 749.699 98.0342 710.611 103.524 669.04C111.406 608.961 129.462 540.192 143.059 465.369C144.425 457.566 145.79 449.763 146.891 442.164C158.858 357.84 144.073 301.74 150.468 250.402C157.056 198.492 187.534 144.191 230.919 75.7177C243.646 55.5671 257.492 34.1319 272.029 11.9523C298.45 -28.4621 326.743 -71.374 353.64 -113.632C393.783 -177.285 430.138 -239.282 458.446 -286.003" stroke="url(#paint3_linear_682_7369)" stroke-opacity="0.2" stroke-miterlimit="10"/>
<path d="M534.228 1790.5C453.127 1764.65 375.983 1727.53 316.101 1672.04C280.242 1638.94 250.8 1598.57 232.555 1553.58C220.736 1524.3 213.701 1493.02 212.868 1460.76C209.967 1361.53 259.514 1259.2 263.963 1164.85C265.73 1127.21 264.64 1093.24 254.189 1058.9C245.272 1029.28 229.553 1000.69 211.34 972.973C185.934 934.556 155.139 895.443 131.21 857.575C118.066 836.702 107.092 815.633 99.489 794.285C83.9764 751.192 80.6197 712.646 82.9016 671.019C86.1388 610.935 99.834 540.888 113.42 465.23C114.918 457.325 116.284 449.522 117.415 441.688C130.512 356.915 122.072 300.563 134.07 251.02C146.088 200.408 181.52 149.248 228.095 81.9013C241.861 62.004 256.511 40.7919 271.517 18.6729C299.14 -21.8245 327.859 -65.2767 354.277 -108.431C394 -173.447 427.919 -237.784 452.354 -286.792" stroke="url(#paint4_linear_682_7369)" stroke-opacity="0.2" stroke-miterlimit="10"/>
<path d="M517.578 1792.16C437.372 1765.83 361.389 1728.03 302.373 1672.29C267.114 1639.15 238.14 1598.84 220.202 1554.25C208.485 1525.1 201.522 1494.19 200.424 1462.13C196.729 1363.51 243.71 1261.68 250.177 1168.31C252.809 1130.42 253.42 1096.2 244.13 1061.17C236.108 1031.08 221.081 1001.74 203.162 973.584C178.183 934.627 146.95 895.219 122.053 857.464C108.309 836.633 96.7041 815.839 87.8688 794.808C70.1568 752.146 63.5313 714.012 62.7069 672.459C61.4322 612.269 70.6042 541.281 84.444 464.583C85.9418 456.678 87.2052 448.743 88.5707 440.939C102.665 355.819 100.936 299.143 118.07 251.336C135.885 201.949 176.036 153.899 225.637 88.0154C240.31 68.4735 255.765 47.4845 271.372 25.324C300.064 -15.1543 329.211 -59.1468 355.383 -103.166C394.585 -169.679 426.169 -236.224 446.731 -287.518" stroke="url(#paint5_linear_682_7369)" stroke-opacity="0.2" stroke-miterlimit="10"/>
<path d="M500.798 1793.92C421.457 1767.35 346.532 1728.73 288.513 1672.64C253.855 1639.46 225.452 1599.35 207.616 1554.88C196.001 1525.87 189.008 1495.19 187.747 1463.47C183.229 1365.7 227.542 1264.24 236.291 1171.64C239.789 1133.5 242.1 1099.02 233.837 1063.42C226.844 1032.74 212.478 1002.9 194.518 974.135C169.864 934.506 138.324 894.701 112.328 857.162C97.9833 836.372 85.5128 815.824 75.6798 795.14C55.6665 752.776 45.8742 715.186 41.9436 673.708C36.0246 613.513 40.836 541.247 54.8989 463.744C56.2947 455.707 57.7924 447.802 59.2902 439.897C74.4843 354.561 79.4669 297.561 101.736 251.489C125.113 203.297 170.085 158.491 222.876 93.7338C238.588 74.4453 254.746 53.5471 270.923 31.5794C300.685 -8.87977 330.258 -53.4126 356.083 -98.4298C394.764 -166.439 424.012 -235.191 440.701 -288.773" stroke="url(#paint6_linear_682_7369)" stroke-opacity="0.2" stroke-miterlimit="10"/>
<path d="M484.044 1795.45C405.599 1768.4 331.834 1729.09 274.783 1672.89C240.858 1639.57 212.791 1599.62 195.261 1555.55C183.85 1526.8 176.826 1496.36 175.169 1464.94C169.857 1367.78 211.574 1267.06 222.37 1175.2C226.866 1136.71 230.613 1102.18 223.745 1065.92C217.78 1034.66 203.973 1004.18 186.308 974.979C161.979 934.677 130.236 894.608 103.14 857.283C88.2962 836.667 75.0925 816.263 64.2618 795.927C41.9168 754.095 28.988 716.814 21.9511 675.411C11.6223 615.242 11.9408 541.8 26.0228 463.228C27.5508 455.089 29.0486 447.184 30.5464 439.278C46.8704 353.493 58.432 296.272 85.9384 252.067C115.112 205.101 164.803 163.405 220.651 99.8767C237.27 80.9436 254.233 60.2684 271.011 38.2592C301.974 -2.2829 331.975 -47.356 357.29 -93.0346C395.551 -162.408 422.363 -233.5 435.047 -289.266" stroke="url(#paint7_linear_682_7369)" stroke-opacity="0.2" stroke-miterlimit="10"/>
<path d="M467.393 1797.1C389.711 1769.68 317.239 1729.59 261.053 1673.14C227.627 1639.64 200.263 1599.78 182.804 1556.08C171.495 1527.47 164.441 1497.26 162.52 1466.04C156.516 1369.63 195.667 1269.41 208.379 1178.39C213.842 1139.79 219.188 1104.87 213.348 1068.03C208.279 1036.29 195.031 1005.16 177.793 975.426C153.789 934.451 121.607 894.087 93.6463 857.008C78.2017 836.433 64.1325 816.274 52.3042 796.286C27.7598 754.884 11.5622 718.015 1.28687 676.789C-13.6862 616.616 -17.6264 542.027 -3.42332 462.519C-1.89528 454.379 -0.367212 446.24 1.36484 438.365C18.6866 352.232 37.0616 294.819 69.7334 252.115C104.571 206.476 158.982 167.892 217.988 105.724C235.514 87.1463 253.414 66.5922 270.661 44.6436C302.694 4.12058 333.121 -41.4929 358.089 -88.1691C395.829 -159.039 420.306 -232.338 429.116 -290.391" stroke="url(#paint8_linear_682_7369)" stroke-opacity="0.2" stroke-miterlimit="10"/>
<path d="M450.612 1798.87C373.928 1771.09 302.382 1730.29 247.193 1673.5C214.368 1639.96 187.575 1600.29 170.351 1556.62C159.144 1528.13 152.06 1498.16 149.975 1467.28C143.178 1371.48 179.763 1271.76 194.625 1181.62C200.954 1142.77 207.898 1107.47 203.188 1070.18C199.146 1037.85 186.56 1006.22 169.383 976.008C145.704 934.36 113.318 893.732 84.2574 856.868C68.1817 836.569 53.3794 816.553 40.4514 796.78C13.7077 755.809 -5.65673 719.483 -19.1404 678.2C-38.7577 618.022 -47.0584 542.156 -32.6323 461.842C-31.2062 453.571 -29.4439 445.461 -27.8139 437.454C-9.26016 351.004 15.6938 293.369 53.5008 252.401C94.237 208.12 153.265 172.514 215.329 111.575C233.893 93.2502 252.466 73.0213 270.446 50.9292C303.681 10.3232 334.403 -35.7287 359.125 -83.2703C396.344 -155.637 418.486 -231.143 423.322 -291.615" stroke="url(#paint9_linear_682_7369)" stroke-opacity="0.2" stroke-miterlimit="10"/>
<path d="M433.963 1800.53C358.042 1772.38 287.789 1730.79 233.465 1673.75C201.241 1640.17 174.917 1600.56 157.998 1557.28C146.995 1529.07 139.881 1499.32 137.399 1468.75C129.911 1373.7 163.93 1274.48 180.708 1185.18C188.004 1146.22 196.546 1110.53 193.099 1072.68C190.085 1039.78 178.058 1007.5 161.176 976.854C137.822 934.534 105.13 893.509 75.102 856.758C58.4254 836.5 42.8598 816.862 28.8321 797.304C-0.24329 756.866 -22.7443 720.849 -39.3342 679.641C-63.4635 619.357 -76.155 542.447 -61.7098 461.064C-60.2838 452.792 -58.6235 444.551 -56.7592 436.574C-37.2078 349.776 -5.47064 292.184 37.3998 252.585C83.9023 209.763 147.65 177.268 212.902 117.455C232.374 99.4862 251.884 79.3783 270.332 57.3468C304.636 16.7598 336.02 -29.802 360.262 -78.2393C397.062 -151.97 416.767 -229.816 417.73 -292.575" stroke="url(#paint10_linear_682_7369)" stroke-opacity="0.2" stroke-miterlimit="10"/>
<path d="M417.31 1802.19C342.285 1773.56 273.06 1731.38 219.836 1674.13C188.345 1640.4 162.459 1601.09 145.642 1557.95C134.609 1529.97 127.464 1500.46 124.953 1470.12C116.538 1375.78 148.225 1277.09 167.052 1188.53C175.345 1149.23 185.456 1113.38 183.036 1074.96C181.051 1041.47 169.451 1008.65 152.894 977.331C129.967 934.471 96.9691 893.049 65.8411 856.513C48.6657 836.429 32.6618 816.497 17.2093 797.826C-14.9914 758.532 -39.8352 722.213 -59.5313 681.08C-88.2029 620.923 -105.357 542.603 -90.6887 460.415C-89.1304 452.041 -87.4701 443.8 -85.4735 435.721C-64.7921 348.474 -26.374 290.792 21.6317 252.928C73.9005 211.566 142.398 181.947 210.575 123.466C231.055 105.984 251.268 85.9672 270.317 63.8942C305.691 23.3264 337.502 -23.7756 361.396 -73.2106C397.675 -148.438 415.045 -228.491 412.135 -293.537" stroke="url(#paint11_linear_682_7369)" stroke-opacity="0.2" stroke-miterlimit="10"/>
<path d="M400.533 1803.95C326.374 1775.08 258.339 1731.99 205.981 1674.49C175.09 1640.72 149.805 1601.37 133.162 1558.72C122.231 1530.87 115.056 1501.6 112.25 1471.7C103.041 1377.97 132.367 1280.05 153.006 1192.2C162.268 1152.78 173.977 1116.54 172.717 1077.44C171.627 1043.47 160.822 1010.04 144.325 978.251C121.723 934.718 88.2869 893.001 56.2935 856.711C38.5172 836.669 21.3531 817.42 5.33006 798.557C-28.2764 759.081 -57.315 723.887 -79.9851 682.728C-113.301 622.566 -134.714 543.1 -119.924 459.975C-118.468 451.469 -116.573 443.258 -114.577 435.179C-92.8977 347.584 -47.6964 289.945 5.60699 253.48C63.6421 213.578 136.757 186.938 208.123 129.583C229.643 112.355 250.558 92.4282 270.178 70.5481C306.753 29.8973 338.859 -17.6432 362.508 -67.9436C398.133 -144.566 413.402 -226.795 406.517 -294.261" stroke="url(#paint12_linear_682_7369)" stroke-opacity="0.2" stroke-miterlimit="10"/>
<path d="M383.776 1805.48C310.513 1776.12 243.506 1732.45 192.145 1674.6C161.856 1640.79 137.039 1601.5 120.6 1559.12C109.873 1531.53 102.668 1502.49 99.5968 1472.8C89.6967 1379.82 116.456 1282.4 139.012 1195.39C149.373 1155.76 162.548 1119.23 162.419 1079.68C162.357 1045.13 152.11 1011.05 135.908 978.827C113.631 934.622 79.9914 892.641 46.8983 856.566C28.6232 836.697 10.4915 817.562 -6.52918 799.046C-42.4673 760.103 -74.6422 725.218 -100.419 684.134C-138.246 623.866 -164.182 543.458 -149.242 459.161C-147.785 450.655 -145.86 442.21 -143.732 434.029C-120.953 346.219 -69.0705 288.491 -10.7036 253.395C53.1999 215.084 131.064 191.32 205.487 135.194C227.914 118.321 249.634 98.618 269.855 76.6963C307.499 36.0646 340.164 -12.1182 363.334 -63.3143C398.54 -141.301 411.372 -225.87 400.614 -295.622" stroke="url(#paint13_linear_682_7369)" stroke-opacity="0.2" stroke-miterlimit="10"/>
<path d="M366.996 1807.24C294.496 1777.51 228.781 1733.05 178.388 1675.09C148.73 1641 124.453 1602.14 108.117 1559.89C97.4912 1532.44 90.2557 1503.63 86.9202 1474.14C76.2264 1381.77 100.624 1285.12 125.126 1198.72C136.454 1158.98 151.228 1122.06 152.259 1081.82C153.225 1046.69 143.537 1011.97 127.498 979.41C105.414 934.634 71.6003 892.153 37.5095 856.426C18.6336 836.599 -0.261376 817.841 -18.3818 799.541C-56.5193 761.028 -91.8611 726.687 -120.846 685.545C-163.216 625.405 -193.614 543.587 -178.451 458.485C-176.862 449.877 -174.937 441.432 -172.808 433.251C-148.899 344.992 -90.3663 287.408 -26.834 253.813C42.7036 217.064 125.317 196.177 202.797 141.279C226.263 124.66 248.656 105.282 269.478 83.3184C308.191 42.7058 341.284 -6.01729 364.208 -58.0788C398.892 -137.562 409.389 -224.338 394.758 -296.377" stroke="url(#paint14_linear_682_7369)" stroke-opacity="0.2" stroke-miterlimit="10"/>
<path d="M350.345 1808.9C278.71 1778.92 214.186 1733.54 164.658 1675.34C135.601 1641.21 111.793 1602.41 95.7623 1560.56C85.2389 1533.23 78.0752 1504.8 74.3428 1475.61C62.8251 1384.08 84.789 1287.83 111.206 1202.28C123.634 1162.32 139.875 1125.12 141.933 1084.29C143.927 1048.58 134.769 1013.46 118.953 980.091C97.1941 934.643 63.044 892 27.8838 856.253C8.40702 836.468 -11.2514 818.088 -30.3695 800.135C-70.8386 762.154 -109.449 728.225 -141.408 687.056C-188.554 627.013 -223.079 543.947 -207.794 457.909C-206.308 449.168 -204.281 440.855 -201.887 432.47C-176.981 343.864 -111.665 286.322 -43.069 254.096C32.2348 218.807 119.598 200.796 200.237 147.259C224.609 130.995 247.94 111.738 269.23 89.8359C309.145 49.1403 342.532 -0.0211345 365.109 -53.0803C399.272 -134.06 407.434 -223.043 388.93 -297.369" stroke="url(#paint15_linear_682_7369)" stroke-opacity="0.2" stroke-miterlimit="10"/>
<path d="M333.695 1810.56C262.955 1780.1 199.459 1734.14 150.929 1675.59C122.473 1641.42 99.3674 1602.71 83.3067 1561.09C72.9873 1534.03 65.6913 1505.7 61.7964 1476.85C49.485 1385.93 69.087 1290.45 97.3181 1205.61C110.611 1165.4 128.552 1127.94 131.873 1086.57C134.895 1050.27 126.296 1014.51 110.775 980.701C89.3412 934.58 54.8851 891.541 18.7272 856.142C-1.24843 836.53 -21.8742 818.263 -41.99 800.658C-84.7908 763.209 -126.538 729.589 -161.603 688.496C-213.393 628.448 -252.279 544.105 -236.873 457.129C-235.386 448.389 -233.329 439.841 -230.834 431.588C-204.798 342.532 -132.933 285.003 -58.937 254.309C22.1029 220.713 114.216 205.579 197.942 153.036C223.221 137.128 247.254 117.962 269.247 96.15C310.232 55.4736 344.179 5.66986 366.245 -48.0507C399.989 -130.394 405.714 -221.717 383.337 -298.33" stroke="url(#paint16_linear_682_7369)" stroke-opacity="0.2" stroke-miterlimit="10"/>
<path d="M316.916 1812.32C247.042 1781.62 184.736 1734.74 137.174 1676.08C109.318 1641.87 86.6812 1603.21 70.9264 1561.99C60.7091 1535.07 53.3828 1506.97 49.3253 1478.46C36.3222 1388.29 53.4603 1293.43 83.6375 1209.2C98.1325 1168.91 117.438 1131.03 121.787 1089.08C125.704 1052.31 117.899 1015.92 102.438 981.652C81.4315 934.99 46.6693 891.554 9.41174 856.37C-11.1647 836.799 -32.5539 818.91 -53.6371 801.418C-98.7695 764.502 -143.551 731.324 -181.824 690.173C-238.025 630.151 -281.403 544.632 -265.876 456.719C-264.257 447.877 -262.2 439.329 -259.675 430.842C-232.539 341.571 -153.992 283.952 -74.8314 254.759C11.9748 222.623 108.807 210.599 195.488 159.153C221.908 143.63 246.644 124.555 269.238 102.702C311.292 62.0443 345.666 11.7004 367.385 -43.0179C400.608 -126.858 403.998 -220.388 377.616 -299.186" stroke="url(#paint17_linear_682_7369)" stroke-opacity="0.2" stroke-miterlimit="10"/>
<path d="M300.266 1813.98C231.288 1782.8 170.01 1735.34 123.446 1676.33C96.3228 1641.98 74.0226 1603.48 58.4718 1562.53C48.3565 1535.74 40.9697 1508.1 36.6476 1479.79C22.8509 1390.24 37.7594 1296.05 69.618 1212.63C85.0804 1172.23 105.984 1133.96 111.463 1091.55C116.408 1054.2 109.031 1017.28 93.9965 982.466C73.3151 935.132 38.1147 891.401 -0.00825936 856.463C-21.0836 837.066 -43.2059 819.32 -65.5211 802.146C-112.853 765.66 -160.903 732.893 -202.415 691.919C-263.26 631.893 -310.897 545.228 -295.249 456.378C-293.63 447.535 -291.542 438.754 -288.915 430.399C-260.649 340.678 -175.584 283.306 -91.2274 255.379C1.21284 224.805 102.927 215.556 192.766 165.471C220.094 150.303 245.635 131.451 268.83 109.557C312.086 68.8162 346.754 18.034 368.227 -37.5497C400.929 -122.886 401.984 -218.624 371.729 -299.709" stroke="url(#paint18_linear_682_7369)" stroke-opacity="0.2" stroke-miterlimit="10"/>
<path d="M283.378 1815.61C215.163 1784.05 155.178 1735.81 109.479 1676.54C82.9566 1642.15 61.227 1603.85 45.7783 1563.03C35.6327 1536.47 28.3478 1508.97 23.8632 1481C9.37487 1392.19 21.9213 1298.77 55.6239 1215.82C72.186 1175.21 94.4237 1136.75 101.195 1093.56C107.168 1055.63 100.35 1018.06 85.5088 982.679C65.1525 934.672 29.7481 890.676 -9.44433 855.719C-31.1205 836.364 -54.0062 818.996 -77.319 802.168C-127.013 766.45 -178.169 733.757 -222.787 692.859C-288.144 632.726 -340.274 544.885 -324.505 455.097C-322.988 446.123 -320.666 437.371 -318.039 429.017C-288.775 338.948 -196.927 281.619 -107.405 255.194C-9.36109 226.415 97.2346 219.941 190.162 170.85C218.396 156.038 244.772 137.174 268.537 115.472C312.863 74.7512 347.958 23.4287 369.084 -33.1527C401.367 -119.854 399.985 -217.931 365.857 -301.302" stroke="url(#paint19_linear_682_7369)" stroke-opacity="0.2" stroke-miterlimit="10"/>
<path d="M266.729 1817.27C160.471 1766.74 74.9294 1673.87 33.4257 1563.7C-8.07807 1453.53 -4.75784 1327.36 41.9408 1219.41C59.6026 1178.58 83.3064 1139.84 91.1058 1096.07C107.465 1005.4 51.1065 916.183 -18.7623 855.944C-88.5291 795.836 -173.143 754.772 -243.144 694.635C-313.043 634.63 -369.533 545.51 -353.643 454.786C-334.98 349.056 -227.01 283.091 -123.434 255.742C-19.624 228.423 91.5889 224.928 187.675 177.198C271.546 135.512 338.4 60.5427 370.161 -27.6547C401.922 -115.852 398.206 -216.136 360.204 -301.795" stroke="url(#paint20_linear_682_7369)" stroke-opacity="0.2" stroke-miterlimit="10"/>
<path d="M244.669 1799.06C140.01 1748.14 56.4446 1655.64 16.49 1546.39C-23.4645 1437.13 -19.9594 1312.29 27.3625 1205.98C45.8179 1164.54 71.6909 1125.6 81.0283 1081.91C99.9868 993.245 47.2257 905.68 -18.2635 845.649C-83.6506 785.75 -164.069 743.561 -231.606 682.789C-300.122 621.295 -358.374 532.901 -344.959 441.976C-329.066 336.484 -224.307 267.722 -120.988 238.672C-17.6688 209.623 94.961 207.144 190.359 162.898C272.839 124.605 337.67 53.3048 369.691 -30.4524C401.712 -114.21 400.323 -210.382 365.023 -293.905" stroke="url(#paint21_linear_682_7369)" stroke-opacity="0.2" stroke-miterlimit="10"/>
<path d="M222.635 1780.61C119.809 1729.33 37.9858 1637.17 -0.653873 1528.81C-39.2935 1420.44 -35.2369 1296.86 12.8102 1192.31C32.1916 1150.15 60.0711 1111.35 70.9465 1067.74C92.4742 981.315 43.3407 895.171 -17.6668 835.481C-78.644 775.556 -155 732.343 -220.206 671.039C-287.206 607.955 -347.585 520.358 -336.513 429.13C-323.624 323.845 -221.609 252.347 -119.015 221.536C-16.4208 190.725 97.7584 189.161 192.437 148.634C273.496 113.968 336.468 46.0009 368.749 -33.3161C400.928 -112.765 401.967 -204.694 369.369 -286.081" stroke="url(#paint22_linear_682_7369)" stroke-opacity="0.2" stroke-miterlimit="10"/>
<path d="M200.574 1762.39C99.4792 1710.62 19.6319 1618.84 -17.8252 1511.46C-55.2822 1404.08 -50.4398 1281.8 -1.76944 1178.87C18.5379 1136 48.424 1097.34 60.8676 1053.57C84.8626 969.256 39.4283 884.9 -17.1692 825.184C-73.7667 765.468 -146.061 721.232 -208.904 659.161C-274.287 594.618 -336.896 507.686 -328.064 416.288C-318.047 311.108 -218.908 236.976 -117.039 204.404C-15.1698 171.832 100.528 171.417 194.753 134.403C274.054 103.203 335.472 38.9651 368.043 -36.1459C400.482 -111.155 403.717 -198.87 373.953 -278.224" stroke="url(#paint23_linear_682_7369)" stroke-opacity="0.2" stroke-miterlimit="10"/>
<path d="M178.407 1744.04C79.0127 1692.02 0.937617 1600.35 -34.9702 1493.88C-70.8781 1387.41 -65.4842 1266.39 -16.3228 1165.2C4.91045 1121.61 36.6708 1083.2 50.815 1039.17C77.1449 957.061 35.5724 874.157 -16.5132 814.548C-68.5987 754.939 -136.83 709.679 -197.444 646.943C-261.545 580.779 -325.813 494.705 -319.559 402.973C-312.414 297.899 -216.282 221.235 -115.006 186.8C-13.628 152.497 103.12 153.17 196.891 119.671C274.669 91.9663 334.329 31.1931 367.16 -39.4777C399.992 -110.148 405.421 -193.649 378.49 -270.97" stroke="url(#paint24_linear_682_7369)" stroke-opacity="0.2" stroke-miterlimit="10"/>
<path d="M156.481 1725.73C58.8172 1673.21 -17.4138 1582.02 -51.9047 1476.57C-86.3957 1371.12 -80.4503 1251.36 -30.798 1151.89C-8.63874 1107.6 25.0262 1069.19 40.7083 1025.24C69.3732 945.339 31.6625 863.887 -16.0434 804.486C-63.7493 745.086 -127.756 698.466 -186.17 635.3C-248.756 567.546 -314.917 482.298 -311.138 390.366C-306.763 285.53 -213.71 205.966 -112.956 170.035C-12.3028 133.971 105.862 135.661 199.281 105.809C275.433 81.4665 333.305 24.3925 366.397 -41.8381C399.488 -108.069 407.244 -187.458 383.118 -262.51" stroke="url(#paint25_linear_682_7369)" stroke-opacity="0.2" stroke-miterlimit="10"/>
<path d="M134.319 1707.38C38.4876 1654.51 -36.0014 1563.66 -69.0452 1458.99C-102.089 1354.32 -95.388 1236.09 -45.3467 1138.23C-22.2615 1093.21 13.2777 1055.05 30.7624 1010.98C61.528 933.251 27.8829 853.515 -15.413 794.088C-58.6069 734.794 -118.551 687.151 -174.736 623.32C-235.674 553.873 -303.993 469.657 -302.658 377.29C-301.156 272.559 -210.978 190.361 -110.816 152.566C-10.6544 114.772 108.459 117.418 201.526 91.2122C275.818 70.2029 332.371 16.8886 365.62 -45.0341C398.869 -106.957 408.923 -182 387.629 -255.019" stroke="url(#paint26_linear_682_7369)" stroke-opacity="0.2" stroke-miterlimit="10"/>
<path d="M112.254 1689.17C18.1535 1635.8 -54.4915 1545.43 -86.2204 1441.65C-117.949 1337.86 -110.361 1221.05 -59.9303 1124.79C-35.9192 1079.06 1.39225 1041 20.5472 996.912C53.2812 921.465 23.8645 843.109 -14.9497 784.023C-53.866 724.806 -109.483 675.935 -163.336 611.572C-222.758 540.534 -293.073 457.013 -294.112 364.578C-295.379 260.084 -208.31 175.221 -108.742 135.564C-9.17303 95.9061 110.859 99.743 203.838 76.9796C276.271 59.3029 331.269 9.71812 364.911 -47.8663C398.42 -105.349 410.902 -176.148 392.209 -247.163" stroke="url(#paint27_linear_682_7369)" stroke-opacity="0.2" stroke-miterlimit="10"/>
<path d="M90.2259 1670.72C-2.17375 1617.1 -72.9445 1526.97 -103.256 1424.2C-133.568 1321.43 -125.194 1205.92 -74.3747 1111.25C-49.4376 1064.81 -10.3842 1027.1 10.6036 982.647C45.204 909.347 20.1177 832.503 -14.3168 773.626C-48.7211 714.515 -103.949 667.243 -151.899 599.593C-205.705 523.802 -282.014 444.27 -285.63 351.502C-289.667 247.246 -205.576 159.617 -106.63 118.33C-7.68479 77.0439 113.325 81.6027 206.157 62.7505C276.862 48.3044 330.307 2.44917 364.076 -50.593C397.978 -103.737 412.523 -170.22 396.663 -239.203" stroke="url(#paint28_linear_682_7369)" stroke-opacity="0.2" stroke-miterlimit="10"/>
<path d="M68.1604 1652.51C-22.5084 1598.39 -91.5371 1508.61 -120.3 1406.75C-149.297 1304.87 -140.035 1190.78 -88.9588 1097.81C-63.0957 1050.66 -22.27 1013.06 0.388105 968.582C36.8549 897.428 16.0686 822.33 -13.8237 763.326C-43.8483 704.423 -95.2177 655.863 -140.602 587.711C-192.495 510.024 -271.094 431.626 -277.185 338.657C-284.094 234.506 -202.879 144.242 -104.658 101.195C-6.43813 58.1472 115.52 63.6623 208.234 48.4868C276.977 37.2411 329.072 -4.62001 363.132 -53.4562C397.192 -102.292 414.166 -164.531 401.007 -231.378" stroke="url(#paint29_linear_682_7369)" stroke-opacity="0.2" stroke-miterlimit="10"/>
<path d="M45.9973 1634.16C-42.9407 1579.56 -110.125 1490.25 -137.573 1389.28C-165.021 1288.31 -155.003 1175.74 -103.641 1084.24C-76.7495 1036.51 -34.3858 998.985 -9.69091 954.418C28.51 885.513 12.1863 811.826 -13.3263 753.03C-38.8389 694.233 -82.0453 641.488 -129.3 575.834C-184.115 499.555 -260.303 419.086 -268.839 325.683C-278.518 221.769 -200.381 128.607 -102.784 83.9304C-5.18735 39.2541 117.516 45.4608 210.448 34.1247C277.127 25.9471 328.005 -12.0221 362.325 -56.4181C396.644 -100.814 415.945 -158.941 405.489 -223.653" stroke="url(#paint30_linear_682_7369)" stroke-opacity="0.2" stroke-miterlimit="10"/>
<path d="M24.067 1615.84C-63.0382 1560.88 -128.349 1471.81 -154.614 1371.83C-180.879 1271.85 -169.841 1160.61 -118.089 1070.7C-90.2726 1022.25 -46.3708 984.812 -19.6391 940.15C20.3262 873.259 8.53688 801.349 -12.6981 742.629C-33.831 684.042 -72.7103 630.069 -117.766 563.984C-170.933 486.013 -249.146 406.474 -260.289 312.971C-272.606 209.193 -197.712 113.468 -100.708 66.9289C-3.70363 20.3895 119.713 27.522 212.629 19.995C277.378 14.7836 326.773 -19.0895 361.353 -59.0453C395.933 -99.0011 417.428 -152.914 409.806 -215.592" stroke="url(#paint31_linear_682_7369)" stroke-opacity="0.2" stroke-miterlimit="10"/>
<path d="M1.89998 1597.49C-83.6067 1542.14 -146.941 1453.45 -171.657 1354.38C-196.373 1255.31 -184.447 1145.5 -132.541 1057.16C-103.696 1008.13 -58.2562 970.769 -29.7219 925.983C11.6412 861.179 4.51855 790.943 -12.1024 732.462C-28.7234 673.981 -63.3777 618.649 -106.234 552.134C-157.723 472.236 -237.992 393.859 -251.61 300.156C-266.697 196.616 -194.78 98.1244 -98.2669 49.8542C-1.75381 1.58396 122.071 9.24578 215.41 5.82272C277.89 3.41476 326.374 -26.1695 361.112 -61.8173C395.85 -97.4652 419.775 -147.134 414.853 -207.677" stroke="url(#paint32_linear_682_7369)" stroke-opacity="0.2" stroke-miterlimit="10"/>
<path d="M-20.0274 1579.18C-103.701 1523.47 -165.293 1435.12 -188.695 1336.94C-212.096 1238.75 -199.18 1130.5 -146.885 1043.76C-116.982 993.91 -70.1363 956.73 -39.5652 911.85C3.32806 849.03 0.871982 780.469 -11.3693 722.197C-23.7126 663.792 -53.9076 607.13 -94.6969 540.287C-144.538 458.696 -226.731 381.381 -243.028 287.213C-260.885 183.91 -191.945 82.652 -96.157 32.6207C-0.369177 -17.4106 124.098 -9.18942 217.625 -8.53882C278.072 -8.11297 325.176 -33.4689 360.306 -64.7785C395.436 -96.0881 421.556 -141.544 419.336 -199.95" stroke="url(#paint33_linear_682_7369)" stroke-opacity="0.2" stroke-miterlimit="10"/>
<path d="M-42.1875 1560.84C-124.13 1504.63 -183.981 1416.63 -205.965 1319.46C-227.949 1222.3 -214.014 1115.36 -161.696 1030.3C-130.765 979.865 -82.5854 942.5 -49.9057 897.892C-5.48232 837.056 -3.16974 770.302 -11.0011 712.004C-18.8324 653.706 -44.8024 595.685 -83.5246 528.513C-131.687 444.995 -215.936 368.844 -234.709 274.475C-255.203 171.308 -189.607 67.3547 -94.3101 15.5926C0.986718 -36.1695 125.892 -27.6536 219.71 -22.7971C277.919 -19.802 323.979 -40.7671 359.237 -67.5345C394.627 -94.4039 422.941 -135.646 423.688 -192.121" stroke="url(#paint34_linear_682_7369)" stroke-opacity="0.2" stroke-miterlimit="10"/>
<path d="M-64.2499 1542.62C-144.492 1486.16 -202.468 1398.4 -223.005 1302.02C-243.542 1205.63 -228.647 1100.49 -176.145 1016.76C-144.186 965.745 -94.7025 928.429 -59.8537 883.625C-14.1345 824.743 -7.05336 759.797 -10.3728 701.605C-13.6921 643.414 -35.4371 584.033 -72.0922 516.532C-118.577 431.087 -204.749 355.998 -226.231 261.398C-249.496 158.468 -186.877 51.7485 -92.2031 -1.64238C2.36855 -55.1656 127.845 -46.4568 222.024 -37.0277C278.23 -31.4331 322.88 -47.9355 358.53 -70.3647C394.18 -92.7939 424.822 -129.924 428.27 -184.263" stroke="url(#paint35_linear_682_7369)" stroke-opacity="0.2" stroke-miterlimit="10"/>
</g>
</g>
<defs>
<filter id="filter0_n_682_7369" x="0" y="0" width="375" height="812" filterUnits="userSpaceOnUse" color-interpolation-filters="sRGB">
<feFlood flood-opacity="0" result="BackgroundImageFix"/>
<feBlend mode="normal" in="SourceGraphic" in2="BackgroundImageFix" result="shape"/>
<feTurbulence type="fractalNoise" baseFrequency="1 1" stitchTiles="stitch" numOctaves="3" result="noise" seed="3614" />
<feColorMatrix in="noise" type="luminanceToAlpha" result="alphaNoise" />
<feComponentTransfer in="alphaNoise" result="coloredNoise1">
<feFuncA type="discrete" tableValues="1 1 1 1 1 1 1 1 1 1 1 1 1 1 1 1 1 1 1 1 1 1 1 1 1 1 1 1 1 1 1 1 1 1 1 1 1 1 1 1 1 1 1 1 1 1 1 1 1 1 1 0 0 0 0 0 0 0 0 0 0 0 0 0 0 0 0 0 0 0 0 0 0 0 0 0 0 0 0 0 0 0 0 0 0 0 0 0 0 0 0 0 0 0 0 0 0 0 0 0 "/>
</feComponentTransfer>
<feComposite operator="in" in2="shape" in="coloredNoise1" result="noise1Clipped" />
<feFlood flood-color="rgba(0, 0, 0, 0.25)" result="color1Flood" />
<feComposite operator="in" in2="noise1Clipped" in="color1Flood" result="color1" />
<feMerge result="effect1_noise_682_7369">
<feMergeNode in="shape" />
<feMergeNode in="color1" />
</feMerge>
</filter>
<linearGradient id="paint0_linear_682_7369" x1="187.5" y1="0" x2="187.5" y2="812" gradientUnits="userSpaceOnUse">
<stop stop-color="#001C4B"/>
<stop offset="0.587658" stop-color="#003284"/>
<stop offset="1" stop-color="#2063D2"/>
</linearGradient>
<linearGradient id="paint1_linear_682_7369" x1="-40.8334" y1="109.988" x2="1002.5" y2="1462.93" gradientUnits="userSpaceOnUse">
<stop stop-color="white" stop-opacity="0.5"/>
<stop offset="0.461538" stop-color="#2063D2" stop-opacity="0"/>
</linearGradient>
<linearGradient id="paint2_linear_682_7369" x1="-49.4219" y1="110.704" x2="991.359" y2="1460.33" gradientUnits="userSpaceOnUse">
<stop stop-color="white" stop-opacity="0.5"/>
<stop offset="0.461538" stop-color="#2063D2" stop-opacity="0"/>
</linearGradient>
<linearGradient id="paint3_linear_682_7369" x1="-57.4726" y1="111.852" x2="980.35" y2="1457.65" gradientUnits="userSpaceOnUse">
<stop stop-color="white" stop-opacity="0.5"/>
<stop offset="0.461538" stop-color="#2063D2" stop-opacity="0"/>
</linearGradient>
<linearGradient id="paint4_linear_682_7369" x1="-66.0187" y1="112.956" x2="969.05" y2="1455.18" gradientUnits="userSpaceOnUse">
<stop stop-color="white" stop-opacity="0.5"/>
<stop offset="0.461538" stop-color="#2063D2" stop-opacity="0"/>
</linearGradient>
<linearGradient id="paint5_linear_682_7369" x1="-74.2164" y1="114.215" x2="957.894" y2="1452.6" gradientUnits="userSpaceOnUse">
<stop stop-color="white" stop-opacity="0.5"/>
<stop offset="0.461538" stop-color="#2063D2" stop-opacity="0"/>
</linearGradient>
<linearGradient id="paint6_linear_682_7369" x1="-82.8934" y1="115.003" x2="946.667" y2="1450.08" gradientUnits="userSpaceOnUse">
<stop stop-color="white" stop-opacity="0.5"/>
<stop offset="0.461538" stop-color="#2063D2" stop-opacity="0"/>
</linearGradient>
<linearGradient id="paint7_linear_682_7369" x1="-91.0419" y1="116.432" x2="935.356" y2="1447.41" gradientUnits="userSpaceOnUse">
<stop stop-color="white" stop-opacity="0.5"/>
<stop offset="0.461538" stop-color="#2063D2" stop-opacity="0"/>
</linearGradient>
<linearGradient id="paint8_linear_682_7369" x1="-99.5542" y1="117.298" x2="924.192" y2="1444.84" gradientUnits="userSpaceOnUse">
<stop stop-color="white" stop-opacity="0.5"/>
<stop offset="0.461538" stop-color="#2063D2" stop-opacity="0"/>
</linearGradient>
<linearGradient id="paint9_linear_682_7369" x1="-108.086" y1="118.185" x2="913.008" y2="1442.29" gradientUnits="userSpaceOnUse">
<stop stop-color="white" stop-opacity="0.5"/>
<stop offset="0.461538" stop-color="#2063D2" stop-opacity="0"/>
</linearGradient>
<linearGradient id="paint10_linear_682_7369" x1="-116.361" y1="119.295" x2="901.876" y2="1439.69" gradientUnits="userSpaceOnUse">
<stop stop-color="white" stop-opacity="0.5"/>
<stop offset="0.461538" stop-color="#2063D2" stop-opacity="0"/>
</linearGradient>
<linearGradient id="paint11_linear_682_7369" x1="-124.621" y1="120.388" x2="890.76" y2="1437.08" gradientUnits="userSpaceOnUse">
<stop stop-color="white" stop-opacity="0.5"/>
<stop offset="0.461538" stop-color="#2063D2" stop-opacity="0"/>
</linearGradient>
<linearGradient id="paint12_linear_682_7369" x1="-132.935" y1="121.744" x2="879.488" y2="1434.6" gradientUnits="userSpaceOnUse">
<stop stop-color="white" stop-opacity="0.5"/>
<stop offset="0.461538" stop-color="#2063D2" stop-opacity="0"/>
</linearGradient>
<linearGradient id="paint13_linear_682_7369" x1="-141.558" y1="122.479" x2="868.213" y2="1431.9" gradientUnits="userSpaceOnUse">
<stop stop-color="white" stop-opacity="0.5"/>
<stop offset="0.461538" stop-color="#2063D2" stop-opacity="0"/>
</linearGradient>
<linearGradient id="paint14_linear_682_7369" x1="-150.056" y1="123.762" x2="856.859" y2="1429.48" gradientUnits="userSpaceOnUse">
<stop stop-color="white" stop-opacity="0.5"/>
<stop offset="0.461538" stop-color="#2063D2" stop-opacity="0"/>
</linearGradient>
<linearGradient id="paint15_linear_682_7369" x1="-158.567" y1="124.839" x2="845.593" y2="1426.98" gradientUnits="userSpaceOnUse">
<stop stop-color="white" stop-opacity="0.5"/>
<stop offset="0.461538" stop-color="#2063D2" stop-opacity="0"/>
</linearGradient>
<linearGradient id="paint16_linear_682_7369" x1="-166.924" y1="126.009" x2="834.381" y2="1424.45" gradientUnits="userSpaceOnUse">
<stop stop-color="white" stop-opacity="0.5"/>
<stop offset="0.461538" stop-color="#2063D2" stop-opacity="0"/>
</linearGradient>
<linearGradient id="paint17_linear_682_7369" x1="-175.431" y1="127.301" x2="823.017" y2="1422.04" gradientUnits="userSpaceOnUse">
<stop stop-color="white" stop-opacity="0.5"/>
<stop offset="0.461538" stop-color="#2063D2" stop-opacity="0"/>
</linearGradient>
<linearGradient id="paint18_linear_682_7369" x1="-183.916" y1="128.782" x2="811.574" y2="1419.68" gradientUnits="userSpaceOnUse">
<stop stop-color="white" stop-opacity="0.5"/>
<stop offset="0.461538" stop-color="#2063D2" stop-opacity="0"/>
</linearGradient>
<linearGradient id="paint19_linear_682_7369" x1="-192.752" y1="129.475" x2="800.187" y2="1417.07" gradientUnits="userSpaceOnUse">
<stop stop-color="white" stop-opacity="0.5"/>
<stop offset="0.461538" stop-color="#2063D2" stop-opacity="0"/>
</linearGradient>
<linearGradient id="paint20_linear_682_7369" x1="-201.121" y1="131.077" x2="788.759" y2="1414.7" gradientUnits="userSpaceOnUse">
<stop stop-color="white" stop-opacity="0.5"/>
<stop offset="0.461538" stop-color="#2063D2" stop-opacity="0"/>
</linearGradient>
<linearGradient id="paint21_linear_682_7369" x1="-197.448" y1="139.85" x2="769.786" y2="1394.11" gradientUnits="userSpaceOnUse">
<stop stop-color="white" stop-opacity="0.5"/>
<stop offset="0.461538" stop-color="#2063D2" stop-opacity="0"/>
</linearGradient>
<linearGradient id="paint22_linear_682_7369" x1="-194.061" y1="148.414" x2="750.63" y2="1373.44" gradientUnits="userSpaceOnUse">
<stop stop-color="white" stop-opacity="0.5"/>
<stop offset="0.461538" stop-color="#2063D2" stop-opacity="0"/>
</linearGradient>
<linearGradient id="paint23_linear_682_7369" x1="-190.555" y1="157.102" x2="731.592" y2="1352.89" gradientUnits="userSpaceOnUse">
<stop stop-color="white" stop-opacity="0.5"/>
<stop offset="0.461538" stop-color="#2063D2" stop-opacity="0"/>
</linearGradient>
<linearGradient id="paint24_linear_682_7369" x1="-187.279" y1="165.329" x2="712.528" y2="1332.15" gradientUnits="userSpaceOnUse">
<stop stop-color="white" stop-opacity="0.5"/>
<stop offset="0.461538" stop-color="#2063D2" stop-opacity="0"/>
</linearGradient>
<linearGradient id="paint25_linear_682_7369" x1="-183.592" y1="174.513" x2="693.366" y2="1311.71" gradientUnits="userSpaceOnUse">
<stop stop-color="white" stop-opacity="0.5"/>
<stop offset="0.461538" stop-color="#2063D2" stop-opacity="0"/>
</linearGradient>
<linearGradient id="paint26_linear_682_7369" x1="-180.29" y1="182.938" x2="674.226" y2="1291.03" gradientUnits="userSpaceOnUse">
<stop stop-color="white" stop-opacity="0.5"/>
<stop offset="0.461538" stop-color="#2063D2" stop-opacity="0"/>
</linearGradient>
<linearGradient id="paint27_linear_682_7369" x1="-187.193" y1="178.327" x2="655.09" y2="1270.56" gradientUnits="userSpaceOnUse">
<stop stop-color="white" stop-opacity="0.5"/>
<stop offset="0.461538" stop-color="#2063D2" stop-opacity="0"/>
</linearGradient>
<linearGradient id="paint28_linear_682_7369" x1="-195.669" y1="171.758" x2="635.816" y2="1249.98" gradientUnits="userSpaceOnUse">
<stop stop-color="white" stop-opacity="0.5"/>
<stop offset="0.461538" stop-color="#2063D2" stop-opacity="0"/>
</linearGradient>
<linearGradient id="paint29_linear_682_7369" x1="-204.28" y1="165.129" x2="616.584" y2="1229.58" gradientUnits="userSpaceOnUse">
<stop stop-color="white" stop-opacity="0.5"/>
<stop offset="0.461538" stop-color="#2063D2" stop-opacity="0"/>
</linearGradient>
<linearGradient id="paint30_linear_682_7369" x1="-213.099" y1="158.151" x2="597.292" y2="1209.02" gradientUnits="userSpaceOnUse">
<stop stop-color="white" stop-opacity="0.5"/>
<stop offset="0.461538" stop-color="#2063D2" stop-opacity="0"/>
</linearGradient>
<linearGradient id="paint31_linear_682_7369" x1="-221.852" y1="151.39" x2="578.037" y2="1188.64" gradientUnits="userSpaceOnUse">
<stop stop-color="white" stop-opacity="0.5"/>
<stop offset="0.461538" stop-color="#2063D2" stop-opacity="0"/>
</linearGradient>
<linearGradient id="paint32_linear_682_7369" x1="-230.53" y1="144.454" x2="558.81" y2="1168.03" gradientUnits="userSpaceOnUse">
<stop stop-color="white" stop-opacity="0.5"/>
<stop offset="0.461538" stop-color="#2063D2" stop-opacity="0"/>
</linearGradient>
<linearGradient id="paint33_linear_682_7369" x1="-239.526" y1="137.244" x2="539.621" y2="1147.6" gradientUnits="userSpaceOnUse">
<stop stop-color="white" stop-opacity="0.5"/>
<stop offset="0.461538" stop-color="#2063D2" stop-opacity="0"/>
</linearGradient>
<linearGradient id="paint34_linear_682_7369" x1="-248.805" y1="129.989" x2="520.177" y2="1127.16" gradientUnits="userSpaceOnUse">
<stop stop-color="white" stop-opacity="0.5"/>
<stop offset="0.461538" stop-color="#2063D2" stop-opacity="0"/>
</linearGradient>
<linearGradient id="paint35_linear_682_7369" x1="-258.157" y1="122.605" x2="500.847" y2="1106.84" gradientUnits="userSpaceOnUse">
<stop stop-color="white" stop-opacity="0.5"/>
<stop offset="0.461538" stop-color="#2063D2" stop-opacity="0"/>
</linearGradient>
</defs>
</svg>
