<svg preserveAspectRatio="none" width="100%" height="100%" overflow="visible" style="display: block;" viewBox="0 0 180 25" fill="none" xmlns="http://www.w3.org/2000/svg">
<g id="Group 38277">
<path id="Vector" d="M17.9629 0.710156H2.28896C1.02447 0.710156 0 1.73598 0 3.00045C0 4.26492 1.02447 5.29073 2.28896 5.29073H7.53742V21.3043C7.53742 22.7343 8.69698 23.8927 10.1259 23.8927C11.5562 23.8927 12.7147 22.7343 12.7147 21.3043V5.29073H17.9629C19.2276 5.29073 20.2521 4.26492 20.2521 3.00045C20.2521 1.73598 19.2276 0.710156 17.9629 0.710156Z" fill="var(--fill-0, white)"/>
<path id="Vector_2" d="M30.1504 6.82626H30.124C28.0555 6.82626 26.5013 7.52807 25.4586 8.93171V8.59848C25.4586 7.20001 24.3246 6.06708 22.9272 6.06708C21.529 6.06708 20.395 7.20001 20.395 8.59848V21.3619C20.395 22.7602 21.529 23.8931 22.9272 23.8931C24.3246 23.8931 25.4586 22.7602 25.4586 21.3619V15.3598C25.4586 14.0899 25.843 13.094 26.6106 12.3729C27.3782 11.6531 28.4358 11.2921 29.7821 11.2921C29.8661 11.2921 29.9487 11.2943 30.0305 11.2962C31.3045 11.3378 32.3516 10.312 32.3366 9.03691L32.3355 8.98798C32.3219 7.80098 31.3388 6.82735 30.1504 6.82626Z" fill="var(--fill-0, white)"/>
<path id="Vector_3" d="M42.2407 19.9678C41.0461 19.9678 40.0885 19.5547 39.3677 18.7308C38.6465 17.9059 38.2867 16.8483 38.2867 15.5593C38.2867 14.2693 38.6465 13.2128 39.3677 12.3878C40.0885 11.5629 41.0461 11.1497 42.2407 11.1497C43.4734 11.1497 44.4598 11.5629 45.1989 12.3878C45.9388 13.2128 46.3085 14.2693 46.3085 15.5593C46.3085 16.8483 45.9388 17.9059 45.1989 18.7308C44.4598 19.5547 43.4734 19.9678 42.2407 19.9678ZM46.2679 22.2037C46.4783 23.3899 47.5082 24.2913 48.7548 24.2913C50.153 24.2913 51.2859 23.1584 51.2859 21.7599V8.59848C51.2859 7.20001 50.153 6.06708 48.7548 6.06708C47.3563 6.06708 46.2223 7.20001 46.2223 8.59848V8.93171C45.1796 7.52807 43.587 6.82626 41.4443 6.82626C39.8697 6.82626 38.4672 7.20109 37.2345 7.94966C36.0018 8.70041 35.0439 9.73764 34.3614 11.0649C33.6786 12.3922 33.3377 13.8901 33.3377 15.5593C33.3377 17.2285 33.6786 18.7265 34.3614 20.0537C35.0439 21.3799 36.0018 22.4182 37.2345 23.1679C38.4672 23.9164 39.8697 24.2913 41.4443 24.2913C43.5604 24.2913 45.2223 23.5745 46.2679 22.2037Z" fill="var(--fill-0, white)"/>
<path id="Vector_4" d="M62.5061 23.8923C64.0916 23.8923 65.5132 22.9154 66.0813 21.4365L70.3072 10.4303C70.9005 8.88422 69.7592 7.22372 68.1038 7.22372C67.0951 7.22372 66.1981 7.86491 65.8709 8.81843L62.692 18.0897L59.5512 8.93315C59.2008 7.91059 58.2389 7.22372 57.1581 7.22372C55.3826 7.22372 54.1587 9.00435 54.7955 10.6616L58.9323 21.4365C59.5004 22.9154 60.9219 23.8923 62.5061 23.8923Z" fill="var(--fill-0, white)"/>
<path id="Vector_5" d="M78.3362 11.6193C78.9624 11.098 79.7683 10.8379 80.7537 10.8379C81.7401 10.8379 82.5555 11.098 83.2011 11.6193C83.8456 12.1407 84.2715 12.905 84.4805 13.9096H77.0853C77.2935 12.905 77.7107 12.1407 78.3362 11.6193ZM81.3261 20.1983C81.1413 20.2154 80.9513 20.2238 80.7537 20.2238C79.8056 20.2238 79.0092 19.9593 78.3647 19.4274C77.7202 18.8965 77.303 18.148 77.113 17.1798H89.4295L89.4305 15.5595C89.4305 13.8903 89.0601 12.3924 88.321 11.0651C87.5808 9.73784 86.552 8.69951 85.2345 7.94986C83.9157 7.20129 82.4229 6.82646 80.7537 6.82646C79.0858 6.82646 77.5917 7.20129 76.2742 7.94986C74.9564 8.69951 73.9276 9.73784 73.1885 11.0651C72.4487 12.3924 72.079 13.8903 72.079 15.5595C72.079 17.2287 72.4487 18.7267 73.1885 20.0539C73.9276 21.3801 74.9564 22.4184 76.2742 23.1681C77.5917 23.9177 79.0858 24.2915 80.7537 24.2915C81.0818 24.2915 81.4036 24.2776 81.72 24.2501C83.1321 24.1259 83.9847 22.6244 83.3764 21.345C83.0057 20.5647 82.1861 20.1156 81.3261 20.1983Z" fill="var(--fill-0, white)"/>
<path id="Vector_6" d="M92.4168 2.5311V21.3617C92.4168 22.7599 93.5506 23.8928 94.948 23.8928C96.3465 23.8928 97.4794 22.7599 97.4794 21.3617V2.5311C97.4794 1.1329 96.3465 0 94.948 0C93.5506 0 92.4168 1.1329 92.4168 2.5311Z" fill="var(--fill-0, white)"/>
<path id="Vector_7" d="M123.194 23.5948C124.617 23.0164 125.74 22.1871 126.565 21.1061C127.39 20.0254 127.802 18.7639 127.802 17.323C127.802 15.4842 127.247 13.952 126.139 12.7289C125.029 11.5057 123.194 10.6285 120.634 10.0977C118.984 9.75685 117.728 9.44808 116.865 9.17409C116.003 8.89902 115.363 8.58154 114.945 8.22058C114.528 7.8607 114.319 7.39562 114.319 6.82645C114.319 6.1056 114.651 5.53207 115.315 5.10532C115.978 4.67967 116.898 4.46603 118.074 4.46603C119.307 4.46603 120.292 4.74953 121.033 5.31871C121.429 5.62341 121.741 5.99415 121.968 6.43041C122.386 7.22981 123.238 7.70874 124.14 7.70874H124.397C126.391 7.70874 127.551 5.45461 126.39 3.83217L126.366 3.79819C125.541 2.6506 124.435 1.75444 123.052 1.10889C121.669 0.464422 120.123 0.141504 118.415 0.141504C116.652 0.141504 115.059 0.412225 113.637 0.952859C112.214 1.49322 111.091 2.26626 110.266 3.27169C109.441 4.27603 109.028 5.46114 109.028 6.82645C109.028 8.9319 109.674 10.5628 110.964 11.7191C112.253 12.8764 114.196 13.7014 116.795 14.1942C118.235 14.4595 119.359 14.7345 120.165 15.0191C120.971 15.3037 121.559 15.6443 121.929 16.0425C122.298 16.4407 122.483 16.943 122.483 17.5502C122.483 18.3083 122.137 18.9253 121.445 19.3999C120.753 19.8734 119.876 20.1102 118.815 20.1102C117.354 20.1102 116.163 19.7737 115.244 19.1004C114.744 18.7353 114.357 18.3032 114.084 17.8052C113.619 16.958 112.75 16.4133 111.782 16.4133C109.696 16.4133 108.442 18.7479 109.611 20.4755C109.658 20.5445 109.706 20.6125 109.753 20.6794C110.636 21.893 111.83 22.8261 113.338 23.4815C114.846 24.1354 116.548 24.4624 118.444 24.4624C120.188 24.4624 121.772 24.1735 123.194 23.5948Z" fill="var(--fill-0, white)"/>
<path id="Vector_8" d="M143.845 7.72217C142.859 7.12554 141.722 6.82601 140.433 6.82601C138.365 6.82601 136.81 7.52782 135.767 8.93146V2.53002C135.767 1.13291 134.634 0 133.236 0H133.235C131.838 0 130.704 1.13291 130.704 2.53002V21.3617C130.704 22.7599 131.838 23.8928 133.235 23.8928H133.236C134.634 23.8928 135.767 22.7599 135.767 21.3617V15.3307C135.767 14.0418 136.052 13.0277 136.621 12.2878C137.19 11.5477 137.966 11.1783 138.953 11.1783C139.902 11.1783 140.626 11.5148 141.129 12.188C141.631 12.8621 141.883 13.8336 141.883 15.1035V21.3617C141.883 22.7599 143.017 23.8928 144.414 23.8928C145.813 23.8928 146.946 22.7599 146.946 21.3617V14.25C146.946 12.7336 146.676 11.415 146.135 10.2971C145.594 9.17773 144.832 8.31989 143.845 7.72217Z" fill="var(--fill-0, white)"/>
<path id="Vector_9" d="M161.212 18.731C160.481 19.5549 159.529 19.968 158.354 19.968C157.177 19.968 156.224 19.5549 155.494 18.731C154.764 17.9061 154.399 16.8495 154.399 15.5595C154.399 14.2695 154.764 13.213 155.494 12.388C156.224 11.5631 157.177 11.1499 158.354 11.1499C159.529 11.1499 160.481 11.5631 161.212 12.388C161.942 13.213 162.308 14.2695 162.308 15.5595C162.308 16.8495 161.942 17.9061 161.212 18.731ZM162.904 7.94986C161.557 7.20129 160.041 6.82646 158.354 6.82646C156.664 6.82646 155.148 7.20129 153.802 7.94986C152.455 8.69951 151.402 9.73784 150.645 11.0651C149.886 12.3924 149.507 13.8903 149.507 15.5595C149.507 17.2287 149.886 18.7267 150.645 20.0539C151.402 21.3801 152.455 22.4184 153.802 23.1681C155.148 23.9166 156.664 24.2915 158.354 24.2915C160.041 24.2915 161.557 23.9166 162.904 23.1681C164.251 22.4184 165.303 21.3801 166.061 20.0539C166.82 18.7267 167.2 17.2287 167.2 15.5595C167.2 13.8903 166.82 12.3924 166.061 11.0651C165.303 9.73784 164.251 8.69951 162.904 7.94986Z" fill="var(--fill-0, white)"/>
<path id="Vector_10" d="M177.824 7.22438H176.7V4.8066C176.7 3.40949 175.567 2.27549 174.169 2.27549C172.771 2.27549 171.638 3.40949 171.638 4.8066V7.22438H170.514C169.311 7.22438 168.338 8.19909 168.338 9.40105C168.338 10.603 169.311 11.5766 170.514 11.5766H171.638V21.7174C171.638 22.9193 172.611 23.893 173.813 23.893H174.525C175.727 23.893 176.7 22.9193 176.7 21.7174V11.5766H177.824C179.025 11.5766 180 10.603 180 9.40105C180 8.19909 179.025 7.22438 177.824 7.22438Z" fill="var(--fill-0, white)"/>
<path id="Vector_11" d="M88.5202 20.9944C88.5202 19.8465 87.59 18.9167 86.4432 18.9167C85.2954 18.9167 84.3652 19.8465 84.3652 20.9944C84.3652 22.1412 85.2954 23.0713 86.4432 23.0713C87.59 23.0713 88.5202 22.1412 88.5202 20.9944Z" fill="var(--fill-0, white)"/>
</g>
</svg>
