<svg width="330" height="475" viewBox="0 0 330 475" fill="none" xmlns="http://www.w3.org/2000/svg">
<g filter="url(#filter0_d_444_1606)">
<g clip-path="url(#clip0_444_1606)">
<g filter="url(#filter1_n_444_1606)">
<rect x="34.667" y="34.667" width="260" height="405.6" fill="#010D25"/>
<rect x="34.667" y="34.667" width="260" height="405.6" fill="url(#paint0_linear_444_1606)"/>
</g>
<mask id="mask0_444_1606" style="mask-type:alpha" maskUnits="userSpaceOnUse" x="34" y="34" width="261" height="407">
<rect x="34.667" y="34.667" width="260" height="405.6" fill="#010D25"/>
<rect x="34.667" y="34.667" width="260" height="405.6" fill="url(#paint1_linear_444_1606)"/>
</mask>
<g mask="url(#mask0_444_1606)">
<g opacity="0.8">
<path d="M400.456 1070.95C351.244 1056.42 303.915 1035.99 266.864 1003.83C244.677 984.615 226.396 960.671 215.368 933.752C208.244 916.208 204.15 897.449 204.059 878.09C203.668 818.739 237.637 757.611 236.341 700.938C235.862 679.154 232.253 659.898 224.083 640.683C217.093 624.274 206.79 608.554 195.666 593.218C180.134 571.864 162.425 549.46 150.277 526.867C143.479 514.394 138.466 501.663 135.886 488.547C130.629 462.514 134.355 439.108 141.231 414.641C151.181 379.397 166.998 340.51 174.779 297.652C175.641 293.153 176.287 288.696 176.795 284.222C182.504 235.159 166.246 202.605 163.677 170.423C161.132 138.594 173.162 102.989 195.015 61.3199C201.431 49.0875 208.608 36.3944 216.467 23.3007C230.745 -0.418684 246.88 -24.9459 263.045 -48.6309C287.264 -84.1973 311.39 -117.96 332.594 -142.67" stroke="url(#paint2_linear_444_1606)" stroke-opacity="0.2" stroke-width="0.932735" stroke-miterlimit="10"/>
<path d="M390.657 1071.93C341.894 1057.18 295.249 1036.34 258.784 1003.97C236.891 984.659 218.946 960.828 208.097 934.142C200.955 916.736 196.982 898.132 196.675 878.814C195.817 819.823 228.199 759.048 228.168 702.887C228.12 681.019 225.529 661.477 218.025 641.998C211.561 625.307 201.665 609.151 190.654 593.48C175.314 571.732 157.484 549.173 144.629 526.628C137.537 514.257 132.093 501.61 128.788 488.68C122.238 462.898 124.04 439.733 129.088 415.31C136.306 380.061 149.557 340.424 157.469 297.093C158.331 292.595 159.054 288.078 159.64 283.544C166.074 234.295 153.49 201.517 154.14 170.45C154.731 139.304 169.736 105.621 193.389 64.6731C200.339 52.6493 208.067 40.0275 216.201 26.9693C231.109 3.26138 247.494 -21.5827 263.456 -45.853C287.367 -82.2972 310.119 -117.355 329.043 -143.407" stroke="url(#paint3_linear_444_1606)" stroke-opacity="0.2" stroke-width="0.932735" stroke-miterlimit="10"/>
<path d="M380.86 1072.9C332.683 1057.95 286.6 1036.56 250.705 1004.12C229.165 984.784 211.495 960.989 200.767 934.458C193.745 917.206 189.616 898.722 189.291 879.542C187.967 820.909 218.684 760.548 220.073 704.78C220.535 682.768 218.944 663.075 212.122 643.196C206.264 626.164 196.756 609.709 185.859 593.704C170.709 571.561 152.76 548.847 139.258 526.427C131.812 514.081 125.859 501.577 122.027 488.929C114.183 463.399 114.062 440.474 117.282 416.094C121.905 380.86 132.512 340.531 140.495 296.651C141.297 292.075 142.098 287.498 142.744 283.042C149.765 233.589 141.052 200.683 144.802 170.575C148.666 140.131 166.587 108.291 192.098 68.1424C199.582 56.3272 207.724 43.7588 216.272 30.7541C231.809 7.05749 248.446 -18.1034 264.262 -42.8813C287.867 -80.2035 309.244 -116.556 325.889 -143.951" stroke="url(#paint4_linear_444_1606)" stroke-opacity="0.2" stroke-width="0.932735" stroke-miterlimit="10"/>
<path d="M370.983 1073.93C323.256 1058.76 277.855 1036.97 242.606 1004.4C221.498 984.984 204.164 961.302 193.418 934.908C186.457 917.735 182.31 899.388 181.811 880.465C180.081 822.268 209.21 762.261 211.804 706.928C212.835 684.85 212.185 664.929 206.028 644.786C200.774 627.414 191.518 610.642 180.794 594.379C165.835 571.842 147.706 548.895 133.616 526.679C125.878 514.434 119.415 502.074 114.936 489.552C105.798 464.274 103.813 441.667 105.146 417.252C107.036 382.014 115.078 340.935 123.054 296.565C123.933 291.929 124.735 287.353 125.398 282.759C133.084 233.043 128.104 199.99 135.152 170.936C142.211 141.255 163.047 111.259 190.436 71.7711C198.531 60.1047 207.146 47.6674 215.971 34.6982C232.214 10.9533 249.102 -14.5244 264.636 -39.8278C287.994 -77.9503 307.936 -115.676 322.302 -144.413" stroke="url(#paint5_linear_444_1606)" stroke-opacity="0.2" stroke-width="0.932735" stroke-miterlimit="10"/>
<path d="M361.189 1074.9C313.988 1059.45 269.27 1037.26 234.53 1004.55C213.776 985.105 196.718 961.459 186.152 935.298C179.25 918.202 175.145 900.07 174.491 881.266C172.294 823.428 199.913 763.715 203.695 708.954C205.235 686.732 205.586 666.661 200.111 646.118C195.384 628.464 186.534 611.256 175.984 594.736C161.277 571.882 142.889 548.762 128.23 526.612C120.138 514.391 113.305 502.193 108.101 489.857C97.6684 464.831 93.7606 442.464 93.2654 418.093C92.5008 382.791 97.8804 341.158 106.005 296.179C106.885 291.543 107.626 286.889 108.428 282.313C116.7 232.393 115.669 199.152 125.739 171.117C136.21 142.156 159.823 113.985 188.993 75.3561C197.622 63.8984 206.711 51.592 215.889 38.5987C232.762 14.8652 249.901 -10.9293 265.291 -36.7404C288.341 -75.7407 306.909 -114.761 318.996 -144.841" stroke="url(#paint6_linear_444_1606)" stroke-opacity="0.2" stroke-width="0.932735" stroke-miterlimit="10"/>
<path d="M351.316 1075.94C304.624 1060.34 260.528 1037.67 226.376 1004.76C205.974 985.29 189.252 961.756 178.746 935.673C171.905 918.654 167.782 900.66 167.033 882.053C164.35 824.711 190.4 765.214 195.525 710.906C197.574 688.54 198.926 668.32 194.055 647.435C189.933 629.44 181.473 611.933 170.898 595.061C156.381 571.812 137.814 548.459 122.508 526.436C114.062 514.239 106.719 502.185 100.929 490.051C89.1422 465.2 83.3711 443.151 81.0482 418.823C77.5508 383.517 80.3643 341.134 88.6203 295.683C89.4396 290.969 90.3189 286.333 91.1983 281.697C100.118 231.651 103.036 198.222 116.128 171.206C129.872 142.947 156.323 116.679 187.37 78.7119C196.61 67.403 206.113 55.1501 215.626 42.27C233.129 18.5478 250.519 -7.56351 265.704 -33.9598C288.447 -73.8381 305.641 -114.154 315.448 -145.576" stroke="url(#paint7_linear_444_1606)" stroke-opacity="0.2" stroke-width="0.932735" stroke-miterlimit="10"/>
<path d="M341.456 1076.83C295.291 1060.95 251.878 1037.88 218.294 1004.9C198.324 985.352 181.8 961.914 171.474 936.063C164.753 919.2 160.613 901.343 159.63 882.916C156.48 825.933 181.003 766.867 187.333 712.994C189.969 690.424 192.166 670.173 188.116 648.905C184.598 630.57 176.467 612.686 166.065 595.557C151.74 571.914 133.052 548.405 117.099 526.508C108.36 514.413 100.586 502.442 94.208 490.513C81.0498 465.973 73.4332 444.104 69.2826 419.82C63.1903 384.528 63.3599 341.454 71.6268 295.375C72.5239 290.602 73.4033 285.966 74.2827 281.33C83.8671 231.02 90.6562 197.463 106.831 171.543C123.985 144.005 153.214 119.562 186.06 82.3162C195.834 71.2159 205.81 59.0939 215.678 46.1896C233.887 22.4191 251.529 -4.0091 266.413 -30.7935C288.91 -71.472 304.669 -113.161 312.119 -145.865" stroke="url(#paint8_linear_444_1606)" stroke-opacity="0.2" stroke-width="0.932735" stroke-miterlimit="10"/>
<path d="M331.659 1077.8C285.944 1061.7 243.29 1038.17 210.216 1005.05C190.54 985.396 174.429 962.011 164.145 936.375C157.484 919.59 153.326 901.87 152.187 883.562C148.631 827.015 171.644 768.243 179.102 714.865C182.307 692.23 185.444 671.75 181.999 650.141C179.008 631.525 171.206 613.265 161.055 595.818C146.921 571.781 127.975 548.1 111.513 526.346C102.42 514.275 94.1371 502.448 87.1723 490.722C72.72 466.434 63.1801 444.806 57.1239 420.625C48.2989 385.329 45.9623 341.582 54.3002 294.953C55.1974 290.18 56.0945 285.406 57.1118 280.788C67.2832 230.275 78.0813 196.607 97.2955 171.569C117.783 144.81 149.79 122.193 184.495 85.7462C194.803 74.8545 205.331 62.8038 215.473 49.9351C234.312 26.176 252.205 -0.56902 266.885 -27.9387C289.074 -69.4951 303.459 -112.479 308.629 -146.525" stroke="url(#paint9_linear_444_1606)" stroke-opacity="0.2" stroke-width="0.932735" stroke-miterlimit="10"/>
<path d="M321.785 1078.84C276.657 1062.53 234.548 1038.58 202.06 1005.26C182.737 985.58 166.962 962.309 156.817 936.691C150.215 919.983 146.04 902.4 144.806 884.29C140.783 828.102 162.286 769.623 171.009 716.758C174.723 693.978 178.801 673.272 176.02 651.399C173.634 632.442 166.221 613.882 156.106 596.161C142.163 571.729 123.097 547.893 105.988 526.265C96.5239 514.356 87.8091 502.613 80.1973 491.013C64.4509 466.976 53.0478 445.667 45.1038 421.451C33.5461 386.151 28.6434 341.654 37.1124 294.553C37.9495 289.702 38.9845 284.946 39.9417 280.25C50.8379 229.552 65.5072 195.755 87.7434 171.736C111.702 145.774 146.427 124.906 182.931 89.1798C193.85 78.437 204.774 66.5772 215.348 53.6245C234.894 29.817 252.96 2.81481 267.495 -25.0625C289.378 -67.4969 302.388 -111.776 305.219 -147.242" stroke="url(#paint10_linear_444_1606)" stroke-opacity="0.2" stroke-width="0.932735" stroke-miterlimit="10"/>
<path d="M311.989 1079.81C267.309 1063.28 225.961 1038.87 193.983 1005.41C175.013 985.703 159.514 962.467 149.548 937.082C143.067 920.529 138.873 903.084 137.406 885.153C132.976 829.401 152.969 771.216 162.82 718.846C167.104 696 172.122 675.066 170.084 652.87C168.303 633.572 161.218 614.636 151.277 596.658C137.525 571.831 118.278 547.762 100.6 526.2C90.7827 514.315 81.6188 502.794 73.36 491.319C56.2417 467.595 42.993 446.465 33.2213 422.293C19.0085 386.93 11.522 341.819 20.002 294.091C20.8391 289.24 21.814 284.406 22.909 279.728C34.3923 228.826 53.0529 195.056 78.2689 171.841C105.621 146.737 143.123 127.694 181.504 92.6295C192.958 82.0953 204.433 70.3066 215.283 57.3895C235.458 33.5934 253.913 6.29232 268.166 -22.1105C289.801 -65.3451 301.377 -110.997 301.928 -147.805" stroke="url(#paint11_linear_444_1606)" stroke-opacity="0.2" stroke-width="0.932735" stroke-miterlimit="10"/>
<path d="M302.193 1080.78C258.04 1063.97 217.296 1039.22 185.965 1005.63C167.426 985.842 152.185 962.779 142.28 937.471C135.781 921.056 131.569 903.748 130.084 885.954C125.11 830.621 143.731 772.748 154.787 720.812C159.658 697.763 165.598 676.738 164.165 654.202C162.989 634.562 156.155 615.309 146.405 596.937C132.904 571.794 113.478 547.491 95.1526 526.056C85.0414 514.272 75.6196 502.578 66.5225 491.624C47.5655 468.57 32.9382 447.262 21.3387 423.133C4.45324 387.844 -5.65961 341.904 2.95148 293.704C3.86638 288.793 4.84134 283.96 6.01421 279.222C18.1622 228.056 40.7541 194.235 68.9922 172.039C99.738 147.793 140.036 130.438 180.138 96.1547C192.185 85.9067 204.073 74.1715 215.277 61.2302C236.081 37.4455 254.788 9.82763 268.836 -19.1605C290.165 -63.273 300.366 -110.22 298.638 -148.371" stroke="url(#paint12_linear_444_1606)" stroke-opacity="0.2" stroke-width="0.932735" stroke-miterlimit="10"/>
<path d="M292.317 1081.82C248.674 1064.86 208.63 1039.57 177.808 1005.84C159.623 986.027 144.735 962.939 134.932 937.924C128.493 921.586 124.264 904.416 122.605 886.88C117.164 831.905 134.396 774.481 146.519 722.962C151.959 699.847 158.84 678.594 158.09 655.657C157.44 635.736 151.074 616.125 141.359 597.477C128.049 571.94 108.365 547.464 89.5302 526.172C79.0655 514.413 68.9612 503.119 59.5283 492.052C39.7441 468.891 22.6488 448.243 9.29928 424.097C-10.3189 388.804 -22.9379 342.191 -14.2558 293.441C-13.401 288.453 -12.2881 283.638 -11.1153 278.9C1.61977 227.53 28.203 193.735 59.5587 172.362C93.6979 148.972 136.713 133.366 178.692 99.7438C191.351 89.6447 203.653 77.9629 215.192 65.1348C236.704 41.3017 255.584 13.4267 269.487 -16.0691C290.431 -60.9997 299.396 -109.224 295.328 -148.795" stroke="url(#paint13_linear_444_1606)" stroke-opacity="0.2" stroke-width="0.932735" stroke-miterlimit="10"/>
<path d="M282.459 1082.71C239.342 1065.48 199.903 1039.85 169.668 1005.91C151.837 986.071 137.224 963.019 127.541 938.159C121.222 921.977 116.976 904.944 115.161 887.527C109.313 832.988 125.036 775.858 138.287 724.835C144.373 701.593 152.117 680.172 152.031 656.972C151.986 636.71 145.949 616.722 136.407 597.817C123.289 571.885 103.484 547.255 84.0028 526.089C73.2446 514.431 62.5709 503.203 52.5511 492.34C31.395 469.49 12.4542 449.023 -2.72307 424.92C-24.9963 389.563 -40.277 342.398 -31.5061 292.961C-30.6513 287.972 -29.5207 283.019 -28.27 278.222C-14.8879 226.726 15.6265 192.88 49.9621 172.311C87.5548 149.856 133.366 135.938 177.144 103.037C190.336 93.1468 203.112 81.596 215.005 68.7437C237.146 44.9221 256.355 16.6704 269.976 -13.3508C290.672 -59.0818 298.202 -108.679 291.855 -149.592" stroke="url(#paint14_linear_444_1606)" stroke-opacity="0.2" stroke-width="0.932735" stroke-miterlimit="10"/>
<path d="M272.583 1083.75C229.915 1066.29 191.236 1040.2 161.57 1006.19C144.11 986.194 129.816 963.393 120.193 938.611C113.934 922.506 109.67 905.61 107.7 888.313C101.385 834.133 115.717 777.452 130.114 726.786C136.77 703.478 145.454 681.829 146.051 658.228C146.611 637.625 140.902 617.26 131.456 598.159C118.451 571.892 98.5438 546.969 78.4754 526.006C67.3636 514.373 56.2409 503.367 45.574 492.629C23.1238 470.032 2.31969 449.882 -14.7454 425.745C-39.6913 390.462 -57.5984 342.468 -48.6964 292.559C-47.7637 287.51 -46.6332 282.557 -45.3825 277.76C-31.3356 226.001 3.09246 192.242 40.468 172.553C81.3762 151.017 129.983 138.786 175.56 106.607C189.364 96.8652 202.535 85.5053 214.782 72.6288C237.552 48.8185 257.012 20.2501 270.489 -10.2789C290.878 -56.8878 297.034 -107.78 288.407 -150.035" stroke="url(#paint15_linear_444_1606)" stroke-opacity="0.2" stroke-width="0.932735" stroke-miterlimit="10"/>
<path d="M262.787 1084.72C220.629 1067.12 182.65 1040.49 153.493 1006.34C136.387 986.316 122.368 963.551 112.925 939.002C106.727 922.974 102.504 906.293 100.301 889.175C93.5016 835.491 106.402 779.044 121.926 728.873C129.229 705.439 138.776 683.623 139.978 659.68C141.142 638.737 135.745 618.133 126.43 598.559C113.616 571.898 93.5108 546.879 72.8131 525.905C61.3478 514.296 49.7759 503.511 38.522 492.977C14.6999 470.691 -8.02757 450.782 -26.8427 426.628C-54.5992 391.401 -74.9346 342.674 -65.9615 292.215C-65.0889 287.09 -63.8983 282.214 -62.492 277.297C-47.8581 225.334 -9.43874 191.602 30.9166 172.718C75.2183 152.038 126.62 141.496 174.057 110.116C188.394 100.583 202.117 89.294 214.64 76.4531C238.117 52.5945 257.751 23.7689 271.022 -7.34528C291.105 -54.8321 295.886 -107.02 284.98 -150.617" stroke="url(#paint16_linear_444_1606)" stroke-opacity="0.2" stroke-width="0.932735" stroke-miterlimit="10"/>
<path d="M252.99 1085.69C211.358 1067.81 173.984 1040.84 145.414 1006.48C128.661 986.439 115.056 963.727 105.596 939.315C99.5172 923.442 95.2172 906.821 92.9183 889.901C85.6519 836.575 97.1629 780.577 113.754 730.823C121.566 707.246 132.114 685.279 134.058 661.013C135.827 639.729 130.759 618.748 121.618 598.917C108.994 571.862 88.7092 546.61 67.4245 525.84C55.6657 514.332 43.5246 503.614 31.6838 493.283C6.48976 471.309 -18.0833 451.58 -38.7262 427.47C-69.2155 392.239 -92.1171 342.761 -83.073 291.753C-82.2004 286.627 -80.9921 281.614 -79.5257 276.775C-64.227 224.549 -21.9541 190.825 21.579 172.84C69.2564 153.155 123.454 144.301 172.707 113.505C187.578 104.181 201.715 92.9454 214.651 80.1579C238.758 56.3107 258.72 27.1085 271.692 -4.39373C291.527 -52.6809 294.874 -106.241 281.688 -151.181" stroke="url(#paint17_linear_444_1606)" stroke-opacity="0.2" stroke-width="0.932735" stroke-miterlimit="10"/>
<path d="M243.115 1086.72C201.992 1068.7 165.318 1041.19 137.317 1006.77C120.918 986.701 107.589 964.024 98.3082 939.845C92.2896 924.05 87.9718 907.567 85.5773 890.843C77.9041 837.955 87.9655 782.328 105.702 732.931C114.221 709.305 125.572 687.093 128.121 662.486C130.417 640.92 125.815 619.581 116.709 599.476C104.337 572.103 83.8718 546.619 61.9401 525.974C49.8277 514.491 37.2375 503.993 24.8274 493.729C-1.73852 472.067 -28.0972 452.596 -50.6279 428.451C-83.7122 393.234 -109.258 343.066 -100.143 291.508C-99.1923 286.322 -97.984 281.309 -96.4998 276.332C-80.5541 223.98 -34.3498 190.205 12.2233 173.102C63.2941 154.275 120.269 147.247 171.262 117.094C186.805 107.996 201.355 96.8142 214.644 84.0025C239.38 60.1667 259.594 30.6478 272.361 -1.43977C291.889 -50.6048 293.862 -105.461 278.319 -151.683" stroke="url(#paint18_linear_444_1606)" stroke-opacity="0.2" stroke-width="0.932735" stroke-miterlimit="10"/>
<path d="M233.32 1087.7C192.724 1069.39 156.655 1041.54 129.241 1006.92C113.273 986.763 100.141 964.182 90.981 940.158C85.0224 924.441 80.6691 908.232 78.119 891.628C69.979 839.098 78.7286 783.86 97.4546 734.941C106.543 711.249 118.834 688.809 122.048 663.939C124.949 642.032 120.598 620.375 111.744 599.953C99.5626 572.186 78.8393 546.529 56.3983 526.028C43.9924 514.646 30.9708 504.233 17.8358 494.154C-10.0242 472.744 -38.3061 453.514 -62.7425 429.472C-98.5596 394.251 -126.611 343.41 -117.425 291.302C-116.475 286.116 -115.249 280.966 -113.705 276.066C-97.094 223.451 -47.054 189.822 2.57673 173.463C56.9633 155.554 116.812 150.154 169.663 120.8C185.74 111.911 200.764 100.86 214.407 88.0239C239.85 64.1397 260.237 34.3637 272.859 1.76849C292.081 -48.2745 292.679 -104.425 274.856 -151.99" stroke="url(#paint19_linear_444_1606)" stroke-opacity="0.2" stroke-width="0.932735" stroke-miterlimit="10"/>
<path d="M223.382 1088.65C183.235 1070.12 147.927 1041.81 121.022 1007.05C105.407 986.867 92.6117 964.4 83.5113 940.453C77.535 924.873 73.2417 908.742 70.5961 892.335C62.0492 840.241 69.4091 785.453 89.2204 736.813C98.956 712.995 112.032 690.447 116.006 665.116C119.511 642.868 115.49 620.835 106.749 600.078C94.7588 571.917 73.9153 546.104 50.8451 525.592C38.0856 514.234 24.6149 504.043 10.8929 494.167C-18.3568 473.206 -48.4666 454.019 -74.7307 430.021C-113.203 394.736 -143.899 343.204 -134.642 290.546C-133.751 285.283 -132.387 280.15 -130.843 275.251C-113.646 222.432 -59.6141 188.83 -6.94343 173.353C50.741 156.497 113.463 152.726 168.132 123.956C184.742 115.275 200.257 104.218 214.236 91.4955C240.308 67.6227 260.947 37.5298 273.364 4.34928C292.339 -46.494 291.502 -104.018 271.4 -152.925" stroke="url(#paint20_linear_444_1606)" stroke-opacity="0.2" stroke-width="0.932735" stroke-miterlimit="10"/>
<path d="M213.585 1089.62C151.048 1059.96 100.69 1005.47 76.2415 940.844C51.7929 876.218 53.7159 802.217 81.1683 738.918C91.551 714.974 105.49 692.258 110.068 666.586C119.672 613.415 86.4879 561.072 45.3607 525.723C4.29351 490.453 -45.5052 466.348 -86.7102 431.059C-127.855 395.848 -161.117 343.565 -151.789 290.358C-140.833 228.35 -77.3171 189.687 -16.377 173.672C44.701 157.674 110.141 155.651 166.668 127.68C216.01 103.251 255.33 59.2966 273.998 7.57538C292.666 -44.1459 290.454 -102.965 268.073 -153.214" stroke="url(#paint21_linear_444_1606)" stroke-opacity="0.2" stroke-width="0.932735" stroke-miterlimit="10"/>
<path d="M200.6 1078.94C139.004 1049.05 89.809 994.78 66.272 930.691C42.7351 866.602 44.7672 793.383 72.5869 731.039C83.4365 706.736 98.6515 683.905 104.135 658.281C115.269 606.284 84.202 554.913 45.6517 519.688C7.16152 484.541 -40.1694 459.776 -79.9249 424.116C-120.256 388.032 -154.555 336.174 -146.683 282.848C-137.357 220.979 -75.7309 180.674 -14.942 163.661C45.847 146.648 112.121 145.222 168.245 119.294C216.769 96.8545 254.9 55.0514 273.722 5.93416C292.544 -43.183 291.703 -99.5902 270.912 -148.586" stroke="url(#paint22_linear_444_1606)" stroke-opacity="0.2" stroke-width="0.932735" stroke-miterlimit="10"/>
<path d="M187.633 1068.12C127.115 1038.02 78.9447 983.95 56.1815 920.38C33.4184 856.81 35.7754 784.331 64.0224 723.02C75.4168 698.298 91.8125 675.55 98.2014 649.972C110.848 599.289 81.9152 548.752 46.002 513.727C10.1065 478.566 -34.8344 453.202 -73.2183 417.23C-112.659 380.213 -148.209 328.822 -141.716 275.317C-134.157 213.569 -74.1458 171.659 -13.7837 153.612C46.5784 135.566 113.765 134.676 169.467 110.929C217.156 90.6169 254.194 50.7678 273.17 4.25467C292.086 -42.3361 292.675 -96.2537 273.474 -143.997" stroke="url(#paint23_linear_444_1606)" stroke-opacity="0.2" stroke-width="0.932735" stroke-miterlimit="10"/>
<path d="M174.647 1057.44C115.146 1027.05 68.1392 973.199 46.072 910.208C24.0049 847.216 26.8246 775.495 55.4389 715.139C67.378 689.999 84.9546 667.333 92.2663 641.665C106.365 592.216 79.6096 542.729 46.2911 507.69C12.9727 472.652 -29.5783 446.689 -66.5727 410.267C-105.062 372.396 -141.924 321.393 -136.75 267.788C-130.881 206.1 -72.5617 162.644 -12.6264 143.564C47.3088 124.485 115.389 124.269 170.826 102.583C217.482 84.3026 253.606 46.6405 272.754 2.59402C291.824 -41.3926 293.706 -92.8386 276.172 -139.389" stroke="url(#paint24_linear_444_1606)" stroke-opacity="0.2" stroke-width="0.932735" stroke-miterlimit="10"/>
<path d="M161.602 1046.68C103.102 1016.14 57.1373 962.352 35.9819 899.897C14.8265 837.442 17.971 766.461 46.8748 707.12C59.3587 681.561 78.0384 659.037 86.3506 633.219C101.824 585.065 77.3412 536.43 46.6776 501.455C16.014 466.48 -24.147 439.917 -59.8298 403.106C-97.5655 364.284 -135.404 313.783 -131.746 259.982C-127.568 198.355 -71.0182 153.413 -11.4319 133.24C48.2143 113.145 116.914 113.569 172.084 93.9432C217.844 77.7124 252.936 42.0818 272.238 0.639527C291.54 -40.8028 294.714 -89.7769 278.849 -135.134" stroke="url(#paint25_linear_444_1606)" stroke-opacity="0.2" stroke-width="0.932735" stroke-miterlimit="10"/>
<path d="M148.693 1035.93C91.2108 1005.11 46.3311 951.602 26.0096 889.743C5.68804 827.885 9.15746 757.644 38.3507 699.318C51.3794 673.34 71.1799 650.822 80.3972 625.05C97.2454 578.191 75.035 530.408 46.9485 495.556C18.8619 460.704 -18.8134 433.345 -53.2023 396.282C-90.0468 356.527 -129 306.511 -126.798 252.591C-124.249 191.102 -69.5124 144.459 -10.2329 123.408C48.9865 102.28 118.52 103.3 173.485 85.8132C218.29 71.5544 252.33 38.0928 271.786 -0.745326C291.243 -39.5835 295.787 -86.1456 281.572 -130.172" stroke="url(#paint26_linear_444_1606)" stroke-opacity="0.2" stroke-width="0.932735" stroke-miterlimit="10"/>
<path d="M135.651 1025.17C79.247 994.137 35.3922 940.833 15.9223 879.433C-3.54759 818.034 0.366823 748.688 29.7895 691.299C43.3629 664.903 64.2665 642.527 74.5446 616.683C92.6296 571.101 72.8119 524.325 47.3202 489.459C21.8885 454.671 -13.3967 426.712 -46.474 389.259C-82.3494 348.512 -122.572 299.099 -121.809 244.924C-120.95 183.496 -67.9058 135.306 -8.97531 113.162C49.9551 91.0186 120.048 92.5998 174.806 77.2517C218.518 64.947 251.783 33.6901 271.333 -2.6215C290.883 -38.9331 296.781 -82.9459 284.233 -125.779" stroke="url(#paint27_linear_444_1606)" stroke-opacity="0.2" stroke-width="0.932735" stroke-miterlimit="10"/>
<path d="M122.666 1014.49C67.2799 983.165 24.5102 930.141 5.81417 869.26C-12.8818 808.379 -8.44464 739.869 21.2074 683.418C35.3256 656.603 57.2721 634.291 68.5331 608.434C87.777 564.19 70.4477 518.224 47.5933 483.559C24.6787 448.816 -8.0607 420.139 -39.7661 382.374C-74.7502 340.694 -116.147 291.689 -116.781 237.472C-117.552 176.182 -66.3373 126.429 -7.75605 103.192C50.8252 79.9556 121.458 82.2351 176.166 68.9061C218.785 58.5557 251.136 29.4858 270.919 -4.2813C290.623 -37.9886 297.951 -79.5116 286.934 -121.169" stroke="url(#paint28_linear_444_1606)" stroke-opacity="0.2" stroke-width="0.932735" stroke-miterlimit="10"/>
<path d="M109.699 1003.67C55.3132 972.197 13.6464 919.315 -4.21565 859.03C-22.0777 798.746 -17.1777 730.994 12.7037 675.48C27.3666 648.247 50.3384 626.137 62.6778 600.07C83.0206 557.085 68.2399 512.007 47.9626 477.466C27.7031 442.786 -4.80722 415.046 -33.0398 375.356C-64.7203 330.889 -109.643 284.222 -111.794 229.809C-114.195 168.658 -64.7327 117.281 -6.5184 93.0885C51.6959 68.8964 122.905 71.5996 177.527 60.5646C219.13 52.1085 250.568 25.2257 270.427 -5.87729C290.364 -37.0401 298.906 -76.0314 289.557 -116.496" stroke="url(#paint29_linear_444_1606)" stroke-opacity="0.2" stroke-width="0.932735" stroke-miterlimit="10"/>
<path d="M96.7124 992.986C43.3452 961.225 2.70332 908.545 -14.2469 848.797C-31.335 789.031 -25.9123 722.115 4.12067 667.599C19.3283 639.947 43.3431 617.902 56.6655 591.822C78.1071 550.097 65.8571 506.044 48.2526 471.428C30.5703 436.873 0.330112 408.378 -26.3928 368.393C-56.9485 322.814 -103.219 276.811 -106.826 222.28C-110.917 161.19 -63.1474 108.266 -5.36012 83.0411C52.4272 57.8158 124.195 61.0802 178.749 52.2017C219.198 45.6223 249.843 21.0818 269.874 -7.55432C289.904 -36.1904 299.877 -72.6919 292.118 -111.903" stroke="url(#paint30_linear_444_1606)" stroke-opacity="0.2" stroke-width="0.932735" stroke-miterlimit="10"/>
<path d="M83.6705 982.226C31.3215 950.176 -8.23522 897.776 -24.4115 838.547C-40.5879 779.318 -34.7202 713.298 -4.5179 659.641C11.2945 631.648 36.2145 609.651 50.7354 583.516C73.1981 543.109 63.5744 499.885 48.5472 465.393C33.5199 430.9 8.08217 399.952 -19.7412 361.432C-52.0157 316.678 -96.8679 269.462 -101.914 214.674C-107.635 153.723 -61.6777 99.098 -4.25737 72.9172C53.1629 46.7364 125.369 50.4066 180.053 43.78C219.288 38.9997 249.218 16.7415 269.403 -9.2902C289.588 -35.3219 300.931 -69.4112 294.762 -107.369" stroke="url(#paint31_linear_444_1606)" stroke-opacity="0.2" stroke-width="0.932735" stroke-miterlimit="10"/>
<path d="M70.7632 971.482C19.4924 939.222 -18.9614 886.965 -34.4416 828.314C-49.9219 769.664 -43.4536 704.42 -13.0219 651.701C3.33525 623.288 29.1603 601.338 44.8799 575.149C68.3813 535.924 61.4264 493.743 48.9163 459.296C36.4663 424.927 13.5744 393.26 -12.9549 354.488C-44.2602 308.742 -90.3044 262.069 -96.8844 207.223C-104.158 146.35 -60.1088 90.2218 -3.03765 62.948C54.0334 35.6741 126.66 39.8876 181.335 35.4952C219.436 32.4541 248.494 12.5981 268.833 -10.8293C289.172 -34.2567 301.808 -65.8739 297.307 -102.639" stroke="url(#paint32_linear_444_1606)" stroke-opacity="0.2" stroke-width="0.932735" stroke-miterlimit="10"/>
<path d="M57.7169 960.721C7.38656 928.234 -29.9044 876.196 -44.4728 818.083C-59.0412 759.969 -52.0501 695.56 -21.527 643.761C-4.56497 615.008 22.1652 593.105 38.9455 566.842C63.2702 528.842 59.0617 487.644 49.2668 453.338C39.4718 419.032 19.0658 386.569 -6.16945 347.545C-36.4878 300.668 -83.7417 254.678 -91.7783 199.713C-100.681 138.979 -58.3852 81.2267 -1.60323 52.9374C55.1787 24.6482 128.046 29.1722 182.971 27.187C219.737 25.7898 248.261 8.44906 268.694 -12.4516C289.127 -33.3522 303.194 -62.4796 300.283 -97.9915" stroke="url(#paint33_linear_444_1606)" stroke-opacity="0.2" stroke-width="0.932735" stroke-miterlimit="10"/>
<path d="M44.8124 949.979C-4.43969 917.281 -40.7055 865.446 -54.5 807.851C-68.2945 750.257 -60.7206 686.761 -29.968 635.899C-12.3835 606.668 15.1741 584.871 33.153 558.554C58.3786 521.718 56.9166 481.503 49.6989 447.321C42.4212 413.061 24.639 379.819 0.61996 340.602C-28.7292 292.733 -77.115 247.364 -86.7283 192.126C-97.2613 131.53 -56.7177 72.1543 -0.362715 42.8319C55.9922 13.5094 129.238 18.3617 184.275 18.766C219.845 19.0304 247.558 4.16941 268.223 -14.1866C288.888 -32.5427 304.247 -59.1981 302.927 -93.4568" stroke="url(#paint34_linear_444_1606)" stroke-opacity="0.2" stroke-width="0.932735" stroke-miterlimit="10"/>
<path d="M31.7693 939.22C-16.4645 906.235 -51.7053 854.601 -64.6658 797.604C-77.6263 740.606 -69.4517 677.886 -38.6855 628.004C-20.4961 598.431 7.84642 576.526 27.0662 550.369C53.1928 514.697 54.5375 475.543 49.9148 441.347C45.2922 407.15 29.9958 373.112 7.19306 333.703C-21.1691 284.704 -70.7646 240.017 -81.8345 184.661C-93.9197 124.143 -55.3443 63.1856 0.721497 32.8477C56.7873 2.50988 130.291 7.53512 185.5 10.4064C219.755 12.1773 246.854 -0.108553 267.595 -15.8004C288.414 -31.552 305.066 -55.7353 305.492 -88.8606" stroke="url(#paint35_linear_444_1606)" stroke-opacity="0.2" stroke-width="0.932735" stroke-miterlimit="10"/>
<path d="M18.7856 928.537C-28.4478 895.402 -62.5857 843.911 -74.6944 787.372C-86.8032 730.833 -78.0635 669.164 -47.188 620.065C-28.3938 590.15 0.716051 568.275 21.2123 542.004C48.102 507.477 52.2532 469.385 50.2857 435.252C48.3182 401.119 35.5077 366.283 13.9212 326.682C-13.454 276.553 -64.1813 232.489 -76.8457 176.996C-90.5609 116.617 -53.7381 54.0357 1.96075 22.7422C57.5995 -8.62894 131.439 -3.49041 186.863 2.06301C219.939 5.35817 246.21 -4.31052 267.183 -17.4577C288.156 -30.6049 306.179 -52.376 308.195 -84.2481" stroke="url(#paint36_linear_444_1606)" stroke-opacity="0.2" stroke-width="0.932735" stroke-miterlimit="10"/>
</g>
<g filter="url(#filter2_n_444_1606)">
<path d="M124.076 280.375H93.8848L76.5957 242.956H106.787L124.076 280.375ZM210.821 280.375H194.356V205.537H210.821V280.375ZM256.575 205.537C262.419 205.537 267.765 206.5 272.611 208.424C277.529 210.277 281.735 212.879 285.228 216.229C288.791 219.578 291.535 223.534 293.459 228.096C295.383 232.586 296.346 237.468 296.346 242.742V242.956C296.346 248.23 295.383 253.148 293.459 257.71C291.535 262.271 288.791 266.227 285.228 269.577C281.735 272.927 277.529 275.564 272.611 277.488C267.765 279.413 262.42 280.375 256.575 280.375H227.388V205.537H256.575ZM59.3076 280.005H29.1162L63.6953 205.537H93.8857L59.3076 280.005ZM243.853 265.515H256.575C259.925 265.515 262.99 264.98 265.77 263.911C268.549 262.842 270.901 261.309 272.825 259.313C274.821 257.318 276.354 254.966 277.423 252.258C278.563 249.549 279.133 246.52 279.133 243.17V242.956C279.133 239.678 278.563 236.649 277.423 233.869C276.354 231.089 274.821 228.702 272.825 226.706C270.901 224.71 268.549 223.178 265.77 222.108C262.99 220.968 259.925 220.398 256.575 220.398H243.853V265.515ZM181.399 255.038H148.471V239.429H181.399V255.038ZM136.979 242.956H106.788L124.077 205.537H154.269L136.979 242.956Z" fill="url(#paint37_linear_444_1606)" fill-opacity="0.6"/>
</g>
<path d="M205.26 405.529C205.139 405.99 204.989 406.322 204.811 406.524C204.642 406.718 204.411 406.815 204.12 406.815C203.982 406.815 203.841 406.791 203.695 406.742C203.55 406.686 203.404 406.629 203.258 406.572C203.113 406.508 202.975 406.451 202.846 406.402C202.716 406.346 202.599 406.318 202.494 406.318C202.332 406.318 202.207 406.362 202.118 406.451C202.037 406.54 201.952 406.698 201.863 406.924L201.293 406.766C201.414 406.305 201.564 405.978 201.742 405.784C201.92 405.581 202.154 405.48 202.445 405.48C202.575 405.48 202.712 405.509 202.858 405.565C203.012 405.614 203.157 405.67 203.295 405.735C203.44 405.792 203.578 405.848 203.707 405.905C203.845 405.954 203.966 405.978 204.071 405.978C204.233 405.978 204.354 405.933 204.435 405.844C204.524 405.755 204.613 405.598 204.702 405.371L205.26 405.529ZM213.505 402.047C213.019 402.047 212.603 402.172 212.255 402.423C211.907 402.665 211.563 403.025 211.223 403.503L210.52 402.993C210.714 402.71 210.912 402.455 211.114 402.229C211.317 402.002 211.535 401.812 211.769 401.658C212.012 401.505 212.279 401.387 212.57 401.306C212.87 401.226 213.205 401.185 213.577 401.185C213.966 401.185 214.317 401.246 214.633 401.367C214.957 401.488 215.236 401.658 215.47 401.877C215.705 402.087 215.887 402.342 216.016 402.641C216.146 402.932 216.21 403.252 216.21 403.6C216.21 403.915 216.166 404.202 216.077 404.461C215.996 404.72 215.867 404.979 215.689 405.238C215.511 405.488 215.288 405.751 215.021 406.026C214.754 406.293 214.435 406.589 214.063 406.912L211.794 408.926H216.295V409.8H210.362V409.06L213.444 406.342C213.767 406.051 214.042 405.788 214.269 405.553C214.495 405.319 214.677 405.1 214.815 404.898C214.961 404.688 215.062 404.485 215.118 404.291C215.183 404.089 215.215 403.883 215.215 403.672C215.215 403.422 215.167 403.199 215.07 403.005C214.981 402.803 214.859 402.633 214.706 402.496C214.552 402.35 214.37 402.241 214.16 402.168C213.949 402.087 213.731 402.047 213.505 402.047ZM222.05 401.246H222.887V406.985H224.209V407.786H222.887V409.8H221.965V407.786H217.488L217.245 407.094L222.05 401.246ZM221.965 406.985V402.605L218.398 406.985H221.965ZM226.914 409.8H225.798V408.526H226.914V409.8ZM235.524 405.541C235.524 406.14 235.439 406.706 235.269 407.24C235.099 407.774 234.856 408.243 234.541 408.647C234.233 409.043 233.857 409.359 233.412 409.594C232.967 409.828 232.474 409.945 231.932 409.945C231.382 409.945 230.885 409.832 230.44 409.606C230.003 409.371 229.627 409.056 229.311 408.659C229.004 408.255 228.765 407.79 228.595 407.264C228.434 406.73 228.353 406.164 228.353 405.565C228.353 404.967 228.438 404.4 228.608 403.867C228.777 403.333 229.016 402.868 229.323 402.471C229.639 402.067 230.019 401.747 230.464 401.513C230.909 401.278 231.406 401.161 231.956 401.161C232.498 401.161 232.988 401.278 233.424 401.513C233.869 401.739 234.245 402.055 234.553 402.459C234.868 402.855 235.107 403.321 235.269 403.854C235.439 404.38 235.524 404.942 235.524 405.541ZM234.529 405.565C234.529 405.096 234.468 404.651 234.347 404.231C234.225 403.802 234.051 403.426 233.825 403.102C233.598 402.779 233.323 402.52 233 402.326C232.684 402.132 232.328 402.034 231.932 402.034C231.536 402.034 231.176 402.132 230.852 402.326C230.537 402.512 230.266 402.767 230.039 403.09C229.821 403.406 229.651 403.778 229.53 404.206C229.408 404.627 229.348 405.072 229.348 405.541C229.348 406.01 229.408 406.459 229.53 406.888C229.651 407.317 229.825 407.693 230.051 408.016C230.278 408.34 230.553 408.599 230.876 408.793C231.2 408.979 231.56 409.072 231.956 409.072C232.353 409.072 232.709 408.979 233.024 408.793C233.348 408.599 233.619 408.344 233.837 408.028C234.063 407.705 234.233 407.333 234.347 406.912C234.468 406.483 234.529 406.034 234.529 405.565ZM241.361 402.168H237.211V401.306H242.635V402.01L239.965 404.971C240.337 405.003 240.693 405.072 241.033 405.177C241.373 405.282 241.668 405.432 241.919 405.626C242.178 405.82 242.384 406.063 242.538 406.354C242.691 406.645 242.768 406.985 242.768 407.373C242.768 407.753 242.691 408.101 242.538 408.417C242.392 408.732 242.19 409.003 241.931 409.23C241.68 409.456 241.381 409.634 241.033 409.763C240.693 409.885 240.325 409.945 239.929 409.945C239.217 409.945 238.598 409.808 238.072 409.533C237.547 409.25 237.11 408.882 236.762 408.429L237.454 407.81C237.785 408.214 238.149 408.526 238.546 408.744C238.95 408.963 239.415 409.072 239.941 409.072C240.2 409.072 240.443 409.035 240.669 408.963C240.895 408.882 241.09 408.768 241.251 408.623C241.421 408.477 241.555 408.303 241.652 408.101C241.749 407.891 241.797 407.66 241.797 407.41C241.797 406.876 241.575 406.467 241.13 406.184C240.693 405.901 240.123 405.759 239.419 405.759H238.873L238.679 405.189L241.361 402.168ZM245.647 409.8H244.531V408.526H245.647V409.8ZM250.296 402.047C249.81 402.047 249.394 402.172 249.046 402.423C248.698 402.665 248.354 403.025 248.015 403.503L247.311 402.993C247.505 402.71 247.703 402.455 247.905 402.229C248.108 402.002 248.326 401.812 248.561 401.658C248.803 401.505 249.07 401.387 249.361 401.306C249.661 401.226 249.996 401.185 250.368 401.185C250.757 401.185 251.109 401.246 251.424 401.367C251.748 401.488 252.027 401.658 252.261 401.877C252.496 402.087 252.678 402.342 252.807 402.641C252.937 402.932 253.001 403.252 253.001 403.6C253.001 403.915 252.957 404.202 252.868 404.461C252.787 404.72 252.658 404.979 252.48 405.238C252.302 405.488 252.079 405.751 251.812 406.026C251.545 406.293 251.226 406.589 250.854 406.912L248.585 408.926H253.086V409.8H247.153V409.06L250.235 406.342C250.558 406.051 250.833 405.788 251.06 405.553C251.286 405.319 251.468 405.1 251.606 404.898C251.752 404.688 251.853 404.485 251.909 404.291C251.974 404.089 252.006 403.883 252.006 403.672C252.006 403.422 251.958 403.199 251.861 403.005C251.772 402.803 251.65 402.633 251.497 402.496C251.343 402.35 251.161 402.241 250.951 402.168C250.74 402.087 250.522 402.047 250.296 402.047ZM261.757 405.541C261.757 406.14 261.672 406.706 261.502 407.24C261.332 407.774 261.09 408.243 260.774 408.647C260.467 409.043 260.091 409.359 259.646 409.594C259.201 409.828 258.708 409.945 258.166 409.945C257.616 409.945 257.118 409.832 256.673 409.606C256.236 409.371 255.86 409.056 255.545 408.659C255.237 408.255 254.999 407.79 254.829 407.264C254.667 406.73 254.586 406.164 254.586 405.565C254.586 404.967 254.671 404.4 254.841 403.867C255.011 403.333 255.25 402.868 255.557 402.471C255.872 402.067 256.253 401.747 256.698 401.513C257.142 401.278 257.64 401.161 258.19 401.161C258.732 401.161 259.221 401.278 259.658 401.513C260.103 401.739 260.479 402.055 260.786 402.459C261.102 402.855 261.341 403.321 261.502 403.854C261.672 404.38 261.757 404.942 261.757 405.541ZM260.762 405.565C260.762 405.096 260.702 404.651 260.58 404.231C260.459 403.802 260.285 403.426 260.058 403.102C259.832 402.779 259.557 402.52 259.233 402.326C258.918 402.132 258.562 402.034 258.166 402.034C257.769 402.034 257.409 402.132 257.086 402.326C256.77 402.512 256.499 402.767 256.273 403.09C256.054 403.406 255.885 403.778 255.763 404.206C255.642 404.627 255.581 405.072 255.581 405.541C255.581 406.01 255.642 406.459 255.763 406.888C255.885 407.317 256.058 407.693 256.285 408.016C256.511 408.34 256.786 408.599 257.11 408.793C257.434 408.979 257.794 409.072 258.19 409.072C258.586 409.072 258.942 408.979 259.258 408.793C259.581 408.599 259.852 408.344 260.071 408.028C260.297 407.705 260.467 407.333 260.58 406.912C260.702 406.483 260.762 406.034 260.762 405.565ZM267.594 402.168H263.445V401.306H268.868V402.01L266.199 404.971C266.571 405.003 266.927 405.072 267.267 405.177C267.606 405.282 267.902 405.432 268.152 405.626C268.411 405.82 268.617 406.063 268.771 406.354C268.925 406.645 269.002 406.985 269.002 407.373C269.002 407.753 268.925 408.101 268.771 408.417C268.626 408.732 268.423 409.003 268.164 409.23C267.914 409.456 267.614 409.634 267.267 409.763C266.927 409.885 266.559 409.945 266.162 409.945C265.451 409.945 264.832 409.808 264.306 409.533C263.78 409.25 263.343 408.882 262.996 408.429L263.687 407.81C264.019 408.214 264.383 408.526 264.779 408.744C265.184 408.963 265.649 409.072 266.175 409.072C266.433 409.072 266.676 409.035 266.903 408.963C267.129 408.882 267.323 408.768 267.485 408.623C267.655 408.477 267.788 408.303 267.885 408.101C267.982 407.891 268.031 407.66 268.031 407.41C268.031 406.876 267.809 406.467 267.364 406.184C266.927 405.901 266.357 405.759 265.653 405.759H265.107L264.913 405.189L267.594 402.168ZM270.972 405.444L271.215 401.306H276.104V402.192H272.052L271.87 404.91C272.121 404.797 272.371 404.708 272.622 404.643C272.881 404.57 273.188 404.534 273.544 404.534C273.957 404.534 274.341 404.595 274.697 404.716C275.053 404.837 275.364 405.011 275.631 405.238C275.898 405.456 276.104 405.727 276.25 406.051C276.404 406.374 276.481 406.738 276.481 407.143C276.481 407.563 276.404 407.947 276.25 408.295C276.104 408.635 275.898 408.93 275.631 409.181C275.364 409.424 275.045 409.614 274.673 409.751C274.301 409.881 273.892 409.945 273.447 409.945C272.841 409.945 272.278 409.82 271.761 409.569C271.251 409.31 270.802 408.987 270.414 408.599L271.045 407.907C271.417 408.271 271.801 408.558 272.198 408.768C272.602 408.971 273.023 409.072 273.459 409.072C273.759 409.072 274.034 409.027 274.284 408.938C274.543 408.841 274.762 408.708 274.94 408.538C275.118 408.368 275.255 408.17 275.352 407.943C275.457 407.709 275.51 407.454 275.51 407.179C275.51 406.912 275.457 406.669 275.352 406.451C275.255 406.233 275.114 406.047 274.928 405.893C274.742 405.731 274.519 405.606 274.26 405.517C274.001 405.428 273.714 405.383 273.399 405.383C273.035 405.383 272.707 405.432 272.416 405.529C272.133 405.618 271.866 405.731 271.615 405.869L270.972 405.444Z" fill="#D1E2FF"/>
<path d="M57.642 379.789C57.642 380.274 57.5732 380.703 57.4357 381.075C57.3063 381.439 57.1243 381.746 56.8897 381.997C56.6552 382.24 56.3761 382.422 56.0525 382.543C55.729 382.664 55.3771 382.725 54.9969 382.725C54.3579 382.725 53.8281 382.583 53.4075 382.3C52.9868 382.017 52.6431 381.657 52.3761 381.22L53.0677 380.626C53.3266 381.022 53.6016 381.325 53.8928 381.536C54.1921 381.738 54.5642 381.839 55.0091 381.839C55.4863 381.839 55.8827 381.669 56.1981 381.33C56.5136 380.982 56.6713 380.472 56.6713 379.801L56.6713 374.11H57.642L57.642 379.789ZM62.0189 377.071C61.6468 377.071 61.3071 377.115 60.9997 377.204C60.7004 377.285 60.4052 377.394 60.114 377.532L59.8349 376.767C60.1827 376.606 60.5346 376.48 60.8905 376.391C61.2464 376.294 61.6549 376.246 62.116 376.246C62.9734 376.246 63.6326 376.46 64.0937 376.889C64.5548 377.309 64.7853 377.936 64.7853 378.769L64.7853 382.604H63.8874L63.8874 381.657C63.669 381.94 63.3738 382.191 63.0017 382.409C62.6377 382.628 62.1766 382.737 61.6185 382.737C61.3273 382.737 61.0402 382.697 60.757 382.616C60.482 382.535 60.2313 382.413 60.0048 382.252C59.7864 382.082 59.6084 381.876 59.4709 381.633C59.3415 381.39 59.2768 381.103 59.2768 380.771C59.2768 380.44 59.3415 380.149 59.4709 379.898C59.6003 379.639 59.7823 379.425 60.0169 379.255C60.2596 379.085 60.5427 378.955 60.8662 378.866C61.1979 378.777 61.5619 378.733 61.9582 378.733C62.3627 378.733 62.7146 378.757 63.0138 378.806C63.3131 378.854 63.6043 378.919 63.8874 379V378.782C63.8874 378.215 63.7216 377.791 63.39 377.508C63.0664 377.216 62.6094 377.071 62.0189 377.071ZM62.0553 379.425C61.4648 379.425 61.0118 379.542 60.6964 379.776C60.3809 380.011 60.2232 380.331 60.2232 380.735C60.2232 380.937 60.2636 381.115 60.3445 381.269C60.4335 381.423 60.5508 381.556 60.6964 381.669C60.842 381.774 61.0078 381.855 61.1938 381.912C61.388 381.969 61.5902 381.997 61.8005 381.997C62.0917 381.997 62.3627 381.956 62.6134 381.876C62.8723 381.787 63.0947 381.669 63.2808 381.524C63.4749 381.37 63.6246 381.192 63.7297 380.99C63.843 380.779 63.8996 380.549 63.8996 380.298V379.692C63.665 379.627 63.394 379.566 63.0866 379.51C62.7874 379.453 62.4436 379.425 62.0553 379.425ZM73.11 379.461C73.11 379.979 73.0251 380.44 72.8552 380.844C72.6853 381.249 72.4589 381.592 72.1757 381.876C71.9007 382.151 71.5812 382.365 71.2172 382.519C70.8613 382.664 70.4933 382.737 70.1131 382.737C69.8219 382.737 69.5549 382.701 69.3123 382.628C69.0696 382.555 68.8512 382.458 68.6571 382.337C68.4629 382.215 68.285 382.074 68.1232 381.912C67.9695 381.75 67.832 381.58 67.7107 381.402V384.545H66.7764L66.7764 376.331H67.7107V377.592C67.8401 377.406 67.9817 377.228 68.1353 377.059C68.2971 376.889 68.4751 376.743 68.6692 376.622C68.8633 376.492 69.0777 376.391 69.3123 376.318C69.5549 376.238 69.8219 376.197 70.1131 376.197C70.4852 376.197 70.8492 376.27 71.2051 376.416C71.5691 376.561 71.8926 376.775 72.1757 377.059C72.4589 377.334 72.6853 377.673 72.8552 378.078C73.0251 378.482 73.11 378.943 73.11 379.461ZM72.1515 379.473C72.1515 379.101 72.0908 378.765 71.9695 378.466C71.8562 378.167 71.6985 377.912 71.4963 377.702C71.2941 377.483 71.0595 377.317 70.7925 377.204C70.5256 377.091 70.2425 377.034 69.9432 377.034C69.652 377.034 69.3689 377.095 69.0939 377.216C68.8269 377.33 68.5843 377.491 68.3659 377.702C68.1556 377.912 67.9857 378.167 67.8563 378.466C67.7349 378.765 67.6743 379.097 67.6743 379.461C67.6743 379.825 67.7349 380.161 67.8563 380.468C67.9857 380.767 68.1556 381.022 68.3659 381.232C68.5843 381.443 68.8269 381.609 69.0939 381.73C69.3689 381.843 69.652 381.9 69.9432 381.9C70.2425 381.9 70.5256 381.847 70.7925 381.742C71.0676 381.629 71.3021 381.471 71.4963 381.269C71.6985 381.059 71.8562 380.804 71.9695 380.504C72.0908 380.197 72.1515 379.853 72.1515 379.473ZM77.1026 377.071C76.7305 377.071 76.3908 377.115 76.0834 377.204C75.7841 377.285 75.4889 377.394 75.1977 377.532L74.9186 376.767C75.2665 376.606 75.6183 376.48 75.9742 376.391C76.3301 376.294 76.7386 376.246 77.1997 376.246C78.0571 376.246 78.7164 376.46 79.1774 376.889C79.6385 377.309 79.869 377.936 79.869 378.769L79.869 382.604H78.9712L78.9712 381.657C78.7528 381.94 78.4575 382.191 78.0854 382.409C77.7214 382.628 77.2604 382.737 76.7022 382.737C76.411 382.737 76.1239 382.697 75.8408 382.616C75.5657 382.535 75.315 382.413 75.0885 382.252C74.8701 382.082 74.6921 381.876 74.5546 381.633C74.4252 381.39 74.3605 381.103 74.3605 380.771C74.3605 380.44 74.4252 380.149 74.5546 379.898C74.6841 379.639 74.8661 379.425 75.1006 379.255C75.3433 379.085 75.6264 378.955 75.95 378.866C76.2816 378.777 76.6456 378.733 77.042 378.733C77.4464 378.733 77.7983 378.757 78.0976 378.806C78.3969 378.854 78.6881 378.919 78.9712 379V378.782C78.9712 378.215 78.8053 377.791 78.4737 377.508C78.1501 377.216 77.6931 377.071 77.1026 377.071ZM77.139 379.425C76.5485 379.425 76.0956 379.542 75.7801 379.776C75.4646 380.011 75.3069 380.331 75.3069 380.735C75.3069 380.937 75.3473 381.115 75.4282 381.269C75.5172 381.423 75.6345 381.556 75.7801 381.669C75.9257 381.774 76.0915 381.855 76.2776 381.912C76.4717 381.969 76.6739 381.997 76.8842 381.997C77.1754 381.997 77.4464 381.956 77.6972 381.876C77.956 381.787 78.1785 381.669 78.3645 381.524C78.5586 381.37 78.7083 381.192 78.8134 380.99C78.9267 380.779 78.9833 380.549 78.9833 380.298V379.692C78.7487 379.627 78.4777 379.566 78.1704 379.51C77.8711 379.453 77.5273 379.425 77.139 379.425ZM82.7944 379.012L82.7944 382.604H81.8601L81.8601 376.331H82.7944V377.423C83.0047 377.083 83.2797 376.796 83.6195 376.561C83.9592 376.318 84.4 376.197 84.942 376.197C85.3222 376.197 85.6579 376.258 85.9491 376.379C86.2484 376.5 86.4991 376.674 86.7013 376.901C86.9116 377.119 87.0694 377.382 87.1745 377.69C87.2878 377.997 87.3444 378.337 87.3444 378.709L87.3444 382.604H86.4101V378.939C86.4101 378.357 86.2605 377.896 85.9612 377.556C85.6619 377.216 85.2332 377.046 84.6751 377.046C84.4081 377.046 84.1574 377.095 83.9228 377.192C83.6963 377.281 83.4981 377.414 83.3283 377.592C83.1584 377.762 83.0249 377.969 82.9279 378.211C82.8389 378.454 82.7944 378.721 82.7944 379.012Z" fill="#D1E2FF"/>
<path d="M60.4725 397.561V399.114L54.9536 399.114L54.9536 401.763H59.8485V403.316H54.9536L54.9536 407.268H53.248L53.248 397.561H60.4725ZM71.1784 396.202H72.6344L66.3666 409.043H64.9106L71.1784 396.202ZM80.9168 398.948C80.473 398.948 80.0801 399.068 79.7381 399.308C79.4053 399.548 79.0494 399.914 78.6704 400.404L77.464 399.461C77.6951 399.137 77.9308 398.851 78.1712 398.601C78.4115 398.342 78.6704 398.129 78.9477 397.963C79.2343 397.787 79.544 397.653 79.8768 397.561C80.2188 397.468 80.6071 397.422 81.0416 397.422C81.5223 397.422 81.9614 397.492 82.3589 397.63C82.7564 397.769 83.0938 397.968 83.3712 398.227C83.6485 398.485 83.8611 398.795 84.009 399.156C84.1662 399.507 84.2448 399.9 84.2448 400.334C84.2448 400.723 84.1939 401.069 84.0922 401.374C83.9905 401.679 83.8334 401.975 83.6208 402.262C83.4174 402.548 83.1539 402.839 82.8304 403.135C82.5161 403.431 82.1463 403.755 81.721 404.106L79.7242 405.77H84.3418V407.268H77.3253V405.923L80.6672 403.08C81 402.803 81.2819 402.553 81.513 402.331C81.7441 402.1 81.929 401.883 82.0677 401.679C82.2156 401.476 82.3219 401.277 82.3866 401.083C82.4513 400.889 82.4837 400.681 82.4837 400.459C82.4837 399.978 82.3312 399.609 82.0261 399.35C81.7303 399.082 81.3605 398.948 80.9168 398.948ZM94.3991 402.4C94.3991 403.094 94.2974 403.75 94.094 404.369C93.8906 404.98 93.6041 405.511 93.2343 405.964C92.8645 406.417 92.4161 406.778 91.8892 407.046C91.3715 407.305 90.7937 407.434 90.1559 407.434C89.518 407.434 88.9402 407.305 88.4225 407.046C87.9049 406.787 87.4611 406.431 87.0913 405.978C86.7216 405.525 86.435 404.993 86.2316 404.383C86.0375 403.773 85.9404 403.121 85.9404 402.428C85.9404 401.735 86.0421 401.083 86.2455 400.473C86.4489 399.854 86.7354 399.317 87.1052 398.864C87.475 398.411 87.9187 398.055 88.4364 397.797C88.9633 397.529 89.5457 397.395 90.1836 397.395C90.8215 397.395 91.3993 397.524 91.9169 397.783C92.4346 398.042 92.8784 398.398 93.2481 398.851C93.6179 399.303 93.8999 399.835 94.094 400.445C94.2974 401.055 94.3991 401.707 94.3991 402.4ZM92.638 402.428C92.638 401.947 92.5779 401.494 92.4577 401.069C92.3468 400.644 92.1804 400.274 91.9585 399.96C91.7459 399.646 91.4871 399.396 91.182 399.211C90.8769 399.026 90.5349 398.934 90.1559 398.934C89.7769 398.934 89.4348 399.026 89.1297 399.211C88.8339 399.387 88.5797 399.632 88.3671 399.946C88.1545 400.251 87.9881 400.616 87.8679 401.041C87.7569 401.467 87.7015 401.92 87.7015 402.4C87.7015 402.89 87.7569 403.348 87.8679 403.773C87.9881 404.189 88.1545 404.559 88.3671 404.883C88.5889 405.197 88.8524 405.446 89.1575 405.631C89.4625 405.807 89.8046 405.895 90.1836 405.895C90.5626 405.895 90.9001 405.807 91.1959 405.631C91.5009 405.446 91.7598 405.197 91.9724 404.883C92.185 404.568 92.3468 404.203 92.4577 403.787C92.5779 403.362 92.638 402.909 92.638 402.428ZM97.7007 407.268H95.8565V405.368H97.7007V407.268ZM107.616 402.4C107.616 403.094 107.514 403.75 107.311 404.369C107.107 404.98 106.821 405.511 106.451 405.964C106.081 406.417 105.633 406.778 105.106 407.046C104.588 407.305 104.01 407.434 103.373 407.434C102.735 407.434 102.157 407.305 101.639 407.046C101.122 406.787 100.678 406.431 100.308 405.978C99.9382 405.525 99.6517 404.993 99.4483 404.383C99.2541 403.773 99.1571 403.121 99.1571 402.428C99.1571 401.735 99.2588 401.083 99.4621 400.473C99.6655 399.854 99.9521 399.317 100.322 398.864C100.692 398.411 101.135 398.055 101.653 397.797C102.18 397.529 102.762 397.395 103.4 397.395C104.038 397.395 104.616 397.524 105.134 397.783C105.651 398.042 106.095 398.398 106.465 398.851C106.835 399.303 107.117 399.835 107.311 400.445C107.514 401.055 107.616 401.707 107.616 402.4ZM105.855 402.428C105.855 401.947 105.795 401.494 105.674 401.069C105.563 400.644 105.397 400.274 105.175 399.96C104.963 399.646 104.704 399.396 104.399 399.211C104.094 399.026 103.752 398.934 103.373 398.934C102.994 398.934 102.651 399.026 102.346 399.211C102.051 399.387 101.796 399.632 101.584 399.946C101.371 400.251 101.205 400.616 101.085 401.041C100.974 401.467 100.918 401.92 100.918 402.4C100.918 402.89 100.974 403.348 101.085 403.773C101.205 404.189 101.371 404.559 101.584 404.883C101.806 405.197 102.069 405.446 102.374 405.631C102.679 405.807 103.021 405.895 103.4 405.895C103.779 405.895 104.117 405.807 104.413 405.631C104.718 405.446 104.976 405.197 105.189 404.883C105.402 404.568 105.563 404.203 105.674 403.787C105.795 403.362 105.855 402.909 105.855 402.428ZM112.537 398.948C112.093 398.948 111.7 399.068 111.358 399.308C111.025 399.548 110.669 399.914 110.29 400.404L109.084 399.461C109.315 399.137 109.551 398.851 109.791 398.601C110.031 398.342 110.29 398.129 110.567 397.963C110.854 397.787 111.164 397.653 111.497 397.561C111.839 397.468 112.227 397.422 112.661 397.422C113.142 397.422 113.581 397.492 113.979 397.63C114.376 397.769 114.714 397.968 114.991 398.227C115.268 398.485 115.481 398.795 115.629 399.156C115.786 399.507 115.865 399.9 115.865 400.334C115.865 400.723 115.814 401.069 115.712 401.374C115.61 401.679 115.453 401.975 115.241 402.262C115.037 402.548 114.774 402.839 114.45 403.135C114.136 403.431 113.766 403.755 113.341 404.106L111.344 405.77H115.962V407.268H108.945V405.923L112.287 403.08C112.62 402.803 112.902 402.553 113.133 402.331C113.364 402.1 113.549 401.883 113.687 401.679C113.835 401.476 113.942 401.277 114.006 401.083C114.071 400.889 114.103 400.681 114.103 400.459C114.103 399.978 113.951 399.609 113.646 399.35C113.35 399.082 112.98 398.948 112.537 398.948ZM119.557 407.268H117.713L117.713 405.368H119.557L119.557 407.268ZM124.765 398.948C124.321 398.948 123.928 399.068 123.586 399.308C123.253 399.548 122.897 399.914 122.518 400.404L121.312 399.461C121.543 399.137 121.779 398.851 122.019 398.601C122.259 398.342 122.518 398.129 122.796 397.963C123.082 397.787 123.392 397.653 123.725 397.561C124.067 397.468 124.455 397.422 124.889 397.422C125.37 397.422 125.809 397.492 126.207 397.63C126.604 397.769 126.942 397.968 127.219 398.227C127.496 398.485 127.709 398.795 127.857 399.156C128.014 399.507 128.093 399.9 128.093 400.334C128.093 400.723 128.042 401.069 127.94 401.374C127.838 401.679 127.681 401.975 127.469 402.262C127.265 402.548 127.002 402.839 126.678 403.135C126.364 403.431 125.994 403.755 125.569 404.106L123.572 405.77H128.19V407.268H121.173L121.173 405.923L124.515 403.08C124.848 402.803 125.13 402.553 125.361 402.331C125.592 402.1 125.777 401.883 125.916 401.679C126.064 401.476 126.17 401.277 126.235 401.083C126.299 400.889 126.332 400.681 126.332 400.459C126.332 399.978 126.179 399.609 125.874 399.35C125.578 399.082 125.208 398.948 124.765 398.948ZM138.247 402.4C138.247 403.094 138.145 403.75 137.942 404.369C137.739 404.98 137.452 405.511 137.082 405.964C136.712 406.417 136.264 406.778 135.737 407.046C135.219 407.305 134.642 407.434 134.004 407.434C133.366 407.434 132.788 407.305 132.27 407.046C131.753 406.787 131.309 406.431 130.939 405.978C130.569 405.525 130.283 404.993 130.08 404.383C129.885 403.773 129.788 403.121 129.788 402.428C129.788 401.735 129.89 401.083 130.093 400.473C130.297 399.854 130.583 399.317 130.953 398.864C131.323 398.411 131.767 398.055 132.284 397.797C132.811 397.529 133.394 397.395 134.032 397.395C134.669 397.395 135.247 397.524 135.765 397.783C136.283 398.042 136.726 398.398 137.096 398.851C137.466 399.303 137.748 399.835 137.942 400.445C138.145 401.055 138.247 401.707 138.247 402.4ZM136.486 402.428C136.486 401.947 136.426 401.494 136.306 401.069C136.195 400.644 136.028 400.274 135.806 399.96C135.594 399.646 135.335 399.396 135.03 399.211C134.725 399.026 134.383 398.934 134.004 398.934C133.625 398.934 133.283 399.026 132.978 399.211C132.682 399.387 132.428 399.632 132.215 399.946C132.002 400.251 131.836 400.616 131.716 401.041C131.605 401.467 131.549 401.92 131.549 402.4C131.549 402.89 131.605 403.348 131.716 403.773C131.836 404.189 132.002 404.559 132.215 404.883C132.437 405.197 132.7 405.446 133.005 405.631C133.31 405.807 133.653 405.895 134.032 405.895C134.411 405.895 134.748 405.807 135.044 405.631C135.349 405.446 135.608 405.197 135.82 404.883C136.033 404.568 136.195 404.203 136.306 403.787C136.426 403.362 136.486 402.909 136.486 402.428ZM148.281 402.4C148.281 403.094 148.18 403.75 147.976 404.369C147.773 404.98 147.486 405.511 147.117 405.964C146.747 406.417 146.298 406.778 145.772 407.046C145.254 407.305 144.676 407.434 144.038 407.434C143.4 407.434 142.823 407.305 142.305 407.046C141.787 406.787 141.343 406.431 140.974 405.978C140.604 405.525 140.317 404.993 140.114 404.383C139.92 403.773 139.823 403.121 139.823 402.428C139.823 401.735 139.924 401.083 140.128 400.473C140.331 399.854 140.618 399.317 140.988 398.864C141.357 398.411 141.801 398.055 142.319 397.797C142.846 397.529 143.428 397.395 144.066 397.395C144.704 397.395 145.282 397.524 145.799 397.783C146.317 398.042 146.761 398.398 147.13 398.851C147.5 399.303 147.782 399.835 147.976 400.445C148.18 401.055 148.281 401.707 148.281 402.4ZM146.52 402.428C146.52 401.947 146.46 401.494 146.34 401.069C146.229 400.644 146.063 400.274 145.841 399.96C145.628 399.646 145.369 399.396 145.064 399.211C144.759 399.026 144.417 398.934 144.038 398.934C143.659 398.934 143.317 399.026 143.012 399.211C142.716 399.387 142.462 399.632 142.249 399.946C142.037 400.251 141.87 400.616 141.75 401.041C141.639 401.467 141.584 401.92 141.584 402.4C141.584 402.89 141.639 403.348 141.75 403.773C141.87 404.189 142.037 404.559 142.249 404.883C142.471 405.197 142.735 405.446 143.04 405.631C143.345 405.807 143.687 405.895 144.066 405.895C144.445 405.895 144.782 405.807 145.078 405.631C145.383 405.446 145.642 405.197 145.855 404.883C146.067 404.568 146.229 404.203 146.34 403.787C146.46 403.362 146.52 402.909 146.52 402.428ZM158.316 402.4C158.316 403.094 158.214 403.75 158.011 404.369C157.807 404.98 157.521 405.511 157.151 405.964C156.781 406.417 156.333 406.778 155.806 407.046C155.288 407.305 154.71 407.434 154.073 407.434C153.435 407.434 152.857 407.305 152.339 407.046C151.822 406.787 151.378 406.431 151.008 405.978C150.638 405.525 150.352 404.993 150.148 404.383C149.954 403.773 149.857 403.121 149.857 402.428C149.857 401.735 149.959 401.083 150.162 400.473C150.366 399.854 150.652 399.317 151.022 398.864C151.392 398.411 151.835 398.055 152.353 397.797C152.88 397.529 153.462 397.395 154.1 397.395C154.738 397.395 155.316 397.524 155.834 397.783C156.351 398.042 156.795 398.398 157.165 398.851C157.535 399.303 157.817 399.835 158.011 400.445C158.214 401.055 158.316 401.707 158.316 402.4ZM156.555 402.428C156.555 401.947 156.495 401.494 156.374 401.069C156.263 400.644 156.097 400.274 155.875 399.96C155.663 399.646 155.404 399.396 155.099 399.211C154.794 399.026 154.452 398.934 154.073 398.934C153.694 398.934 153.351 399.026 153.046 399.211C152.751 399.387 152.496 399.632 152.284 399.946C152.071 400.251 151.905 400.616 151.785 401.041C151.674 401.467 151.618 401.92 151.618 402.4C151.618 402.89 151.674 403.348 151.785 403.773C151.905 404.189 152.071 404.559 152.284 404.883C152.506 405.197 152.769 405.446 153.074 405.631C153.379 405.807 153.721 405.895 154.1 405.895C154.479 405.895 154.817 405.807 155.113 405.631C155.418 405.446 155.676 405.197 155.889 404.883C156.102 404.568 156.263 404.203 156.374 403.787C156.495 403.362 156.555 402.909 156.555 402.428Z" fill="#D1E2FF"/>
<path d="M58.3093 120.575L52.9949 120.575V119.714L59.6197 119.714V120.357L54.1112 127.346L59.6197 127.346V128.207H52.8129V127.564L58.3093 120.575ZM66.6036 120.575L61.2892 120.575V119.714L67.914 119.714V120.357L62.4055 127.346H67.914V128.207H61.1072V127.564L66.6036 120.575ZM69.0468 120.369L71.1216 119.653H71.8253L71.8253 128.207H70.8789L70.8789 120.648L69.2773 121.145L69.0468 120.369ZM80.9787 123.948C80.9787 124.547 80.8937 125.113 80.7239 125.647C80.554 126.181 80.3113 126.65 79.9959 127.054C79.6885 127.451 79.3124 127.766 78.8675 128.001C78.4226 128.235 77.9292 128.353 77.3872 128.353C76.8372 128.353 76.3397 128.239 75.8948 128.013C75.458 127.778 75.0819 127.463 74.7664 127.066C74.459 126.662 74.2204 126.197 74.0505 125.671C73.8888 125.137 73.8079 124.571 73.8079 123.972C73.8079 123.374 73.8928 122.808 74.0627 122.274C74.2325 121.74 74.4712 121.275 74.7785 120.878C75.094 120.474 75.4742 120.155 75.9191 119.92C76.364 119.685 76.8614 119.568 77.4115 119.568C77.9534 119.568 78.4428 119.685 78.8796 119.92C79.3245 120.146 79.7006 120.462 80.008 120.866C80.3235 121.263 80.5621 121.728 80.7239 122.262C80.8937 122.787 80.9787 123.35 80.9787 123.948ZM79.9837 123.972C79.9837 123.503 79.9231 123.058 79.8017 122.638C79.6804 122.209 79.5065 121.833 79.28 121.509C79.0535 121.186 78.7785 120.927 78.4549 120.733C78.1395 120.539 77.7836 120.442 77.3872 120.442C76.9908 120.442 76.6309 120.539 76.3073 120.733C75.9919 120.919 75.7209 121.174 75.4944 121.497C75.276 121.813 75.1061 122.185 74.9848 122.614C74.8635 123.034 74.8028 123.479 74.8028 123.948C74.8028 124.417 74.8635 124.866 74.9848 125.295C75.1061 125.724 75.28 126.1 75.5065 126.423C75.733 126.747 76.008 127.006 76.3316 127.2C76.6552 127.386 77.0151 127.479 77.4115 127.479C77.8078 127.479 78.1637 127.386 78.4792 127.2C78.8028 127.006 79.0737 126.751 79.2921 126.436C79.5186 126.112 79.6885 125.74 79.8017 125.319C79.9231 124.891 79.9837 124.442 79.9837 123.972ZM89.6521 123.948C89.6521 124.547 89.5672 125.113 89.3973 125.647C89.2274 126.181 88.9848 126.65 88.6693 127.054C88.3619 127.451 87.9858 127.766 87.5409 128.001C87.096 128.235 86.6026 128.353 86.0606 128.353C85.5106 128.353 85.0131 128.239 84.5682 128.013C84.1314 127.778 83.7553 127.463 83.4398 127.066C83.1325 126.662 82.8938 126.197 82.724 125.671C82.5622 125.137 82.4813 124.571 82.4813 123.972C82.4813 123.374 82.5662 122.808 82.7361 122.274C82.906 121.74 83.1446 121.275 83.452 120.878C83.7674 120.474 84.1476 120.155 84.5925 119.92C85.0374 119.685 85.5349 119.568 86.0849 119.568C86.6269 119.568 87.1162 119.685 87.553 119.92C87.9979 120.146 88.3741 120.462 88.6814 120.866C88.9969 121.263 89.2355 121.728 89.3973 122.262C89.5672 122.787 89.6521 123.35 89.6521 123.948ZM88.6572 123.972C88.6572 123.503 88.5965 123.058 88.4752 122.638C88.3538 122.209 88.1799 121.833 87.9534 121.509C87.727 121.186 87.4519 120.927 87.1284 120.733C86.8129 120.539 86.457 120.442 86.0606 120.442C85.6643 120.442 85.3043 120.539 84.9808 120.733C84.6653 120.919 84.3943 121.174 84.1678 121.497C83.9494 121.813 83.7796 122.185 83.6582 122.614C83.5369 123.034 83.4762 123.479 83.4762 123.948C83.4762 124.417 83.5369 124.866 83.6582 125.295C83.7796 125.724 83.9535 126.1 84.18 126.423C84.4065 126.747 84.6815 127.006 85.005 127.2C85.3286 127.386 85.6886 127.479 86.0849 127.479C86.4813 127.479 86.8372 127.386 87.1526 127.2C87.4762 127.006 87.7472 126.751 87.9656 126.436C88.1921 126.112 88.3619 125.74 88.4752 125.319C88.5965 124.891 88.6572 124.442 88.6572 123.972ZM98.3255 123.948C98.3255 124.547 98.2406 125.113 98.0707 125.647C97.9009 126.181 97.6582 126.65 97.3427 127.054C97.0354 127.451 96.6592 127.766 96.2143 128.001C95.7695 128.235 95.276 128.353 94.7341 128.353C94.184 128.353 93.6866 128.239 93.2417 128.013C92.8049 127.778 92.4287 127.463 92.1133 127.066C91.8059 126.662 91.5673 126.197 91.3974 125.671C91.2356 125.137 91.1547 124.571 91.1547 123.972C91.1547 123.374 91.2397 122.808 91.4095 122.274C91.5794 121.74 91.818 121.275 92.1254 120.878C92.4409 120.474 92.8211 120.155 93.2659 119.92C93.7108 119.685 94.2083 119.568 94.7583 119.568C95.3003 119.568 95.7897 119.685 96.2265 119.92C96.6714 120.146 97.0475 120.462 97.3549 120.866C97.6703 121.263 97.909 121.728 98.0707 122.262C98.2406 122.787 98.3255 123.35 98.3255 123.948ZM97.3306 123.972C97.3306 123.503 97.2699 123.058 97.1486 122.638C97.0273 122.209 96.8534 121.833 96.6269 121.509C96.4004 121.186 96.1254 120.927 95.8018 120.733C95.4863 120.539 95.1304 120.442 94.7341 120.442C94.3377 120.442 93.9778 120.539 93.6542 120.733C93.3387 120.919 93.0678 121.174 92.8413 121.497C92.6229 121.813 92.453 122.185 92.3317 122.614C92.2103 123.034 92.1497 123.479 92.1497 123.948C92.1497 124.417 92.2103 124.866 92.3317 125.295C92.453 125.724 92.6269 126.1 92.8534 126.423C93.0799 126.747 93.3549 127.006 93.6785 127.2C94.002 127.386 94.362 127.479 94.7583 127.479C95.1547 127.479 95.5106 127.386 95.8261 127.2C96.1496 127.006 96.4206 126.751 96.639 126.436C96.8655 126.112 97.0354 125.74 97.1486 125.319C97.2699 124.891 97.3306 124.442 97.3306 123.972ZM106.999 123.948C106.999 124.547 106.914 125.113 106.744 125.647C106.574 126.181 106.332 126.65 106.016 127.054C105.709 127.451 105.333 127.766 104.888 128.001C104.443 128.235 103.949 128.353 103.408 128.353C102.857 128.353 102.36 128.239 101.915 128.013C101.478 127.778 101.102 127.463 100.787 127.066C100.479 126.662 100.241 126.197 100.071 125.671C99.9091 125.137 99.8282 124.571 99.8282 123.972C99.8282 123.374 99.9131 122.808 100.083 122.274C100.253 121.74 100.491 121.275 100.799 120.878C101.114 120.474 101.494 120.155 101.939 119.92C102.384 119.685 102.882 119.568 103.432 119.568C103.974 119.568 104.463 119.685 104.9 119.92C105.345 120.146 105.721 120.462 106.028 120.866C106.344 121.263 106.582 121.728 106.744 122.262C106.914 122.787 106.999 123.35 106.999 123.948ZM106.004 123.972C106.004 123.503 105.943 123.058 105.822 122.638C105.701 122.209 105.527 121.833 105.3 121.509C105.074 121.186 104.799 120.927 104.475 120.733C104.16 120.539 103.804 120.442 103.408 120.442C103.011 120.442 102.651 120.539 102.328 120.733C102.012 120.919 101.741 121.174 101.515 121.497C101.296 121.813 101.126 122.185 101.005 122.614C100.884 123.034 100.823 123.479 100.823 123.948C100.823 124.417 100.884 124.866 101.005 125.295C101.126 125.724 101.3 126.1 101.527 126.423C101.753 126.747 102.028 127.006 102.352 127.2C102.675 127.386 103.035 127.479 103.432 127.479C103.828 127.479 104.184 127.386 104.5 127.2C104.823 127.006 105.094 126.751 105.312 126.436C105.539 126.112 105.709 125.74 105.822 125.319C105.943 124.891 106.004 124.442 106.004 123.972ZM115.672 123.948C115.672 124.547 115.587 125.113 115.418 125.647C115.248 126.181 115.005 126.65 114.69 127.054C114.382 127.451 114.006 127.766 113.561 128.001C113.116 128.235 112.623 128.353 112.081 128.353C111.531 128.353 111.033 128.239 110.589 128.013C110.152 127.778 109.776 127.463 109.46 127.066C109.153 126.662 108.914 126.197 108.744 125.671C108.583 125.137 108.502 124.571 108.502 123.972C108.502 123.374 108.587 122.808 108.756 122.274C108.926 121.74 109.165 121.275 109.472 120.878C109.788 120.474 110.168 120.155 110.613 119.92C111.058 119.685 111.555 119.568 112.105 119.568C112.647 119.568 113.137 119.685 113.573 119.92C114.018 120.146 114.394 120.462 114.702 120.866C115.017 121.263 115.256 121.728 115.418 122.262C115.587 122.787 115.672 123.35 115.672 123.948ZM114.677 123.972C114.677 123.503 114.617 123.058 114.495 122.638C114.374 122.209 114.2 121.833 113.974 121.509C113.747 121.186 113.472 120.927 113.149 120.733C112.833 120.539 112.477 120.442 112.081 120.442C111.685 120.442 111.325 120.539 111.001 120.733C110.686 120.919 110.415 121.174 110.188 121.497C109.97 121.813 109.8 122.185 109.679 122.614C109.557 123.034 109.497 123.479 109.497 123.948C109.497 124.417 109.557 124.866 109.679 125.295C109.8 125.724 109.974 126.1 110.2 126.423C110.427 126.747 110.702 127.006 111.025 127.2C111.349 127.386 111.709 127.479 112.105 127.479C112.502 127.479 112.857 127.386 113.173 127.2C113.497 127.006 113.767 126.751 113.986 126.436C114.212 126.112 114.382 125.74 114.495 125.319C114.617 124.891 114.677 124.442 114.677 123.972ZM116.703 120.369L118.778 119.653H119.482L119.482 128.207H118.535V120.648L116.934 121.145L116.703 120.369Z" fill="#D1E2FF"/>
<path d="M68.224 154.976C67.4128 155.667 66.4439 156.261 65.3172 156.756C64.2056 157.237 62.9287 157.477 61.4865 157.477C60.2547 157.477 59.128 157.275 58.1065 156.869C57.1 156.463 56.2288 155.9 55.4927 155.179C54.7716 154.458 54.2083 153.602 53.8027 152.61C53.3971 151.619 53.1943 150.537 53.1943 149.365V149.32C53.1943 148.194 53.3971 147.142 53.8027 146.166C54.2233 145.174 54.8016 144.31 55.5377 143.574C56.2738 142.823 57.1451 142.237 58.1516 141.817C59.1581 141.381 60.2622 141.163 61.464 141.163C62.17 141.163 62.8085 141.216 63.3793 141.321C63.9652 141.411 64.506 141.546 65.0017 141.727C65.4975 141.907 65.9632 142.132 66.3988 142.403C66.8344 142.673 67.2551 142.981 67.6607 143.326L65.4749 145.963C65.1745 145.708 64.874 145.482 64.5736 145.287C64.2732 145.092 63.9577 144.926 63.6272 144.791C63.3117 144.656 62.9662 144.551 62.5907 144.476C62.2151 144.401 61.802 144.363 61.3513 144.363C60.7204 144.363 60.127 144.498 59.5712 144.769C59.0304 145.024 58.5497 145.377 58.1291 145.828C57.7235 146.263 57.4005 146.782 57.1601 147.382C56.9348 147.968 56.8221 148.599 56.8221 149.275V149.32C56.8221 150.041 56.9348 150.71 57.1601 151.326C57.4005 151.927 57.731 152.452 58.1516 152.903C58.5872 153.354 59.0905 153.707 59.6613 153.962C60.2472 154.203 60.8932 154.323 61.5992 154.323C62.8911 154.323 63.9802 154.007 64.8665 153.376L64.8665 151.123L61.3739 151.123V148.126H68.224L68.224 154.976ZM86.9307 157.207H83.3029L81.8607 153.669H75.1909L73.7487 157.207H70.211L76.971 141.321H80.1707L86.9307 157.207ZM80.6214 150.605L78.5258 145.49L76.4302 150.605L80.6214 150.605ZM92.9931 157.207H89.5229L89.5229 141.434H92.9931L92.9931 157.207ZM112.708 157.207L109.261 157.207L109.261 146.909L104.822 153.647H104.732L100.338 146.977L100.338 157.207H96.935L96.935 141.434H100.676L104.822 148.104L108.968 141.434H112.708L112.708 157.207ZM129.995 150.334C129.995 151.536 129.83 152.58 129.499 153.467C129.184 154.353 128.726 155.096 128.125 155.697C127.524 156.283 126.795 156.726 125.939 157.027C125.083 157.312 124.129 157.455 123.077 157.455C120.959 157.455 119.292 156.869 118.075 155.697C116.858 154.526 116.25 152.775 116.25 150.447L116.25 141.434H119.72L119.72 150.357C119.72 151.649 120.02 152.625 120.621 153.286C121.222 153.932 122.056 154.255 123.122 154.255C124.189 154.255 125.023 153.94 125.624 153.309C126.225 152.678 126.525 151.731 126.525 150.47L126.525 141.434H129.995L129.995 150.334ZM151.687 152.543C151.687 153.324 151.544 154.022 151.259 154.638C150.974 155.239 150.575 155.75 150.065 156.171C149.554 156.576 148.946 156.892 148.24 157.117C147.533 157.327 146.752 157.432 145.896 157.432C144.694 157.432 143.515 157.23 142.358 156.824C141.202 156.403 140.15 155.765 139.204 154.909L141.254 152.452C141.975 153.038 142.711 153.504 143.462 153.85C144.229 154.195 145.062 154.368 145.964 154.368C146.685 154.368 147.241 154.24 147.631 153.985C148.037 153.714 148.24 153.346 148.24 152.881V152.836C148.24 152.61 148.194 152.415 148.104 152.25C148.029 152.069 147.871 151.904 147.631 151.754C147.406 151.604 147.083 151.454 146.662 151.303C146.257 151.153 145.723 150.995 145.062 150.83C144.266 150.635 143.545 150.417 142.899 150.177C142.253 149.936 141.705 149.643 141.254 149.298C140.804 148.937 140.451 148.494 140.195 147.968C139.955 147.443 139.835 146.789 139.835 146.008V145.963C139.835 145.242 139.97 144.596 140.24 144.025C140.511 143.439 140.886 142.936 141.367 142.515C141.863 142.095 142.448 141.772 143.124 141.546C143.8 141.321 144.544 141.208 145.355 141.208C146.512 141.208 147.571 141.381 148.532 141.727C149.509 142.072 150.403 142.568 151.214 143.214L149.411 145.828C148.705 145.347 148.014 144.971 147.338 144.701C146.662 144.416 145.986 144.273 145.31 144.273C144.634 144.273 144.123 144.408 143.778 144.678C143.447 144.934 143.282 145.257 143.282 145.647V145.692C143.282 145.948 143.327 146.173 143.417 146.368C143.523 146.549 143.703 146.714 143.958 146.864C144.214 147.014 144.559 147.157 144.995 147.292C145.445 147.428 146.009 147.585 146.685 147.766C147.481 147.976 148.187 148.216 148.803 148.487C149.434 148.742 149.96 149.057 150.38 149.433C150.816 149.794 151.139 150.222 151.349 150.717C151.574 151.213 151.687 151.807 151.687 152.498V152.543ZM170.066 157.207H166.439L164.996 153.669H158.327L156.884 157.207H153.347L160.107 141.321L163.306 141.321L170.066 157.207ZM163.757 150.605L161.661 145.49L159.566 150.605H163.757ZM186.855 157.207H182.686L177.796 150.492L175.971 152.385L175.971 157.207H172.501V141.434H175.971V148.329L182.37 141.434H186.562L180.14 148.126L186.855 157.207ZM202.458 150.334C202.458 151.536 202.293 152.58 201.963 153.467C201.647 154.353 201.189 155.096 200.588 155.697C199.987 156.283 199.259 156.726 198.402 157.027C197.546 157.312 196.592 157.455 195.541 157.455C193.422 157.455 191.755 156.869 190.538 155.697C189.321 154.526 188.713 152.775 188.713 150.447L188.713 141.434H192.183L192.183 150.357C192.183 151.649 192.483 152.625 193.084 153.286C193.685 153.932 194.519 154.255 195.586 154.255C196.652 154.255 197.486 153.94 198.087 153.309C198.688 152.678 198.988 151.731 198.988 150.47L198.988 141.434L202.458 141.434L202.458 150.334ZM219.625 157.207H215.569L212.189 152.16L209.463 152.16V157.207H205.993L205.993 141.434H213.203C215.081 141.434 216.538 141.892 217.575 142.808C218.627 143.725 219.152 145.001 219.152 146.639V146.684C219.152 147.961 218.837 149.005 218.206 149.816C217.59 150.612 216.779 151.198 215.772 151.574L219.625 157.207ZM215.637 146.864V146.819C215.637 146.068 215.397 145.505 214.916 145.129C214.435 144.754 213.767 144.566 212.911 144.566H209.463V149.095H212.978C213.834 149.095 214.488 148.892 214.939 148.487C215.404 148.081 215.637 147.54 215.637 146.864ZM237.644 157.207H234.017L232.574 153.669H225.905L224.462 157.207H220.925L227.685 141.321L230.884 141.321L237.644 157.207ZM231.335 150.605L229.239 145.49L227.144 150.605H231.335Z" fill="#D1E2FF"/>
</g>
</g>
</g>
<defs>
<filter id="filter0_d_444_1606" x="0.000324249" y="0.000324249" width="329.333" height="474.933" filterUnits="userSpaceOnUse" color-interpolation-filters="sRGB">
<feFlood flood-opacity="0" result="BackgroundImageFix"/>
<feColorMatrix in="SourceAlpha" type="matrix" values="0 0 0 0 0 0 0 0 0 0 0 0 0 0 0 0 0 0 127 0" result="hardAlpha"/>
<feOffset/>
<feGaussianBlur stdDeviation="17.3333"/>
<feComposite in2="hardAlpha" operator="out"/>
<feColorMatrix type="matrix" values="0 0 0 0 0.12229 0 0 0 0 0.12901 0 0 0 0 0.134315 0 0 0 0.2 0"/>
<feBlend mode="normal" in2="BackgroundImageFix" result="effect1_dropShadow_444_1606"/>
<feBlend mode="normal" in="SourceGraphic" in2="effect1_dropShadow_444_1606" result="shape"/>
</filter>
<filter id="filter1_n_444_1606" x="34.667" y="34.667" width="260" height="405.6" filterUnits="userSpaceOnUse" color-interpolation-filters="sRGB">
<feFlood flood-opacity="0" result="BackgroundImageFix"/>
<feBlend mode="normal" in="SourceGraphic" in2="BackgroundImageFix" result="shape"/>
<feTurbulence type="fractalNoise" baseFrequency="0.98557692766189575 0.98557692766189575" stitchTiles="stitch" numOctaves="3" result="noise" seed="3614" />
<feColorMatrix in="noise" type="luminanceToAlpha" result="alphaNoise" />
<feComponentTransfer in="alphaNoise" result="coloredNoise1">
<feFuncA type="discrete" tableValues="1 1 1 1 1 1 1 1 1 1 1 1 1 1 1 1 1 1 1 1 1 1 1 1 1 1 1 1 1 1 1 1 1 1 1 1 1 1 1 1 1 1 1 1 1 1 1 1 1 1 1 0 0 0 0 0 0 0 0 0 0 0 0 0 0 0 0 0 0 0 0 0 0 0 0 0 0 0 0 0 0 0 0 0 0 0 0 0 0 0 0 0 0 0 0 0 0 0 0 0 "/>
</feComponentTransfer>
<feComposite operator="in" in2="shape" in="coloredNoise1" result="noise1Clipped" />
<feFlood flood-color="rgba(0, 0, 0, 0.25)" result="color1Flood" />
<feComposite operator="in" in2="noise1Clipped" in="color1Flood" result="color1" />
<feMerge result="effect1_noise_444_1606">
<feMergeNode in="shape" />
<feMergeNode in="color1" />
</feMerge>
</filter>
<filter id="filter2_n_444_1606" x="29.1162" y="205.537" width="267.229" height="74.8379" filterUnits="userSpaceOnUse" color-interpolation-filters="sRGB">
<feFlood flood-opacity="0" result="BackgroundImageFix"/>
<feBlend mode="normal" in="SourceGraphic" in2="BackgroundImageFix" result="shape"/>
<feTurbulence type="fractalNoise" baseFrequency="0.98557692766189575 0.98557692766189575" stitchTiles="stitch" numOctaves="3" result="noise" seed="3614" />
<feColorMatrix in="noise" type="luminanceToAlpha" result="alphaNoise" />
<feComponentTransfer in="alphaNoise" result="coloredNoise1">
<feFuncA type="discrete" tableValues="1 1 1 1 1 1 1 1 1 1 1 1 1 1 1 1 1 1 1 1 1 1 1 1 1 1 1 1 1 1 1 1 1 1 1 1 1 1 1 1 1 1 1 1 1 1 1 1 1 1 1 0 0 0 0 0 0 0 0 0 0 0 0 0 0 0 0 0 0 0 0 0 0 0 0 0 0 0 0 0 0 0 0 0 0 0 0 0 0 0 0 0 0 0 0 0 0 0 0 0 "/>
</feComponentTransfer>
<feComposite operator="in" in2="shape" in="coloredNoise1" result="noise1Clipped" />
<feFlood flood-color="rgba(0, 0, 0, 0.25)" result="color1Flood" />
<feComposite operator="in" in2="noise1Clipped" in="color1Flood" result="color1" />
<feMerge result="effect1_noise_444_1606">
<feMergeNode in="shape" />
<feMergeNode in="color1" />
</feMerge>
</filter>
<linearGradient id="paint0_linear_444_1606" x1="164.667" y1="34.667" x2="164.667" y2="440.267" gradientUnits="userSpaceOnUse">
<stop stop-color="#001C4B"/>
<stop offset="0.587658" stop-color="#003284"/>
<stop offset="1" stop-color="#2063D2"/>
</linearGradient>
<linearGradient id="paint1_linear_444_1606" x1="164.667" y1="34.667" x2="164.667" y2="440.267" gradientUnits="userSpaceOnUse">
<stop stop-color="#001C4B"/>
<stop offset="0.587658" stop-color="#003284"/>
<stop offset="1" stop-color="#2063D2"/>
</linearGradient>
<linearGradient id="paint2_linear_444_1606" x1="32.2092" y1="88.1722" x2="643.771" y2="883.97" gradientUnits="userSpaceOnUse">
<stop stop-color="white" stop-opacity="0.5"/>
<stop offset="0.461538" stop-color="#2063D2" stop-opacity="0"/>
</linearGradient>
<linearGradient id="paint3_linear_444_1606" x1="27.1543" y1="88.5909" x2="637.222" y2="882.445" gradientUnits="userSpaceOnUse">
<stop stop-color="white" stop-opacity="0.5"/>
<stop offset="0.461538" stop-color="#2063D2" stop-opacity="0"/>
</linearGradient>
<linearGradient id="paint4_linear_444_1606" x1="22.4147" y1="89.2655" x2="630.749" y2="880.864" gradientUnits="userSpaceOnUse">
<stop stop-color="white" stop-opacity="0.5"/>
<stop offset="0.461538" stop-color="#2063D2" stop-opacity="0"/>
</linearGradient>
<linearGradient id="paint5_linear_444_1606" x1="17.3842" y1="89.9132" x2="624.105" y2="879.412" gradientUnits="userSpaceOnUse">
<stop stop-color="white" stop-opacity="0.5"/>
<stop offset="0.461538" stop-color="#2063D2" stop-opacity="0"/>
</linearGradient>
<linearGradient id="paint6_linear_444_1606" x1="12.5626" y1="90.6496" x2="617.551" y2="877.894" gradientUnits="userSpaceOnUse">
<stop stop-color="white" stop-opacity="0.5"/>
<stop offset="0.461538" stop-color="#2063D2" stop-opacity="0"/>
</linearGradient>
<linearGradient id="paint7_linear_444_1606" x1="7.45687" y1="91.112" x2="610.951" y2="876.412" gradientUnits="userSpaceOnUse">
<stop stop-color="white" stop-opacity="0.5"/>
<stop offset="0.461538" stop-color="#2063D2" stop-opacity="0"/>
</linearGradient>
<linearGradient id="paint8_linear_444_1606" x1="2.66013" y1="91.9506" x2="604.302" y2="874.84" gradientUnits="userSpaceOnUse">
<stop stop-color="white" stop-opacity="0.5"/>
<stop offset="0.461538" stop-color="#2063D2" stop-opacity="0"/>
</linearGradient>
<linearGradient id="paint9_linear_444_1606" x1="-2.34836" y1="92.4575" x2="597.74" y2="873.325" gradientUnits="userSpaceOnUse">
<stop stop-color="white" stop-opacity="0.5"/>
<stop offset="0.461538" stop-color="#2063D2" stop-opacity="0"/>
</linearGradient>
<linearGradient id="paint10_linear_444_1606" x1="-7.36943" y1="92.9786" x2="591.165" y2="871.825" gradientUnits="userSpaceOnUse">
<stop stop-color="white" stop-opacity="0.5"/>
<stop offset="0.461538" stop-color="#2063D2" stop-opacity="0"/>
</linearGradient>
<linearGradient id="paint11_linear_444_1606" x1="-12.2389" y1="93.6285" x2="584.622" y2="870.297" gradientUnits="userSpaceOnUse">
<stop stop-color="white" stop-opacity="0.5"/>
<stop offset="0.461538" stop-color="#2063D2" stop-opacity="0"/>
</linearGradient>
<linearGradient id="paint12_linear_444_1606" x1="-17.0977" y1="94.2682" x2="578.09" y2="868.759" gradientUnits="userSpaceOnUse">
<stop stop-color="white" stop-opacity="0.5"/>
<stop offset="0.461538" stop-color="#2063D2" stop-opacity="0"/>
</linearGradient>
<linearGradient id="paint13_linear_444_1606" x1="-21.9941" y1="95.0636" x2="571.46" y2="867.3" gradientUnits="userSpaceOnUse">
<stop stop-color="white" stop-opacity="0.5"/>
<stop offset="0.461538" stop-color="#2063D2" stop-opacity="0"/>
</linearGradient>
<linearGradient id="paint14_linear_444_1606" x1="-27.0669" y1="95.4961" x2="564.834" y2="865.711" gradientUnits="userSpaceOnUse">
<stop stop-color="white" stop-opacity="0.5"/>
<stop offset="0.461538" stop-color="#2063D2" stop-opacity="0"/>
</linearGradient>
<linearGradient id="paint15_linear_444_1606" x1="-32.0698" y1="96.2475" x2="558.158" y2="864.285" gradientUnits="userSpaceOnUse">
<stop stop-color="white" stop-opacity="0.5"/>
<stop offset="0.461538" stop-color="#2063D2" stop-opacity="0"/>
</linearGradient>
<linearGradient id="paint16_linear_444_1606" x1="-37.0764" y1="96.8791" x2="551.537" y2="862.817" gradientUnits="userSpaceOnUse">
<stop stop-color="white" stop-opacity="0.5"/>
<stop offset="0.461538" stop-color="#2063D2" stop-opacity="0"/>
</linearGradient>
<linearGradient id="paint17_linear_444_1606" x1="-41.994" y1="97.5649" x2="544.946" y2="861.325" gradientUnits="userSpaceOnUse">
<stop stop-color="white" stop-opacity="0.5"/>
<stop offset="0.461538" stop-color="#2063D2" stop-opacity="0"/>
</linearGradient>
<linearGradient id="paint18_linear_444_1606" x1="-47.0027" y1="98.3227" x2="538.265" y2="859.906" gradientUnits="userSpaceOnUse">
<stop stop-color="white" stop-opacity="0.5"/>
<stop offset="0.461538" stop-color="#2063D2" stop-opacity="0"/>
</linearGradient>
<linearGradient id="paint19_linear_444_1606" x1="-51.9939" y1="99.1904" x2="531.54" y2="858.518" gradientUnits="userSpaceOnUse">
<stop stop-color="white" stop-opacity="0.5"/>
<stop offset="0.461538" stop-color="#2063D2" stop-opacity="0"/>
</linearGradient>
<linearGradient id="paint20_linear_444_1606" x1="-57.1945" y1="99.5963" x2="524.846" y2="856.98" gradientUnits="userSpaceOnUse">
<stop stop-color="white" stop-opacity="0.5"/>
<stop offset="0.461538" stop-color="#2063D2" stop-opacity="0"/>
</linearGradient>
<linearGradient id="paint21_linear_444_1606" x1="-62.1199" y1="100.535" x2="518.127" y2="855.586" gradientUnits="userSpaceOnUse">
<stop stop-color="white" stop-opacity="0.5"/>
<stop offset="0.461538" stop-color="#2063D2" stop-opacity="0"/>
</linearGradient>
<linearGradient id="paint22_linear_444_1606" x1="-59.9572" y1="105.682" x2="507.018" y2="843.463" gradientUnits="userSpaceOnUse">
<stop stop-color="white" stop-opacity="0.5"/>
<stop offset="0.461538" stop-color="#2063D2" stop-opacity="0"/>
</linearGradient>
<linearGradient id="paint23_linear_444_1606" x1="-57.9609" y1="110.706" x2="495.803" y2="831.296" gradientUnits="userSpaceOnUse">
<stop stop-color="white" stop-opacity="0.5"/>
<stop offset="0.461538" stop-color="#2063D2" stop-opacity="0"/>
</linearGradient>
<linearGradient id="paint24_linear_444_1606" x1="-55.8976" y1="115.803" x2="484.655" y2="819.201" gradientUnits="userSpaceOnUse">
<stop stop-color="white" stop-opacity="0.5"/>
<stop offset="0.461538" stop-color="#2063D2" stop-opacity="0"/>
</linearGradient>
<linearGradient id="paint25_linear_444_1606" x1="-53.9657" y1="120.63" x2="473.494" y2="806.991" gradientUnits="userSpaceOnUse">
<stop stop-color="white" stop-opacity="0.5"/>
<stop offset="0.461538" stop-color="#2063D2" stop-opacity="0"/>
</linearGradient>
<linearGradient id="paint26_linear_444_1606" x1="-51.7972" y1="126.018" x2="462.271" y2="794.953" gradientUnits="userSpaceOnUse">
<stop stop-color="white" stop-opacity="0.5"/>
<stop offset="0.461538" stop-color="#2063D2" stop-opacity="0"/>
</linearGradient>
<linearGradient id="paint27_linear_444_1606" x1="-49.8494" y1="130.959" x2="451.067" y2="782.781" gradientUnits="userSpaceOnUse">
<stop stop-color="white" stop-opacity="0.5"/>
<stop offset="0.461538" stop-color="#2063D2" stop-opacity="0"/>
</linearGradient>
<linearGradient id="paint28_linear_444_1606" x1="-53.9101" y1="128.255" x2="439.837" y2="770.747" gradientUnits="userSpaceOnUse">
<stop stop-color="white" stop-opacity="0.5"/>
<stop offset="0.461538" stop-color="#2063D2" stop-opacity="0"/>
</linearGradient>
<linearGradient id="paint29_linear_444_1606" x1="-58.9001" y1="124.404" x2="428.519" y2="758.662" gradientUnits="userSpaceOnUse">
<stop stop-color="white" stop-opacity="0.5"/>
<stop offset="0.461538" stop-color="#2063D2" stop-opacity="0"/>
</linearGradient>
<linearGradient id="paint30_linear_444_1606" x1="-63.9672" y1="120.517" x2="417.227" y2="746.675" gradientUnits="userSpaceOnUse">
<stop stop-color="white" stop-opacity="0.5"/>
<stop offset="0.461538" stop-color="#2063D2" stop-opacity="0"/>
</linearGradient>
<linearGradient id="paint31_linear_444_1606" x1="-69.1543" y1="116.424" x2="405.902" y2="734.595" gradientUnits="userSpaceOnUse">
<stop stop-color="white" stop-opacity="0.5"/>
<stop offset="0.461538" stop-color="#2063D2" stop-opacity="0"/>
</linearGradient>
<linearGradient id="paint32_linear_444_1606" x1="-74.3049" y1="112.458" x2="394.597" y2="722.62" gradientUnits="userSpaceOnUse">
<stop stop-color="white" stop-opacity="0.5"/>
<stop offset="0.461538" stop-color="#2063D2" stop-opacity="0"/>
</linearGradient>
<linearGradient id="paint33_linear_444_1606" x1="-79.4112" y1="108.392" x2="383.308" y2="710.509" gradientUnits="userSpaceOnUse">
<stop stop-color="white" stop-opacity="0.5"/>
<stop offset="0.461538" stop-color="#2063D2" stop-opacity="0"/>
</linearGradient>
<linearGradient id="paint34_linear_444_1606" x1="-84.704" y1="104.163" x2="372.042" y2="698.507" gradientUnits="userSpaceOnUse">
<stop stop-color="white" stop-opacity="0.5"/>
<stop offset="0.461538" stop-color="#2063D2" stop-opacity="0"/>
</linearGradient>
<linearGradient id="paint35_linear_444_1606" x1="-90.1645" y1="99.9092" x2="360.623" y2="686.5" gradientUnits="userSpaceOnUse">
<stop stop-color="white" stop-opacity="0.5"/>
<stop offset="0.461538" stop-color="#2063D2" stop-opacity="0"/>
</linearGradient>
<linearGradient id="paint36_linear_444_1606" x1="-95.6667" y1="95.5793" x2="349.274" y2="674.561" gradientUnits="userSpaceOnUse">
<stop stop-color="white" stop-opacity="0.5"/>
<stop offset="0.461538" stop-color="#2063D2" stop-opacity="0"/>
</linearGradient>
<linearGradient id="paint37_linear_444_1606" x1="222.716" y1="196.628" x2="222.716" y2="303.539" gradientUnits="userSpaceOnUse">
<stop stop-color="#2063D2"/>
<stop offset="1" stop-color="#023589"/>
</linearGradient>
<clipPath id="clip0_444_1606">
<rect x="34.667" y="34.667" width="260" height="405.6" rx="13.8667" fill="white"/>
</clipPath>
</defs>
</svg>
