<svg preserveAspectRatio="none" width="100%" height="100%" overflow="visible" style="display: block;" viewBox="0 0 725 616" fill="none" xmlns="http://www.w3.org/2000/svg">
<g id="Group" opacity="0.8">
<path id="Vector" d="M0.99957 152.064C28.8927 131.886 59.1597 115.137 91.4708 108.675C110.792 104.784 131.035 104.916 149.895 110.126C162.16 113.555 173.831 119.094 184.184 127.007C215.968 151.207 234.629 194.398 265.358 217.016C277.161 225.72 288.899 231.721 302.482 235.282C314.088 238.315 326.683 239.304 339.41 239.7C357.148 240.228 376.337 240.03 393.349 242.865C402.779 244.382 411.615 246.953 419.66 250.976C435.684 258.889 446.63 270.494 456.851 284.21C471.556 303.993 485.799 328.391 505.449 350.151C507.493 352.459 509.604 354.635 511.78 356.746C535.584 379.957 559.587 384.705 577.787 396.574C595.789 408.311 609.834 429.347 623.088 458.097C626.979 466.538 630.803 475.571 634.562 485.133C641.354 502.475 647.816 521.137 653.817 539.468C662.851 566.966 670.962 593.672 675.446 615.103" stroke="url(#paint0_linear_0_7)" stroke-opacity="0.3" stroke-width="0.627803" stroke-miterlimit="10"/>
<path id="Vector_2" d="M4.49552 146.46C32.3227 126.612 62.5237 110.39 94.703 104.324C113.958 100.631 134.004 100.895 152.665 106.104C164.864 109.467 176.404 115.006 186.823 122.787C218.606 146.592 237.729 188.794 267.667 211.874C279.338 220.842 290.812 227.502 304.264 231.524C315.804 234.953 328.464 236.338 341.323 236.931C359.193 237.723 378.514 237.525 395.79 239.965C405.286 241.284 414.254 243.592 422.496 247.152C438.916 254.274 450.521 264.759 461.468 277.485C477.294 295.817 492.987 319.16 512.836 341.184C514.88 343.492 516.99 345.734 519.166 347.91C542.773 371.583 565.391 378.375 581.678 391.498C598.032 404.62 609.835 426.446 621.968 455.856C625.529 464.494 629.09 473.792 632.717 483.485C639.245 501.158 645.773 520.083 652.169 538.546C661.797 566.242 671.16 592.75 677.293 613.521" stroke="url(#paint1_linear_0_7)" stroke-opacity="0.3" stroke-width="0.627803" stroke-miterlimit="10"/>
<path id="Vector_3" d="M7.98936 140.854C35.6846 121.401 65.9516 105.707 97.9331 99.9706C117.056 96.4757 136.97 96.8714 155.5 102.081C167.567 105.444 179.107 110.851 189.459 118.566C221.243 141.975 240.827 183.122 269.973 206.795C281.513 216.093 292.657 223.346 306.043 227.896C317.517 231.787 330.178 233.501 343.168 234.293C361.17 235.348 380.623 235.15 398.097 237.194C407.724 238.315 416.824 240.293 425.133 243.459C441.948 249.789 454.213 259.153 465.885 270.89C482.765 287.837 499.91 310.059 520.022 332.347C522.132 334.655 524.242 336.963 526.353 339.139C549.828 363.208 570.929 372.11 585.436 386.485C600.075 401.058 609.702 423.676 620.648 453.745C623.88 462.581 627.243 472.076 630.671 481.968C636.936 499.97 643.53 519.158 650.256 537.754C660.477 565.647 671.093 591.957 678.874 612.07" stroke="url(#paint2_linear_0_7)" stroke-opacity="0.3" stroke-width="0.627803" stroke-miterlimit="10"/>
<path id="Vector_4" d="M11.4851 135.183C39.1144 116.06 69.3155 100.893 101.099 95.5522C120.09 92.3211 139.807 92.8486 158.27 97.992C170.271 101.355 181.745 106.696 192.032 114.214C223.75 137.227 243.796 177.385 272.216 201.52C283.558 211.147 294.439 218.994 307.693 224.006C319.1 228.358 331.827 230.336 344.883 231.325C363.017 232.644 382.668 232.446 400.274 234.095C409.967 235.018 419.199 236.666 427.706 239.436C444.916 244.975 457.775 253.217 470.238 263.966C488.24 279.462 506.835 300.629 527.211 323.115C529.321 325.489 531.431 327.797 533.607 330.039C556.95 354.569 576.601 365.515 589.195 381.209C602.12 397.167 609.571 420.576 619.396 451.371C622.298 460.471 625.397 470.164 628.694 480.187C634.695 498.584 641.355 518.037 648.476 536.698C659.225 564.789 671.16 590.902 680.59 610.355" stroke="url(#paint3_linear_0_7)" stroke-opacity="0.3" stroke-width="0.627803" stroke-miterlimit="10"/>
<path id="Vector_5" d="M14.9797 129.578C42.5431 110.851 72.6782 96.2119 104.33 91.2004C123.189 88.1671 142.774 88.8265 161.039 93.9699C172.975 97.3329 184.317 102.608 194.603 109.994C226.321 132.611 246.829 171.846 274.458 196.377C285.668 206.334 296.219 214.774 309.407 220.313C320.749 225.061 333.541 227.435 346.664 228.622C364.863 230.204 384.712 229.941 402.516 231.259C412.341 231.985 421.639 233.37 430.343 235.677C447.949 240.425 461.467 247.547 474.655 257.306C493.778 271.418 513.759 291.398 534.398 314.213C536.508 316.587 538.684 318.895 540.794 321.203C564.006 346.129 582.14 359.251 592.954 376.132C604.098 393.606 609.439 417.741 618.077 449.129C620.649 458.427 623.485 468.318 626.65 478.539C632.387 497.266 639.113 516.982 646.564 535.776C657.906 564.064 671.094 589.979 682.172 608.772" stroke="url(#paint4_linear_0_7)" stroke-opacity="0.3" stroke-width="0.627803" stroke-miterlimit="10"/>
<path id="Vector_6" d="M18.4732 123.908C45.9047 105.51 76.0398 91.3988 107.56 86.7829C126.287 83.9475 145.674 84.7387 163.873 89.8822C175.743 93.2452 187.019 98.4545 197.24 105.708C228.891 127.864 249.927 166.176 276.765 191.234C287.843 201.521 298.064 210.554 311.186 216.555C322.462 221.764 335.254 224.468 348.575 225.787C366.906 227.633 386.952 227.369 404.954 228.293C414.911 228.82 424.341 229.875 433.177 231.787C451.245 235.744 465.356 241.745 479.27 250.515C499.514 263.175 520.945 282.101 541.782 305.18C543.958 307.554 546.068 309.928 548.178 312.302C571.192 337.623 587.809 352.921 596.843 370.989C606.273 389.914 609.438 414.774 616.955 446.887C619.197 456.449 621.835 466.538 624.802 476.891C630.275 495.948 637.067 515.928 644.914 534.853C656.849 563.34 671.291 589.057 684.017 607.19" stroke="url(#paint5_linear_0_7)" stroke-opacity="0.3" stroke-width="0.627803" stroke-miterlimit="10"/>
<path id="Vector_7" d="M22.0356 118.302C49.4012 100.3 79.4703 86.7162 110.792 82.43C129.388 79.8583 148.643 80.7155 166.644 85.8589C178.382 89.2219 189.592 94.3653 199.813 101.421C231.465 123.182 252.895 160.504 279.008 186.024C289.954 196.706 299.846 206.202 312.836 212.796C324.046 218.467 336.904 221.5 350.291 223.017C368.754 225.127 388.932 224.863 407.132 225.39C417.155 225.72 426.716 226.511 435.684 228.028C454.148 231.127 468.919 236.073 483.558 243.854C504.857 255.13 527.738 272.934 548.905 296.277C551.081 298.717 553.191 301.091 555.302 303.465C578.183 329.248 593.284 346.656 600.471 365.911C608.12 386.353 609.175 411.938 615.572 444.711C617.484 454.47 619.858 464.757 622.693 475.307C627.903 494.76 634.761 515.004 642.937 533.929C655.4 562.613 671.16 588.133 685.535 605.541" stroke="url(#paint6_linear_0_7)" stroke-opacity="0.3" stroke-width="0.627803" stroke-miterlimit="10"/>
<path id="Vector_8" d="M25.5304 112.697C52.83 95.0251 82.8333 82.0347 114.023 78.0782C132.553 75.7044 151.61 76.7594 169.48 81.8369C181.152 85.1999 192.296 90.2774 202.516 97.2012C234.102 118.566 255.995 154.966 281.382 180.88C292.13 191.893 301.758 201.982 314.682 209.037C325.826 215.104 338.751 218.467 352.203 220.247C370.798 222.621 391.174 222.292 409.506 222.489C419.661 222.621 429.354 223.083 438.454 224.204C457.313 226.512 472.743 230.336 488.108 237.062C510.528 246.888 534.794 263.637 556.225 287.244C558.401 289.683 560.577 292.123 562.621 294.563C585.371 320.742 598.889 340.326 604.362 360.834C610.231 382.726 609.176 409.037 614.385 442.469C615.968 452.426 618.078 462.977 620.781 473.659C625.727 493.441 632.651 513.949 641.223 533.006C654.279 561.888 671.292 587.21 687.316 603.959" stroke="url(#paint7_linear_0_7)" stroke-opacity="0.3" stroke-width="0.627803" stroke-miterlimit="10"/>
<path id="Vector_9" d="M29.0253 107.026C56.193 89.7495 86.1962 77.2207 117.255 73.6599C135.652 71.4838 154.511 72.6708 172.315 77.8142C183.921 81.1772 194.999 86.1887 205.154 92.9807C236.74 113.95 259.094 149.426 283.69 175.803C294.306 187.145 303.67 197.827 316.463 205.344C327.541 211.873 340.465 215.565 354.049 217.478C372.776 220.115 393.284 219.785 411.814 219.588C422.034 219.456 431.86 219.654 441.157 220.379C460.412 221.896 476.436 224.599 492.591 230.336C516.132 238.711 541.849 254.405 563.478 278.275C565.72 280.715 567.83 283.221 569.94 285.661C592.492 312.301 604.494 333.996 608.186 355.69C612.209 379.099 609.109 406.135 613.198 440.227C614.451 450.448 616.297 461.13 618.869 472.076C623.551 492.254 630.54 512.96 639.442 532.149C653.092 561.229 671.358 586.352 689.096 602.442" stroke="url(#paint8_linear_0_7)" stroke-opacity="0.3" stroke-width="0.627803" stroke-miterlimit="10"/>
<path id="Vector_10" d="M32.5201 101.422C59.6219 84.4751 89.5592 72.5397 120.486 69.3086C138.751 67.3304 157.479 68.6492 175.085 73.7926C186.559 77.1556 197.571 82.1012 207.726 88.6953C239.246 109.269 262.061 143.822 285.932 170.594C296.351 182.266 305.451 193.542 318.111 201.587C329.123 208.576 342.114 212.599 355.764 214.709C374.623 217.61 395.328 217.281 414.056 216.753C424.408 216.423 434.299 216.291 443.795 216.621C463.445 217.281 480.129 218.929 497.01 223.677C521.672 230.667 548.773 245.24 570.732 269.374C572.974 271.814 575.15 274.32 577.194 276.825C599.614 303.861 609.967 327.666 612.011 350.614C614.187 375.473 608.978 403.235 611.945 438.052C612.868 448.47 614.451 459.416 616.891 470.495C621.309 491.002 628.298 512.037 637.596 531.292C651.773 560.57 671.358 585.496 690.745 600.926" stroke="url(#paint9_linear_0_7)" stroke-opacity="0.3" stroke-width="0.627803" stroke-miterlimit="10"/>
<path id="Vector_11" d="M36.0159 95.8156C63.0518 79.2644 92.9232 67.7906 123.652 64.9552C141.786 63.2407 160.315 64.6255 177.855 69.7689C189.263 73.0659 200.209 77.9456 210.298 84.4737C241.818 104.586 265.03 138.282 288.175 165.515C298.462 177.583 307.232 189.386 319.827 197.892C330.773 205.344 343.829 209.63 357.611 212.004C376.536 215.169 397.439 214.839 416.364 213.916C426.783 213.389 436.872 213.191 446.434 212.861C466.48 212.268 483.822 213.257 501.429 217.015C527.146 222.554 555.764 236.072 577.92 260.471C580.162 262.976 582.338 265.482 584.382 268.054C606.671 295.551 615.441 321.466 615.705 345.601C616.034 371.911 608.781 400.464 610.627 435.874C611.155 446.491 612.539 457.635 614.847 468.911C619.002 489.748 626.057 511.047 635.751 530.434C650.521 559.909 671.359 584.637 692.394 599.408" stroke="url(#paint10_linear_0_7)" stroke-opacity="0.3" stroke-width="0.627803" stroke-miterlimit="10"/>
<path id="Vector_12" d="M39.5081 90.1457C66.4121 73.9241 96.2834 63.0438 126.88 60.5381C144.882 59.0214 163.28 60.604 180.622 65.6815C191.964 68.9786 202.844 73.7923 212.867 80.1226C244.387 99.839 267.928 132.612 290.414 160.241C300.503 172.638 309.01 185.035 321.538 194.069C332.419 201.916 345.475 206.598 359.389 209.103C378.446 212.532 399.547 212.137 418.604 210.884C429.154 210.159 439.309 209.433 449.069 208.972C469.51 207.982 487.512 207.389 505.844 210.224C532.682 214.313 562.685 226.776 585.105 251.438C587.413 253.943 589.523 256.515 591.567 259.087C613.724 286.98 620.845 315.005 619.395 340.458C617.878 368.219 608.58 397.497 609.305 433.633C609.503 444.513 610.69 455.855 612.8 467.263C616.691 488.496 623.813 509.993 633.836 529.512C649.2 559.119 671.224 583.715 693.974 597.827" stroke="url(#paint11_linear_0_7)" stroke-opacity="0.3" stroke-width="0.627803" stroke-miterlimit="10"/>
<path id="Vector_13" d="M43.0701 84.5404C69.9082 68.7145 99.7136 58.2958 130.178 56.1857C148.048 54.8669 166.314 56.5813 183.525 61.6588C194.735 64.9559 205.549 69.7036 215.572 75.9021C247.026 95.2228 271.029 127.072 292.789 155.097C302.68 167.89 310.923 180.814 323.32 190.31C334.134 198.619 347.257 203.63 361.236 206.334C380.425 210.026 401.658 209.631 420.913 207.982C431.529 207.059 441.882 206.004 451.773 205.147C472.611 203.3 491.272 201.652 510.329 203.498C538.288 206.202 569.676 217.478 592.426 242.469C594.734 244.975 596.91 247.613 598.954 250.25C620.912 278.539 626.451 308.674 623.352 335.38C619.923 364.592 608.581 394.662 608.186 431.457C608.054 442.535 608.977 454.075 610.955 465.68C614.582 487.243 621.77 509.069 632.188 528.654C648.08 558.459 671.423 582.858 695.822 596.31" stroke="url(#paint12_linear_0_7)" stroke-opacity="0.3" stroke-width="0.627803" stroke-miterlimit="10"/>
<path id="Vector_14" d="M46.5655 78.8694C73.3376 63.3733 103.077 53.548 133.344 51.7676C151.148 50.7126 169.15 52.493 186.295 57.5704C197.439 60.8675 208.187 65.5493 218.21 71.6159C249.664 90.541 273.996 121.467 295.098 149.954C304.791 163.076 312.77 176.594 325.101 186.617C335.849 195.387 349.038 200.729 363.083 203.564C382.404 207.455 403.835 207.125 423.221 205.081C433.97 203.96 444.388 202.575 454.477 201.322C475.71 198.684 494.965 195.915 514.814 196.772C543.828 198.025 576.732 208.246 599.68 233.501C601.988 236.073 604.164 238.711 606.208 241.348C628.035 270.099 631.925 302.278 627.111 330.237C621.836 360.834 608.45 391.694 606.933 429.149C606.472 440.491 607.131 452.162 608.978 463.966C612.341 485.858 619.594 507.948 630.342 527.665C646.828 557.668 671.424 581.868 697.471 594.661" stroke="url(#paint13_linear_0_7)" stroke-opacity="0.3" stroke-width="0.627803" stroke-miterlimit="10"/>
<path id="Vector_15" d="M50.06 73.2649C76.7002 58.0984 106.44 48.8667 136.575 47.416C154.247 46.5587 172.117 48.471 189.064 53.5485C200.142 56.8456 210.759 61.4614 220.782 67.3302C252.17 85.7937 276.963 115.863 297.339 144.745C306.835 158.263 314.55 172.308 326.815 182.793C337.497 192.025 350.686 197.63 364.929 200.729C384.382 204.883 405.944 204.488 425.595 202.114C436.475 200.795 446.96 199.081 457.181 197.432C478.809 193.937 498.724 190.047 519.297 189.981C549.432 189.717 583.722 198.949 606.933 224.468C609.307 227.04 611.417 229.677 613.461 232.447C635.156 261.593 637.398 295.882 630.936 325.094C623.814 357.142 608.384 388.793 605.68 426.907C604.889 438.447 605.284 450.382 606.999 462.318C610.098 484.606 617.418 506.894 628.562 526.742C645.64 556.943 671.489 580.946 699.185 593.079" stroke="url(#paint14_linear_0_7)" stroke-opacity="0.3" stroke-width="0.627803" stroke-miterlimit="10"/>
<path id="Vector_16" d="M53.5549 67.66C80.1292 52.8892 109.803 44.1191 139.806 43.064C157.346 42.4046 175.018 44.5147 191.899 49.5262C202.846 52.8233 213.462 57.3732 223.419 63.1101C254.807 81.178 279.931 110.324 299.647 139.602C309.011 153.449 316.396 168.088 328.529 179.101C339.146 188.794 352.4 194.729 366.709 198.026C386.294 202.444 408.055 202.048 427.837 199.279C438.783 197.762 449.466 195.718 459.818 193.674C481.843 189.321 502.416 184.376 523.715 183.321C554.971 181.606 590.711 189.783 614.187 215.566C616.56 218.138 618.736 220.841 620.715 223.611C642.277 253.218 642.937 289.552 634.694 320.083C625.66 353.515 608.186 385.958 604.427 424.797C603.306 436.535 603.504 448.668 605.021 460.801C607.856 483.419 615.242 506.037 626.715 525.885C644.322 556.284 671.489 580.089 700.833 591.562" stroke="url(#paint15_linear_0_7)" stroke-opacity="0.3" stroke-width="0.627803" stroke-miterlimit="10"/>
<path id="Vector_17" d="M57.0489 61.9884C83.4913 47.5473 113.165 39.3706 142.97 38.6452C160.379 38.1836 177.919 40.4256 194.602 45.4372C205.482 48.7342 216.033 53.2182 225.924 58.8232C257.246 76.4954 282.765 104.718 301.822 134.458C310.922 148.701 318.11 163.867 330.177 175.341C340.728 185.43 353.982 191.761 368.423 195.19C388.073 199.871 410.032 199.476 430.012 196.31C441.09 194.596 451.838 192.222 462.389 189.848C484.809 184.639 505.976 178.638 528.067 176.594C560.378 173.495 597.568 180.551 621.307 206.597C623.681 209.235 625.857 211.939 627.901 214.774C649.266 244.777 648.343 283.221 638.386 315.005C627.506 349.887 607.921 383.056 603.108 422.555C601.591 434.556 601.591 446.887 602.976 459.218C605.547 482.165 612.999 505.047 624.868 525.027C643.068 555.624 671.489 579.231 702.481 589.979" stroke="url(#paint16_linear_0_7)" stroke-opacity="0.3" stroke-width="0.627803" stroke-miterlimit="10"/>
<path id="Vector_18" d="M60.5422 56.3838C86.9187 42.3383 116.526 34.6232 146.2 34.2935C163.476 34.0957 180.885 36.4036 197.436 41.4151C208.25 44.7122 218.669 49.0643 228.56 54.5374C259.882 71.814 285.731 99.1796 304.129 129.249C313.031 143.822 319.955 159.582 331.89 171.517C342.375 182.068 355.695 188.662 370.202 192.354C389.984 197.3 412.14 196.838 432.252 193.344C443.396 191.431 454.277 188.794 465.025 185.958C487.841 179.957 509.667 172.836 532.483 169.737C565.915 165.187 604.491 171.187 628.493 197.498C630.867 200.135 633.109 202.905 635.087 205.74C656.32 236.205 653.749 276.627 642.143 309.73C629.416 345.997 607.788 380.023 601.787 420.181C599.941 432.38 599.677 444.909 600.93 457.438C603.238 480.781 610.755 503.86 622.954 523.972C641.747 554.767 671.421 578.176 704.062 588.265" stroke="url(#paint17_linear_0_7)" stroke-opacity="0.3" stroke-width="0.627803" stroke-miterlimit="10"/>
<path id="Vector_19" d="M64.1055 50.7121C90.416 36.9963 119.958 29.8747 149.499 29.8747C166.644 29.8747 183.855 32.3145 200.34 37.326C211.088 40.5571 221.441 44.9092 231.266 50.2505C262.522 67.1314 288.701 93.5738 306.505 124.105C315.209 139.073 321.87 155.295 333.739 167.824C344.158 178.836 357.544 185.76 372.183 189.65C392.097 194.859 414.385 194.398 434.761 190.573C446.037 188.463 456.983 185.496 467.863 182.265C491.009 175.341 513.56 167.23 537.101 163.142C571.655 157.207 611.681 162.087 635.947 188.661C638.387 191.299 640.563 194.134 642.541 196.97C663.643 227.83 659.422 270.362 646.102 304.717C631.463 342.304 607.79 377.187 600.735 418.07C598.559 430.467 598.097 443.26 599.152 455.92C601.196 479.593 608.78 502.936 621.374 523.18C640.695 554.173 671.687 577.384 705.977 586.814" stroke="url(#paint18_linear_0_7)" stroke-opacity="0.3" stroke-width="0.627803" stroke-miterlimit="10"/>
<path id="Vector_20" d="M67.6001 45.1075C109.011 24.0723 158.665 19.7201 203.109 33.304C247.553 46.8879 286.195 78.3418 308.681 118.962C317.187 134.326 323.584 151.075 335.387 164.065C359.785 191.035 401.262 194.926 436.936 187.606C472.545 180.287 505.779 163.736 541.453 156.35C577.061 148.965 618.538 152.789 643.068 179.627C671.621 210.949 666.214 260.603 649.794 299.574C633.309 338.612 607.592 374.22 599.349 415.763C592.162 452.03 599.481 491.002 619.396 522.192C639.31 553.382 671.555 576.395 707.493 585.165" stroke="url(#paint19_linear_0_7)" stroke-opacity="0.3" stroke-width="0.627803" stroke-miterlimit="10"/>
<path id="Vector_21" d="M78.6113 42.602C119.759 22.1602 168.819 18.3356 212.604 32.1833C256.389 46.0309 294.569 77.2211 316.395 117.643C324.901 133.403 330.836 150.877 342.244 164.329C365.389 191.629 405.482 196.245 440.035 190.244C474.522 184.244 507.097 169.275 542.375 162.813C578.115 156.219 619.79 159.318 644.98 185.43C674.126 215.829 670.367 265.153 654.541 304.454C638.715 343.755 612.339 379.561 603.173 420.049C595.26 455.064 601.92 492.518 620.384 522.719C638.847 552.921 669.246 575.67 703.865 584.77" stroke="url(#paint20_linear_0_7)" stroke-opacity="0.3" stroke-width="0.627803" stroke-miterlimit="10"/>
<path id="Vector_22" d="M89.6901 40.1629C130.508 20.3805 179.04 17.0175 222.232 31.063C265.423 45.1085 303.076 76.1667 324.177 116.391C332.683 132.612 338.09 150.68 349.103 164.594C370.929 192.157 409.702 197.564 443.069 192.883C476.501 188.267 508.416 174.815 543.299 169.21C579.171 163.473 621.11 165.715 646.959 191.168C676.764 220.578 674.522 269.704 659.422 309.203C644.321 348.701 617.285 384.771 607.13 424.138C598.426 457.834 604.493 493.904 621.505 523.116C638.584 552.328 667.071 574.814 700.371 584.243" stroke="url(#paint21_linear_0_7)" stroke-opacity="0.3" stroke-width="0.627803" stroke-miterlimit="10"/>
<path id="Vector_23" d="M100.703 37.656C141.257 18.5331 189.196 15.6976 231.794 29.875C274.392 44.0523 311.451 75.0446 331.893 115.071C340.399 131.754 345.279 150.415 355.961 164.856C376.535 192.684 413.858 198.816 446.169 195.519C478.48 192.222 509.736 180.287 544.289 175.605C580.227 170.725 622.495 172.11 648.938 196.904C679.402 225.39 678.677 274.253 664.302 313.949C649.927 353.646 622.166 389.914 611.022 428.291C601.658 460.603 606.933 495.288 622.561 523.576C638.189 551.799 664.83 573.955 696.811 583.781" stroke="url(#paint22_linear_0_7)" stroke-opacity="0.3" stroke-width="0.627803" stroke-miterlimit="10"/>
<path id="Vector_24" d="M111.782 35.1501C152.006 16.6207 199.484 14.3128 241.422 28.7539C283.361 43.195 319.892 74.0554 339.675 113.818C348.181 130.963 352.533 150.152 362.886 165.186C382.207 193.211 418.145 200.201 449.335 198.289C480.525 196.376 511.122 185.958 545.345 182.133C581.481 178.045 623.881 178.704 651.049 202.773C682.173 230.336 682.964 278.869 669.314 318.829C655.599 358.789 627.244 395.123 615.111 432.511C605.022 463.504 609.638 496.804 623.815 524.104C637.992 551.403 662.786 573.23 693.449 583.451" stroke="url(#paint23_linear_0_7)" stroke-opacity="0.3" stroke-width="0.627803" stroke-miterlimit="10"/>
<path id="Vector_25" d="M122.794 32.7106C162.754 14.8405 209.638 12.9942 250.917 27.6331C292.196 42.2721 328.2 73.0006 347.323 112.499C355.83 130.106 359.72 149.888 369.677 165.384C387.745 193.607 422.298 201.454 452.368 200.86C482.437 200.267 512.44 191.497 546.268 188.464C582.535 185.232 625.133 185.101 652.961 208.444C684.678 235.084 687.118 283.353 674.062 323.511C661.071 363.669 632.057 400.201 618.869 436.6C608.12 466.274 612.011 498.123 624.738 524.434C637.464 550.744 660.412 572.307 689.69 582.857" stroke="url(#paint24_linear_0_7)" stroke-opacity="0.3" stroke-width="0.627803" stroke-miterlimit="10"/>
<path id="Vector_26" d="M133.87 30.2048C173.501 12.9942 219.857 11.6094 260.543 26.5121C301.229 41.4148 336.573 72.0115 355.103 111.246C363.609 129.314 366.972 149.624 376.534 165.714C393.415 194.069 426.451 202.773 455.465 203.564C484.413 204.355 513.757 197.102 547.255 194.926C583.655 192.618 626.451 191.563 655.003 214.247C687.38 239.964 691.337 287.969 679.006 328.391C666.675 368.813 637.133 405.41 622.89 440.82C611.548 469.109 614.581 499.64 625.923 524.961C637.265 550.283 658.3 571.516 686.259 582.462" stroke="url(#paint25_linear_0_7)" stroke-opacity="0.3" stroke-width="0.627803" stroke-miterlimit="10"/>
<path id="Vector_27" d="M144.885 27.6988C184.252 11.1476 230.015 10.2244 270.107 25.3249C310.199 40.4254 344.884 70.9562 362.82 109.927C371.327 128.457 374.228 149.294 383.394 165.911C399.088 194.332 430.674 204.025 458.501 206.135C486.394 208.246 515.079 202.641 548.181 201.322C584.712 199.871 627.772 198.025 656.918 219.983C689.889 244.777 695.428 292.452 683.822 333.138C672.216 373.824 642.081 410.421 626.783 444.974C614.847 471.878 617.09 501.024 626.981 525.422C636.872 549.755 655.995 570.724 682.701 582" stroke="url(#paint26_linear_0_7)" stroke-opacity="0.3" stroke-width="0.627803" stroke-miterlimit="10"/>
<path id="Vector_28" d="M155.961 25.2601C194.998 9.30234 240.234 8.90669 279.667 24.205C319.099 39.5034 353.191 69.9682 370.533 108.676C379.04 127.667 381.414 148.966 390.25 166.242C404.823 194.729 434.892 205.411 461.598 208.84C488.37 212.335 516.461 206.466 549.168 207.785C585.831 209.236 629.089 204.554 658.96 225.787C692.524 249.658 699.646 297.07 688.699 337.953C677.753 378.837 647.157 415.566 630.671 449.13C618.142 474.715 619.593 502.476 628.034 525.819C636.474 549.228 653.751 569.802 679.138 581.474" stroke="url(#paint27_linear_0_7)" stroke-opacity="0.3" stroke-width="0.627803" stroke-miterlimit="10"/>
<path id="Vector_29" d="M166.975 22.7542C205.749 7.45587 250.457 7.52181 289.23 23.0839C328.07 38.5801 361.502 68.979 378.251 107.357C386.757 126.809 388.669 148.636 397.11 166.44C410.562 194.992 439.049 206.598 464.7 211.478C490.351 216.291 517.914 211.939 550.159 214.181C586.954 216.687 630.41 211.016 660.94 231.524C695.164 254.471 703.802 301.619 693.581 342.701C683.36 383.782 652.236 420.577 634.63 453.218C621.574 477.418 622.101 503.795 629.157 526.215C636.212 548.635 651.577 568.945 675.645 580.946" stroke="url(#paint28_linear_0_7)" stroke-opacity="0.3" stroke-width="0.627803" stroke-miterlimit="10"/>
<path id="Vector_30" d="M178.052 20.2479C216.561 5.609 260.676 6.13652 298.856 21.8965C337.036 37.6564 369.808 67.9234 386.03 106.037C394.47 125.952 395.987 148.24 403.966 166.703C416.297 195.256 443.267 207.916 467.797 214.115C492.327 220.313 519.231 219.522 551.147 220.577C588.206 221.83 631.727 217.412 662.983 237.26C697.8 259.285 708.087 306.169 698.525 347.448C688.964 388.727 657.444 425.588 638.585 457.372C625.067 480.187 624.671 505.245 630.276 526.676C635.881 548.107 649.399 568.153 672.149 580.484" stroke="url(#paint29_linear_0_7)" stroke-opacity="0.3" stroke-width="0.627803" stroke-miterlimit="10"/>
<path id="Vector_31" d="M189.064 17.8075C227.244 3.82799 270.831 4.88305 308.418 20.7749C346.004 36.6667 378.118 66.9337 393.746 104.784C402.186 125.16 403.307 147.909 410.824 167.032C422.1 195.651 447.422 209.301 470.897 216.818C494.306 224.335 520.551 225.192 552.07 227.039C589.261 229.215 632.98 223.94 664.896 242.997C700.306 264.164 712.175 310.652 703.339 352.195C694.503 393.738 662.522 430.599 642.476 461.459C628.496 482.956 627.177 506.563 631.332 527.005C635.486 547.447 647.158 567.163 668.588 579.89" stroke="url(#paint30_linear_0_7)" stroke-opacity="0.3" stroke-width="0.627803" stroke-miterlimit="10"/>
<path id="Vector_32" d="M200.145 15.3025C238.061 1.91648 281.054 3.49907 317.982 19.6546C354.909 35.8102 386.363 66.0113 401.463 103.532C409.838 124.369 410.563 147.58 417.685 167.297C427.971 195.849 451.644 210.554 473.932 219.456C496.22 228.358 521.872 230.864 552.996 233.502C590.384 236.667 634.235 230.468 666.81 248.8C702.814 269.044 716.266 315.269 708.089 357.075C699.913 398.882 667.667 435.743 646.237 465.746C631.927 485.859 629.488 508.147 632.257 527.599C635.027 547.052 644.786 566.505 664.898 579.561" stroke="url(#paint31_linear_0_7)" stroke-opacity="0.3" stroke-width="0.627803" stroke-miterlimit="10"/>
<path id="Vector_33" d="M211.156 12.8619C248.743 0.135268 291.209 2.17945 327.542 18.5329C363.876 34.8863 394.604 65.0214 409.111 102.278C417.486 123.643 417.816 147.25 424.476 167.626C433.773 196.178 455.798 211.938 476.965 222.159C498.198 232.38 523.19 236.6 553.918 239.963C591.439 244.052 635.421 236.996 668.788 254.602C705.385 273.923 720.42 319.884 712.968 361.888C705.517 403.893 672.942 440.82 650.192 469.9C635.487 488.693 632.058 509.531 633.377 528.06C634.696 546.59 642.609 565.713 661.402 579.099" stroke="url(#paint32_linear_0_7)" stroke-opacity="0.3" stroke-width="0.627803" stroke-miterlimit="10"/>
<path id="Vector_34" d="M222.232 10.3571C259.555 -1.71015 301.494 0.795615 337.168 17.3468C372.842 33.8981 402.911 64.0332 416.891 100.894C425.199 122.721 425.265 146.789 431.332 167.759C439.64 196.311 459.95 213.126 480.062 224.732C500.174 236.337 524.572 242.206 554.905 246.294C592.624 251.372 636.738 243.393 670.764 260.274C707.955 278.737 724.638 324.303 717.846 366.571C711.054 408.839 678.281 445.832 654.147 473.989C639.178 491.464 634.628 510.916 634.496 528.391C634.364 545.931 640.431 564.724 657.905 578.572" stroke="url(#paint33_linear_0_7)" stroke-opacity="0.3" stroke-width="0.627803" stroke-miterlimit="10"/>
<path id="Vector_35" d="M233.244 7.85081C270.236 -3.62295 311.648 -0.589654 346.728 16.2253C381.809 33.0403 411.087 63.0435 424.605 99.6409C432.847 121.929 432.584 146.393 438.189 168.088C445.574 196.574 464.169 214.444 483.16 227.435C502.151 240.425 525.956 247.942 555.894 252.756C593.81 258.823 638.056 249.987 672.807 266.076C710.591 283.617 728.857 328.918 722.725 371.384C716.658 413.85 683.687 450.975 658.036 478.143C642.738 494.365 637.133 512.301 635.55 528.852C633.968 545.403 638.188 563.932 654.344 578.11" stroke="url(#paint34_linear_0_7)" stroke-opacity="0.3" stroke-width="0.627803" stroke-miterlimit="10"/>
</g>
<defs>
<linearGradient id="paint0_linear_0_7" x1="675.446" y1="360.532" x2="0.99957" y2="360.532" gradientUnits="userSpaceOnUse">
<stop stop-color="white" stop-opacity="0.5"/>
<stop offset="0.461538" stop-color="#557FC1" stop-opacity="0"/>
</linearGradient>
<linearGradient id="paint1_linear_0_7" x1="677.293" y1="357.676" x2="4.49552" y2="357.676" gradientUnits="userSpaceOnUse">
<stop stop-color="white" stop-opacity="0.5"/>
<stop offset="0.461538" stop-color="#557FC1" stop-opacity="0"/>
</linearGradient>
<linearGradient id="paint2_linear_0_7" x1="678.874" y1="354.882" x2="7.98936" y2="354.882" gradientUnits="userSpaceOnUse">
<stop stop-color="white" stop-opacity="0.5"/>
<stop offset="0.461538" stop-color="#557FC1" stop-opacity="0"/>
</linearGradient>
<linearGradient id="paint3_linear_0_7" x1="680.59" y1="351.944" x2="11.4851" y2="351.944" gradientUnits="userSpaceOnUse">
<stop stop-color="white" stop-opacity="0.5"/>
<stop offset="0.461538" stop-color="#557FC1" stop-opacity="0"/>
</linearGradient>
<linearGradient id="paint4_linear_0_7" x1="682.172" y1="349.078" x2="14.9797" y2="349.078" gradientUnits="userSpaceOnUse">
<stop stop-color="white" stop-opacity="0.5"/>
<stop offset="0.461538" stop-color="#557FC1" stop-opacity="0"/>
</linearGradient>
<linearGradient id="paint5_linear_0_7" x1="684.017" y1="346.176" x2="18.4732" y2="346.176" gradientUnits="userSpaceOnUse">
<stop stop-color="white" stop-opacity="0.5"/>
<stop offset="0.461538" stop-color="#557FC1" stop-opacity="0"/>
</linearGradient>
<linearGradient id="paint6_linear_0_7" x1="685.535" y1="343.283" x2="22.0356" y2="343.283" gradientUnits="userSpaceOnUse">
<stop stop-color="white" stop-opacity="0.5"/>
<stop offset="0.461538" stop-color="#557FC1" stop-opacity="0"/>
</linearGradient>
<linearGradient id="paint7_linear_0_7" x1="687.316" y1="340.414" x2="25.5304" y2="340.414" gradientUnits="userSpaceOnUse">
<stop stop-color="white" stop-opacity="0.5"/>
<stop offset="0.461538" stop-color="#557FC1" stop-opacity="0"/>
</linearGradient>
<linearGradient id="paint8_linear_0_7" x1="689.096" y1="337.533" x2="29.0253" y2="337.533" gradientUnits="userSpaceOnUse">
<stop stop-color="white" stop-opacity="0.5"/>
<stop offset="0.461538" stop-color="#557FC1" stop-opacity="0"/>
</linearGradient>
<linearGradient id="paint9_linear_0_7" x1="690.745" y1="334.679" x2="32.5201" y2="334.679" gradientUnits="userSpaceOnUse">
<stop stop-color="white" stop-opacity="0.5"/>
<stop offset="0.461538" stop-color="#557FC1" stop-opacity="0"/>
</linearGradient>
<linearGradient id="paint10_linear_0_7" x1="692.394" y1="331.833" x2="36.0159" y2="331.833" gradientUnits="userSpaceOnUse">
<stop stop-color="white" stop-opacity="0.5"/>
<stop offset="0.461538" stop-color="#557FC1" stop-opacity="0"/>
</linearGradient>
<linearGradient id="paint11_linear_0_7" x1="693.974" y1="328.907" x2="39.5081" y2="328.907" gradientUnits="userSpaceOnUse">
<stop stop-color="white" stop-opacity="0.5"/>
<stop offset="0.461538" stop-color="#557FC1" stop-opacity="0"/>
</linearGradient>
<linearGradient id="paint12_linear_0_7" x1="695.822" y1="326.034" x2="43.0701" y2="326.034" gradientUnits="userSpaceOnUse">
<stop stop-color="white" stop-opacity="0.5"/>
<stop offset="0.461538" stop-color="#557FC1" stop-opacity="0"/>
</linearGradient>
<linearGradient id="paint13_linear_0_7" x1="697.471" y1="323.069" x2="46.5655" y2="323.069" gradientUnits="userSpaceOnUse">
<stop stop-color="white" stop-opacity="0.5"/>
<stop offset="0.461538" stop-color="#557FC1" stop-opacity="0"/>
</linearGradient>
<linearGradient id="paint14_linear_0_7" x1="699.185" y1="320.149" x2="50.06" y2="320.149" gradientUnits="userSpaceOnUse">
<stop stop-color="white" stop-opacity="0.5"/>
<stop offset="0.461538" stop-color="#557FC1" stop-opacity="0"/>
</linearGradient>
<linearGradient id="paint15_linear_0_7" x1="700.833" y1="317.254" x2="53.5549" y2="317.254" gradientUnits="userSpaceOnUse">
<stop stop-color="white" stop-opacity="0.5"/>
<stop offset="0.461538" stop-color="#557FC1" stop-opacity="0"/>
</linearGradient>
<linearGradient id="paint16_linear_0_7" x1="702.481" y1="314.283" x2="57.0489" y2="314.283" gradientUnits="userSpaceOnUse">
<stop stop-color="white" stop-opacity="0.5"/>
<stop offset="0.461538" stop-color="#557FC1" stop-opacity="0"/>
</linearGradient>
<linearGradient id="paint17_linear_0_7" x1="704.062" y1="311.273" x2="60.5422" y2="311.273" gradientUnits="userSpaceOnUse">
<stop stop-color="white" stop-opacity="0.5"/>
<stop offset="0.461538" stop-color="#557FC1" stop-opacity="0"/>
</linearGradient>
<linearGradient id="paint18_linear_0_7" x1="705.977" y1="308.344" x2="64.1055" y2="308.344" gradientUnits="userSpaceOnUse">
<stop stop-color="white" stop-opacity="0.5"/>
<stop offset="0.461538" stop-color="#557FC1" stop-opacity="0"/>
</linearGradient>
<linearGradient id="paint19_linear_0_7" x1="707.493" y1="305.342" x2="67.6001" y2="305.342" gradientUnits="userSpaceOnUse">
<stop stop-color="white" stop-opacity="0.5"/>
<stop offset="0.461538" stop-color="#557FC1" stop-opacity="0"/>
</linearGradient>
<linearGradient id="paint20_linear_0_7" x1="703.865" y1="304.375" x2="78.6113" y2="304.375" gradientUnits="userSpaceOnUse">
<stop stop-color="white" stop-opacity="0.5"/>
<stop offset="0.461538" stop-color="#557FC1" stop-opacity="0"/>
</linearGradient>
<linearGradient id="paint21_linear_0_7" x1="700.371" y1="303.371" x2="89.6901" y2="303.371" gradientUnits="userSpaceOnUse">
<stop stop-color="white" stop-opacity="0.5"/>
<stop offset="0.461538" stop-color="#557FC1" stop-opacity="0"/>
</linearGradient>
<linearGradient id="paint22_linear_0_7" x1="696.811" y1="302.371" x2="100.703" y2="302.371" gradientUnits="userSpaceOnUse">
<stop stop-color="white" stop-opacity="0.5"/>
<stop offset="0.461538" stop-color="#557FC1" stop-opacity="0"/>
</linearGradient>
<linearGradient id="paint23_linear_0_7" x1="693.449" y1="301.412" x2="111.782" y2="301.412" gradientUnits="userSpaceOnUse">
<stop stop-color="white" stop-opacity="0.5"/>
<stop offset="0.461538" stop-color="#557FC1" stop-opacity="0"/>
</linearGradient>
<linearGradient id="paint24_linear_0_7" x1="689.69" y1="300.35" x2="122.794" y2="300.35" gradientUnits="userSpaceOnUse">
<stop stop-color="white" stop-opacity="0.5"/>
<stop offset="0.461538" stop-color="#557FC1" stop-opacity="0"/>
</linearGradient>
<linearGradient id="paint25_linear_0_7" x1="686.259" y1="299.351" x2="133.87" y2="299.351" gradientUnits="userSpaceOnUse">
<stop stop-color="white" stop-opacity="0.5"/>
<stop offset="0.461538" stop-color="#557FC1" stop-opacity="0"/>
</linearGradient>
<linearGradient id="paint26_linear_0_7" x1="689.366" y1="298.305" x2="144.885" y2="298.305" gradientUnits="userSpaceOnUse">
<stop stop-color="white" stop-opacity="0.5"/>
<stop offset="0.461538" stop-color="#557FC1" stop-opacity="0"/>
</linearGradient>
<linearGradient id="paint27_linear_0_7" x1="693.462" y1="297.239" x2="155.961" y2="297.239" gradientUnits="userSpaceOnUse">
<stop stop-color="white" stop-opacity="0.5"/>
<stop offset="0.461538" stop-color="#557FC1" stop-opacity="0"/>
</linearGradient>
<linearGradient id="paint28_linear_0_7" x1="697.611" y1="296.146" x2="166.975" y2="296.146" gradientUnits="userSpaceOnUse">
<stop stop-color="white" stop-opacity="0.5"/>
<stop offset="0.461538" stop-color="#557FC1" stop-opacity="0"/>
</linearGradient>
<linearGradient id="paint29_linear_0_7" x1="701.917" y1="295.071" x2="178.052" y2="295.071" gradientUnits="userSpaceOnUse">
<stop stop-color="white" stop-opacity="0.5"/>
<stop offset="0.461538" stop-color="#557FC1" stop-opacity="0"/>
</linearGradient>
<linearGradient id="paint30_linear_0_7" x1="706.141" y1="293.964" x2="189.064" y2="293.964" gradientUnits="userSpaceOnUse">
<stop stop-color="white" stop-opacity="0.5"/>
<stop offset="0.461538" stop-color="#557FC1" stop-opacity="0"/>
</linearGradient>
<linearGradient id="paint31_linear_0_7" x1="710.402" y1="292.925" x2="200.145" y2="292.925" gradientUnits="userSpaceOnUse">
<stop stop-color="white" stop-opacity="0.5"/>
<stop offset="0.461538" stop-color="#557FC1" stop-opacity="0"/>
</linearGradient>
<linearGradient id="paint32_linear_0_7" x1="714.824" y1="291.85" x2="211.156" y2="291.85" gradientUnits="userSpaceOnUse">
<stop stop-color="white" stop-opacity="0.5"/>
<stop offset="0.461538" stop-color="#557FC1" stop-opacity="0"/>
</linearGradient>
<linearGradient id="paint33_linear_0_7" x1="719.329" y1="290.698" x2="222.232" y2="290.698" gradientUnits="userSpaceOnUse">
<stop stop-color="white" stop-opacity="0.5"/>
<stop offset="0.461538" stop-color="#557FC1" stop-opacity="0"/>
</linearGradient>
<linearGradient id="paint34_linear_0_7" x1="723.891" y1="289.555" x2="233.244" y2="289.555" gradientUnits="userSpaceOnUse">
<stop stop-color="white" stop-opacity="0.5"/>
<stop offset="0.461538" stop-color="#557FC1" stop-opacity="0"/>
</linearGradient>
</defs>
</svg>
